<?xml version="1.0" standalone="no"?>
 <!DOCTYPE svg PUBLIC "-//W3C//DTD SVG 1.1//EN" 
 "http://www.w3.org/Graphics/SVG/1.1/DTD/svg11.dtd"> 
<svg
  xmlns:svg="http://www.w3.org/2000/svg"
  xmlns="http://www.w3.org/2000/svg"
  xmlns:xlink="http://www.w3.org/1999/xlink"
  version="1.1"
  width="7.076440cm" height="5.895340cm" viewBox="0 0 27860 23210">
<title>SVG Picture created as stepper_driver-B_SilkS.svg date 2021/11/03 11:59:43 </title>
  <desc>Picture generated by PCBNEW </desc>
<g style="fill:#000000; fill-opacity:1;stroke:#000000; stroke-opacity:1;
stroke-linecap:round; stroke-linejoin:round;"
 transform="translate(0 0) scale(1 1)">
</g>
<g style="fill:#000000; fill-opacity:0.0; 
stroke:#000000; stroke-width:-0.000393701; stroke-opacity:1; 
stroke-linecap:round; stroke-linejoin:round;">
</g>
<g style="fill:#840084; fill-opacity:0.0; 
stroke:#840084; stroke-width:-0.000393701; stroke-opacity:1; 
stroke-linecap:round; stroke-linejoin:round;">
</g>
<g style="fill:#840084; fill-opacity:0.0; 
stroke:#840084; stroke-width:150; stroke-opacity:1; 
stroke-linecap:round; stroke-linejoin:round;">
<path d="M9301 21477
L9301 19942
" />
<path d="M13238 21477
L9301 21477
" />
<path d="M13238 19942
L13238 21477
" />
<path d="M9301 19942
L13238 19942
" />
<circle cx="9756.06" cy="20379.3" r="250" /> 
</g>
<g style="fill:#840084; fill-opacity:0.0; 
stroke:#840084; stroke-width:70; stroke-opacity:1; 
stroke-linecap:round; stroke-linejoin:round;">
<path d="M12177 12794
L12177 12538
" />
<path d="M11862 12794
L12177 12794
" />
<path d="M11862 12538
L11862 12794
" />
<path d="M12177 12125
L12177 12381
" />
<path d="M11862 12125
L12177 12125
" />
<path d="M11862 12381
L11862 12125
" />
<path d="M14677 12794
L14677 12538
" />
<path d="M14362 12794
L14677 12794
" />
<path d="M14362 12538
L14362 12794
" />
<path d="M14677 12125
L14677 12381
" />
<path d="M14362 12125
L14677 12125
" />
<path d="M14362 12381
L14362 12125
" />
<path d="M8612 20375
L8612 20631
" />
<path d="M8927 20375
L8612 20375
" />
<path d="M8927 20631
L8927 20375
" />
<path d="M8612 21044
L8612 20788
" />
<path d="M8927 21044
L8612 21044
" />
<path d="M8927 20788
L8927 21044
" />
<path d="M16854 11052
L16598 11052
" />
<path d="M16854 11367
L16854 11052
" />
<path d="M16598 11367
L16854 11367
" />
<path d="M16185 11052
L16441 11052
" />
<path d="M16185 11367
L16185 11052
" />
<path d="M16441 11367
L16185 11367
" />
<path d="M9435 19117
L9691 19117
" />
<path d="M9435 18802
L9435 19117
" />
<path d="M9691 18802
L9435 18802
" />
<path d="M10104 19117
L9848 19117
" />
<path d="M10104 18802
L10104 19117
" />
<path d="M9848 18802
L10104 18802
" />
<path d="M12604 18802
L12348 18802
" />
<path d="M12604 19117
L12604 18802
" />
<path d="M12348 19117
L12604 19117
" />
<path d="M11935 18802
L12191 18802
" />
<path d="M11935 19117
L11935 18802
" />
<path d="M12191 19117
L11935 19117
" />
</g>
<g style="fill:#840084; fill-opacity:0.0; 
stroke:#840084; stroke-width:39.3701; stroke-opacity:1; 
stroke-linecap:round; stroke-linejoin:round;">
<path d="M4269 13965
L4584 13512
" />
<path d="M4269 13965
L3974 13512
" />
<path d="M3974 13512
L4584 13512
" />
<path d="M4584 13965
L3954 13965
" />
<path d="M4269 13512
L4269 13119
" />
<path d="M4269 13965
L4269 14320
" />
</g>
<g style="fill:#840084; fill-opacity:0.0; 
stroke:#840084; stroke-width:110; stroke-opacity:1; 
stroke-linecap:round; stroke-linejoin:round;">
<path d="M5116 15107
L3423 15107
" />
<path d="M7677 13342
L7677 13032
" />
<path d="M7522 13187
L7832 13187
" />
</g>
<g style="fill:#840084; fill-opacity:0.0; 
stroke:#840084; stroke-width:47.2441; stroke-opacity:1; 
stroke-linecap:round; stroke-linejoin:round;">
<path d="M7927 11536
L8346 11117
" />
<path d="M7927 13383
L8346 13802
" />
<path d="M7927 13383
L7927 12877
" />
<path d="M7927 11536
L7927 12042
" />
<path d="M8346 11117
L10612 11117
" />
<path d="M8346 13802
L10612 13802
" />
<path d="M10612 13802
L10612 12877
" />
<path d="M10612 11117
L10612 12042
" />
</g>
<g style="fill:#840084; fill-opacity:0.0; 
stroke:#840084; stroke-width:90; stroke-opacity:1; 
stroke-linecap:round; stroke-linejoin:round;">
<path d="M7175 12233
L5364 12233
" />
<path d="M5364 12233
L5364 15186
" />
<path d="M5364 15186
L7175 15186
" />
<path d="M7175 15186
L7175 12233
" />
</g>
<g style="fill:#840084; fill-opacity:0.0; 
stroke:#840084; stroke-width:59.0551; stroke-opacity:1; 
stroke-linecap:round; stroke-linejoin:round;">
<path d="M12769 12460
L13769 12460
" />
</g>
<g style="fill:#840084; fill-opacity:0.0; 
stroke:#840084; stroke-width:150; stroke-opacity:1; 
stroke-linecap:round; stroke-linejoin:round;">
<path d="M16519 12060
L16519 12860
" />
</g>
<g style="fill:#840084; fill-opacity:0.0; 
stroke:#840084; stroke-width:90; stroke-opacity:1; 
stroke-linecap:round; stroke-linejoin:round;">
<path d="M17119 11760
L16919 11760
" />
<path d="M17019 11660
L17019 11860
" />
</g>
<g style="fill:#840084; fill-opacity:0.0; 
stroke:#840084; stroke-width:100; stroke-opacity:1; 
stroke-linecap:round; stroke-linejoin:round;">
<g transform="rotate(-90 13619.8 20710)">
<text x="13619.8" y="20910"
transform="scale(-1 1) translate(-27239.685039 0)"
textLength="681.89" font-size="533.333" lengthAdjust="spacingAndGlyphs"
text-anchor="middle" opacity="0">U1</text>
</g>
<path d="M13400 20405
L13724 20405
L13762 20424
L13781 20443
L13800 20481
L13800 20557
L13781 20595
L13762 20614
L13724 20633
L13400 20633
" />
<path d="M13800 21033
L13800 20805
" />
<path d="M13800 20919
L13400 20919
L13457 20881
L13496 20843
L13515 20805
" />
</g>
<g style="fill:#840084; fill-opacity:0.0; 
stroke:#840084; stroke-width:50; stroke-opacity:1; 
stroke-linecap:round; stroke-linejoin:round;">
<text x="12019.8" y="13060"
transform="scale(-1 1) translate(-24039.685039 0)"
textLength="260.476" font-size="266.667" lengthAdjust="spacingAndGlyphs"
text-anchor="middle" opacity="0">C2</text>
<path d="M12053 13031
L12062 13040
L12091 13050
L12110 13050
L12138 13040
L12157 13021
L12167 13002
L12176 12964
L12176 12936
L12167 12898
L12157 12879
L12138 12860
L12110 12850
L12091 12850
L12062 12860
L12053 12869
" />
<path d="M11976 12869
L11967 12860
L11948 12850
L11900 12850
L11881 12860
L11872 12869
L11862 12888
L11862 12907
L11872 12936
L11986 13050
L11862 13050
" />
<text x="12019.8" y="12060"
transform="scale(-1 1) translate(-24039.685039 0)"
textLength="477.857" font-size="266.667" lengthAdjust="spacingAndGlyphs"
text-anchor="middle" opacity="0">1uF</text>
<path d="M12138 12050
L12253 12050
" />
<path d="M12196 12050
L12196 11850
L12215 11879
L12234 11898
L12253 11907
" />
<path d="M11967 11917
L11967 12050
" />
<path d="M12053 11917
L12053 12021
L12043 12040
L12024 12050
L11996 12050
L11976 12040
L11967 12031
" />
<path d="M11805 11945
L11872 11945
" />
<path d="M11872 12050
L11872 11850
L11776 11850
" />
<text x="14519.8" y="13060"
transform="scale(-1 1) translate(-29039.685039 0)"
textLength="325.476" font-size="266.667" lengthAdjust="spacingAndGlyphs"
text-anchor="middle" opacity="0">C3</text>
<path d="M14553 13031
L14562 13040
L14591 13050
L14610 13050
L14638 13040
L14657 13021
L14667 13002
L14676 12964
L14676 12936
L14667 12898
L14657 12879
L14638 12860
L14610 12850
L14591 12850
L14562 12860
L14553 12869
" />
<path d="M14486 12850
L14362 12850
L14429 12926
L14400 12926
L14381 12936
L14372 12945
L14362 12964
L14362 13012
L14372 13031
L14381 13040
L14400 13050
L14457 13050
L14476 13040
L14486 13031
" />
<text x="14519.8" y="12060"
transform="scale(-1 1) translate(-29039.685039 0)"
textLength="477.857" font-size="266.667" lengthAdjust="spacingAndGlyphs"
text-anchor="middle" opacity="0">1uF</text>
<path d="M14638 12050
L14753 12050
" />
<path d="M14696 12050
L14696 11850
L14715 11879
L14734 11898
L14753 11907
" />
<path d="M14467 11917
L14467 12050
" />
<path d="M14553 11917
L14553 12021
L14543 12040
L14524 12050
L14496 12050
L14476 12040
L14467 12031
" />
<path d="M14305 11945
L14372 11945
" />
<path d="M14372 12050
L14372 11850
L14276 11850
" />
<text x="8769.84" y="20310"
transform="scale(-1 1) translate(-17539.685039 0)"
textLength="325.476" font-size="266.667" lengthAdjust="spacingAndGlyphs"
text-anchor="middle" opacity="0">C4</text>
<path d="M8803 20281
L8812 20290
L8841 20300
L8860 20300
L8888 20290
L8907 20271
L8917 20252
L8926 20214
L8926 20186
L8917 20148
L8907 20129
L8888 20110
L8860 20100
L8841 20100
L8812 20110
L8803 20119
" />
<path d="M8631 20167
L8631 20300
" />
<path d="M8679 20090
L8726 20233
L8603 20233
" />
<text x="8769.84" y="21310"
transform="scale(-1 1) translate(-17539.685039 0)"
textLength="763.571" font-size="266.667" lengthAdjust="spacingAndGlyphs"
text-anchor="middle" opacity="0">0.1uF</text>
<path d="M9098 21100
L9079 21100
L9060 21110
L9050 21119
L9041 21138
L9031 21176
L9031 21224
L9041 21262
L9050 21281
L9060 21290
L9079 21300
L9098 21300
L9117 21290
L9126 21281
L9136 21262
L9146 21224
L9146 21176
L9136 21138
L9126 21119
L9117 21110
L9098 21100
" />
<path d="M8946 21281
L8936 21290
L8946 21300
L8955 21290
L8946 21281
L8946 21300
" />
<path d="M8746 21300
L8860 21300
" />
<path d="M8803 21300
L8803 21100
L8822 21129
L8841 21148
L8860 21157
" />
<path d="M8574 21167
L8574 21300
" />
<path d="M8660 21167
L8660 21271
L8650 21290
L8631 21300
L8603 21300
L8584 21290
L8574 21281
" />
<path d="M8412 21195
L8479 21195
" />
<path d="M8479 21300
L8479 21100
L8384 21100
" />
<g transform="rotate(-90 17019.8 11210)">
<text x="17019.8" y="11310"
transform="scale(-1 1) translate(-34039.685039 0)"
textLength="325.476" font-size="266.667" lengthAdjust="spacingAndGlyphs"
text-anchor="middle" opacity="0">C5</text>
</g>
<path d="M17091 11176
L17100 11167
L17110 11138
L17110 11119
L17100 11090
L17081 11071
L17062 11062
L17024 11052
L16996 11052
L16957 11062
L16938 11071
L16919 11090
L16910 11119
L16910 11138
L16919 11167
L16929 11176
" />
<path d="M16910 11357
L16910 11262
L17005 11252
L16996 11262
L16986 11281
L16986 11329
L16996 11348
L17005 11357
L17024 11367
L17072 11367
L17091 11357
L17100 11348
L17110 11329
L17110 11281
L17100 11262
L17091 11252
" />
<g transform="rotate(-90 16019.8 11210)">
<text x="16019.8" y="11310"
transform="scale(-1 1) translate(-32039.685039 0)"
textLength="763.571" font-size="266.667" lengthAdjust="spacingAndGlyphs"
text-anchor="middle" opacity="0">0.1uF</text>
</g>
<path d="M15910 10881
L15910 10900
L15919 10919
L15929 10929
L15948 10938
L15986 10948
L16034 10948
L16072 10938
L16091 10929
L16100 10919
L16110 10900
L16110 10881
L16100 10862
L16091 10852
L16072 10843
L16034 10833
L15986 10833
L15948 10843
L15929 10852
L15919 10862
L15910 10881
" />
<path d="M16091 11033
L16100 11043
L16110 11033
L16100 11024
L16091 11033
L16110 11033
" />
<path d="M16110 11233
L16110 11119
" />
<path d="M16110 11176
L15910 11176
L15938 11157
L15957 11138
L15967 11119
" />
<path d="M15976 11405
L16110 11405
" />
<path d="M15976 11319
L16081 11319
L16100 11329
L16110 11348
L16110 11376
L16100 11395
L16091 11405
" />
<path d="M16005 11567
L16005 11500
" />
<path d="M16110 11500
L15910 11500
L15910 11595
" />
<g transform="rotate(90 9269.84 18960)">
<text x="9269.84" y="19060"
transform="scale(-1 1) translate(-18539.685039 0)"
textLength="325.476" font-size="266.667" lengthAdjust="spacingAndGlyphs"
text-anchor="middle" opacity="0">R1</text>
</g>
<path d="M9179 18993
L9274 19060
" />
<path d="M9179 19107
L9379 19107
L9379 19031
L9369 19012
L9360 19002
L9341 18993
L9312 18993
L9293 19002
L9284 19012
L9274 19031
L9274 19107
" />
<path d="M9179 18802
L9179 18917
" />
<path d="M9179 18860
L9379 18860
L9350 18879
L9331 18898
L9322 18917
" />
<g transform="rotate(90 10269.8 18960)">
<text x="10269.8" y="19060"
transform="scale(-1 1) translate(-20539.685039 0)"
textLength="506.429" font-size="266.667" lengthAdjust="spacingAndGlyphs"
text-anchor="middle" opacity="0">100</text>
</g>
<path d="M10179 19093
L10179 19207
" />
<path d="M10179 19150
L10379 19150
L10350 19169
L10331 19188
L10322 19207
" />
<path d="M10379 18969
L10379 18950
L10369 18931
L10360 18921
L10341 18912
L10303 18902
L10255 18902
L10217 18912
L10198 18921
L10188 18931
L10179 18950
L10179 18969
L10188 18988
L10198 18998
L10217 19007
L10255 19017
L10303 19017
L10341 19007
L10360 18998
L10369 18988
L10379 18969
" />
<path d="M10379 18779
L10379 18760
L10369 18740
L10360 18731
L10341 18721
L10303 18712
L10255 18712
L10217 18721
L10198 18731
L10188 18740
L10179 18760
L10179 18779
L10188 18798
L10198 18807
L10217 18817
L10255 18826
L10303 18826
L10341 18817
L10360 18807
L10369 18798
L10379 18779
" />
<g transform="rotate(-90 12769.8 18960)">
<text x="12769.8" y="19060"
transform="scale(-1 1) translate(-25539.685039 0)"
textLength="325.476" font-size="266.667" lengthAdjust="spacingAndGlyphs"
text-anchor="middle" opacity="0">R2</text>
</g>
<path d="M12860 18926
L12765 18860
" />
<path d="M12860 18812
L12660 18812
L12660 18888
L12669 18907
L12679 18917
L12698 18926
L12726 18926
L12746 18917
L12755 18907
L12765 18888
L12765 18812
" />
<path d="M12679 19002
L12669 19012
L12660 19031
L12660 19079
L12669 19098
L12679 19107
L12698 19117
L12717 19117
L12746 19107
L12860 18993
L12860 19117
" />
<g transform="rotate(-90 11769.8 18960)">
<text x="11769.8" y="19060"
transform="scale(-1 1) translate(-23539.685039 0)"
textLength="506.429" font-size="266.667" lengthAdjust="spacingAndGlyphs"
text-anchor="middle" opacity="0">100</text>
</g>
<path d="M11860 18826
L11860 18712
" />
<path d="M11860 18769
L11660 18769
L11688 18750
L11707 18731
L11717 18712
" />
<path d="M11660 18950
L11660 18969
L11669 18988
L11679 18998
L11698 19007
L11736 19017
L11784 19017
L11822 19007
L11841 18998
L11850 18988
L11860 18969
L11860 18950
L11850 18931
L11841 18921
L11822 18912
L11784 18902
L11736 18902
L11698 18912
L11679 18921
L11669 18931
L11660 18950
" />
<path d="M11660 19140
L11660 19160
L11669 19179
L11679 19188
L11698 19198
L11736 19207
L11784 19207
L11822 19198
L11841 19188
L11850 19179
L11860 19160
L11860 19140
L11850 19121
L11841 19112
L11822 19102
L11784 19093
L11736 19093
L11698 19102
L11679 19112
L11669 19121
L11660 19140
" />
</g>
<g style="fill:#840084; fill-opacity:0.0; 
stroke:#840084; stroke-width:100; stroke-opacity:1; 
stroke-linecap:round; stroke-linejoin:round;">
<text x="4269.84" y="15660"
transform="scale(-1 1) translate(-8539.685039 0)"
textLength="715.952" font-size="533.333" lengthAdjust="spacingAndGlyphs"
text-anchor="middle" opacity="0">D2</text>
<path d="M4565 15640
L4565 15240
L4469 15240
L4412 15260
L4374 15298
L4355 15336
L4336 15412
L4336 15469
L4355 15545
L4374 15583
L4412 15621
L4469 15640
L4565 15640
" />
<path d="M4184 15279
L4165 15260
L4126 15240
L4031 15240
L3993 15260
L3974 15279
L3955 15317
L3955 15355
L3974 15412
L4203 15640
L3955 15640
" />
<text x="9269.84" y="14372.6"
transform="scale(-1 1) translate(-18539.685039 0)"
textLength="650.952" font-size="533.333" lengthAdjust="spacingAndGlyphs"
text-anchor="middle" opacity="0">C1</text>
<path d="M9336 14315
L9355 14334
L9412 14353
L9450 14353
L9507 14334
L9546 14296
L9565 14258
L9584 14182
L9584 14125
L9565 14048
L9546 14010
L9507 13972
L9450 13953
L9412 13953
L9355 13972
L9336 13991
" />
<path d="M8955 14353
L9184 14353
" />
<path d="M9069 14353
L9069 13953
L9107 14010
L9146 14048
L9184 14067
" />
<text x="6269.84" y="15721.1"
transform="scale(-1 1) translate(-12539.685039 0)"
textLength="650.952" font-size="533.333" lengthAdjust="spacingAndGlyphs"
text-anchor="middle" opacity="0">D1</text>
<path d="M6565 15702
L6565 15302
L6469 15302
L6412 15321
L6374 15359
L6355 15397
L6336 15473
L6336 15530
L6355 15606
L6374 15644
L6412 15682
L6469 15702
L6565 15702
" />
<path d="M5955 15702
L6184 15702
" />
<path d="M6069 15702
L6069 15302
L6107 15359
L6146 15397
L6184 15416
" />
<text x="13269.8" y="11660"
transform="scale(-1 1) translate(-26539.685039 0)"
textLength="1412.86" font-size="533.333" lengthAdjust="spacingAndGlyphs"
text-anchor="middle" opacity="0">REG1</text>
<path d="M13717 11640
L13850 11450
" />
<path d="M13946 11640
L13946 11240
L13793 11240
L13755 11260
L13736 11279
L13717 11317
L13717 11374
L13736 11412
L13755 11431
L13793 11450
L13946 11450
" />
<path d="M13546 11431
L13412 11431
" />
<path d="M13355 11640
L13546 11640
L13546 11240
L13355 11240
" />
<path d="M12974 11260
L13012 11240
L13069 11240
L13126 11260
L13165 11298
L13184 11336
L13203 11412
L13203 11469
L13184 11545
L13165 11583
L13126 11621
L13069 11640
L13031 11640
L12974 11621
L12955 11602
L12955 11469
L13031 11469
" />
<path d="M12574 11640
L12803 11640
" />
<path d="M12688 11640
L12688 11240
L12726 11298
L12765 11336
L12803 11355
" />
</g>
<g style="fill:#840084; fill-opacity:0.0; 
stroke:#840084; stroke-width:50; stroke-opacity:1; 
stroke-linecap:round; stroke-linejoin:round;">
<text x="16019.8" y="11860"
transform="scale(-1 1) translate(-32039.685039 0)"
textLength="270" font-size="266.667" lengthAdjust="spacingAndGlyphs"
text-anchor="middle" opacity="0">U2</text>
<path d="M16172 11650
L16172 11812
L16162 11831
L16153 11840
L16134 11850
L16096 11850
L16076 11840
L16067 11831
L16057 11812
L16057 11650
" />
<path d="M15972 11669
L15962 11660
L15943 11650
L15896 11650
L15876 11660
L15867 11669
L15857 11688
L15857 11707
L15867 11736
L15981 11850
L15857 11850
" />
<text x="16519.8" y="13260"
transform="scale(-1 1) translate(-33039.685039 0)"
textLength="1287.38" font-size="266.667" lengthAdjust="spacingAndGlyphs"
text-anchor="middle" opacity="0">MAX6817</text>
<path d="M17148 13250
L17148 13050
L17081 13193
L17015 13050
L17015 13250
" />
<path d="M16929 13193
L16834 13193
" />
<path d="M16948 13250
L16881 13050
L16815 13250
" />
<path d="M16767 13050
L16634 13250
" />
<path d="M16634 13050
L16767 13250
" />
<path d="M16472 13050
L16510 13050
L16529 13060
L16538 13069
L16557 13098
L16567 13136
L16567 13212
L16557 13231
L16548 13240
L16529 13250
L16491 13250
L16472 13240
L16462 13231
L16453 13212
L16453 13164
L16462 13145
L16472 13136
L16491 13126
L16529 13126
L16548 13136
L16557 13145
L16567 13164
" />
<path d="M16338 13136
L16357 13126
L16367 13117
L16376 13098
L16376 13088
L16367 13069
L16357 13060
L16338 13050
L16300 13050
L16281 13060
L16272 13069
L16262 13088
L16262 13098
L16272 13117
L16281 13126
L16300 13136
L16338 13136
L16357 13145
L16367 13155
L16376 13174
L16376 13212
L16367 13231
L16357 13240
L16338 13250
L16300 13250
L16281 13240
L16272 13231
L16262 13212
L16262 13174
L16272 13155
L16281 13145
L16300 13136
" />
<path d="M16072 13250
L16186 13250
" />
<path d="M16129 13250
L16129 13050
L16148 13079
L16167 13098
L16186 13107
" />
<path d="M16005 13050
L15872 13050
L15957 13250
" />
<g >
</g>
</g>
<g style="fill:#000000; fill-opacity:0.0; 
stroke:#000000; stroke-width:50; stroke-opacity:1; 
stroke-linecap:round; stroke-linejoin:round;">
</g>
<g style="fill:#C2C200; fill-opacity:0.0; 
stroke:#C2C200; stroke-width:50; stroke-opacity:1; 
stroke-linecap:round; stroke-linejoin:round;">
</g>
<g style="fill:#C2C200; fill-opacity:0.0; 
stroke:#C2C200; stroke-width:90; stroke-opacity:1; 
stroke-linecap:round; stroke-linejoin:round;">
<path d="M3019.84 21210 A1250 1250 0.0 0 0 4269.84 22460" />
<path d="M18269.8 22460 A1250 1250 0.0 0 0 19519.8 21210" />
<path d="M19519.8 7210.04 A1250 1250 0.0 0 0 18269.8 5960.04" />
<path d="M4269.84 5960.04 A1250 1250 0.0 0 0 3019.84 7210.04" />
<path d="M3019 7210
L3019 21210
" />
<path d="M4269 22460
L18269 22460
" />
<path d="M19519 7210
L19519 21210
" />
<path d="M4269 5960
L18269 5960
" />
<g >
</g>
<g >
</g>
<g >
</g>
<g >
</g>
<g >
</g>
<g >
</g>
<g >
</g>
<g >
</g>
<g >
</g>
<g >
</g>
<g >
</g>
<g >
</g>
<g >
</g>
<g >
</g>
<g >
</g>
<g >
</g>
<g >
</g>
<g >
</g>
<g >
</g>
<g >
</g>
<g >
</g>
<g >
</g>
<g >
</g>
<g >
</g>
<g >
</g>
<g >
</g>
<g >
</g>
</g> 
</svg>
