M48
; DRILL file {KiCad 5.1.10} date Wed Nov  3 11:58:47 2021
; FORMAT={2:4/ absolute / inch / keep zeros}
; #@! TF.CreationDate,2021-11-03T11:58:47-04:00
; #@! TF.GenerationSoftware,Kicad,Pcbnew,5.1.10
FMAT,2
INCH
T1C0.0250
T2C0.0350
T3C0.0400
T4C0.0433
T5C0.0440
T6C0.0512
T7C0.0560
T8C0.0610
T9C0.1160
T10C0.1300
%
G90
G05
T1
X052033Y-037047
X053250Y-042001
X054936Y-041568
X055228Y-039834
X055250Y-042001
X055451Y-041534
T2
X053000Y-038750
T3
X053000Y-037750
X054000Y-037750
X054000Y-038750
X055000Y-037750
X055000Y-038750
X056000Y-037750
X056000Y-038750
X057000Y-037750
X057000Y-038750
T4
X053500Y-028150
X054500Y-028150
X055500Y-028150
X056500Y-028150
T5
X061750Y-031250
X061750Y-034250
T6
X048261Y-032000
X049639Y-032000
T7
X061750Y-032250
X061750Y-035250
T8
X051500Y-030750
X051500Y-035750
X052500Y-030750
X052500Y-035750
X053500Y-030750
X053500Y-035750
X054500Y-030750
X054500Y-035750
X055500Y-030750
X055500Y-035750
X056500Y-030750
X056500Y-035750
X057500Y-030750
X057500Y-035750
X058500Y-030750
X058500Y-035750
T9
X049475Y-038350
X060525Y-038350
T10
X048890Y-028890
X048890Y-041110
X061110Y-028890
X061110Y-041110
T0
M30
