<?xml version="1.0" standalone="no"?>
 <!DOCTYPE svg PUBLIC "-//W3C//DTD SVG 1.1//EN" 
 "http://www.w3.org/Graphics/SVG/1.1/DTD/svg11.dtd"> 
<svg
  xmlns:svg="http://www.w3.org/2000/svg"
  xmlns="http://www.w3.org/2000/svg"
  xmlns:xlink="http://www.w3.org/1999/xlink"
  version="1.1"
  width="6.360160cm" height="5.895340cm" viewBox="0 0 25040 23210">
<title>SVG Picture created as stepper_driver-B_SilkS.svg date 2021/11/03 15:01:16 </title>
  <desc>Picture generated by PCBNEW </desc>
<g style="fill:#000000; fill-opacity:1;stroke:#000000; stroke-opacity:1;
stroke-linecap:round; stroke-linejoin:round;"
 transform="translate(0 0) scale(1 1)">
</g>
<g style="fill:#000000; fill-opacity:0.0; 
stroke:#000000; stroke-width:-0.000393701; stroke-opacity:1; 
stroke-linecap:round; stroke-linejoin:round;">
</g>
<g style="fill:#840084; fill-opacity:0.0; 
stroke:#840084; stroke-width:-0.000393701; stroke-opacity:1; 
stroke-linecap:round; stroke-linejoin:round;">
</g>
<g style="fill:#840084; fill-opacity:0.0; 
stroke:#840084; stroke-width:150; stroke-opacity:1; 
stroke-linecap:round; stroke-linejoin:round;">
<circle cx="7486.22" cy="20379.3" r="250" /> 
<path d="M7031 19942
L10968 19942
" />
<path d="M10968 19942
L10968 21477
" />
<path d="M10968 21477
L7031 21477
" />
<path d="M7031 21477
L7031 19942
" />
</g>
<g style="fill:#840084; fill-opacity:0.0; 
stroke:#840084; stroke-width:70; stroke-opacity:1; 
stroke-linecap:round; stroke-linejoin:round;">
<path d="M9907 12794
L9907 12538
" />
<path d="M9592 12794
L9907 12794
" />
<path d="M9592 12538
L9592 12794
" />
<path d="M9907 12125
L9907 12381
" />
<path d="M9592 12125
L9907 12125
" />
<path d="M9592 12381
L9592 12125
" />
<path d="M12407 12794
L12407 12538
" />
<path d="M12092 12794
L12407 12794
" />
<path d="M12092 12538
L12092 12794
" />
<path d="M12407 12125
L12407 12381
" />
<path d="M12092 12125
L12407 12125
" />
<path d="M12092 12381
L12092 12125
" />
<path d="M6342 20375
L6342 20631
" />
<path d="M6657 20375
L6342 20375
" />
<path d="M6657 20631
L6657 20375
" />
<path d="M6342 21044
L6342 20788
" />
<path d="M6657 21044
L6342 21044
" />
<path d="M6657 20788
L6657 21044
" />
<path d="M14584 11052
L14328 11052
" />
<path d="M14584 11367
L14584 11052
" />
<path d="M14328 11367
L14584 11367
" />
<path d="M13915 11052
L14171 11052
" />
<path d="M13915 11367
L13915 11052
" />
<path d="M14171 11367
L13915 11367
" />
<path d="M7165 19117
L7421 19117
" />
<path d="M7165 18802
L7165 19117
" />
<path d="M7421 18802
L7165 18802
" />
<path d="M7834 19117
L7578 19117
" />
<path d="M7834 18802
L7834 19117
" />
<path d="M7578 18802
L7834 18802
" />
<path d="M10334 18802
L10078 18802
" />
<path d="M10334 19117
L10334 18802
" />
<path d="M10078 19117
L10334 19117
" />
<path d="M9665 18802
L9921 18802
" />
<path d="M9665 19117
L9665 18802
" />
<path d="M9921 19117
L9665 19117
" />
</g>
<g style="fill:#840084; fill-opacity:0.0; 
stroke:#840084; stroke-width:39.3701; stroke-opacity:1; 
stroke-linecap:round; stroke-linejoin:round;">
<path d="M1999 13965
L2314 13512
" />
<path d="M1999 13965
L1704 13512
" />
<path d="M1704 13512
L2314 13512
" />
<path d="M2314 13965
L1684 13965
" />
<path d="M1999 13512
L1999 13119
" />
<path d="M1999 13965
L1999 14320
" />
</g>
<g style="fill:#840084; fill-opacity:0.0; 
stroke:#840084; stroke-width:110; stroke-opacity:1; 
stroke-linecap:round; stroke-linejoin:round;">
<path d="M2846 15107
L1153 15107
" />
<path d="M5407 13342
L5407 13032
" />
<path d="M5252 13187
L5562 13187
" />
</g>
<g style="fill:#840084; fill-opacity:0.0; 
stroke:#840084; stroke-width:47.2441; stroke-opacity:1; 
stroke-linecap:round; stroke-linejoin:round;">
<path d="M5657 11536
L6076 11117
" />
<path d="M5657 13383
L6076 13802
" />
<path d="M5657 13383
L5657 12877
" />
<path d="M5657 11536
L5657 12042
" />
<path d="M6076 11117
L8342 11117
" />
<path d="M6076 13802
L8342 13802
" />
<path d="M8342 13802
L8342 12877
" />
<path d="M8342 11117
L8342 12042
" />
</g>
<g style="fill:#840084; fill-opacity:0.0; 
stroke:#840084; stroke-width:90; stroke-opacity:1; 
stroke-linecap:round; stroke-linejoin:round;">
<path d="M4905 12233
L3094 12233
" />
<path d="M3094 12233
L3094 15186
" />
<path d="M3094 15186
L4905 15186
" />
<path d="M4905 15186
L4905 12233
" />
</g>
<g style="fill:#840084; fill-opacity:0.0; 
stroke:#840084; stroke-width:59.0551; stroke-opacity:1; 
stroke-linecap:round; stroke-linejoin:round;">
<path d="M10500 12460
L11500 12460
" />
</g>
<g style="fill:#840084; fill-opacity:0.0; 
stroke:#840084; stroke-width:90; stroke-opacity:1; 
stroke-linecap:round; stroke-linejoin:round;">
<path d="M14750 11660
L14750 11860
" />
<path d="M14850 11760
L14650 11760
" />
</g>
<g style="fill:#840084; fill-opacity:0.0; 
stroke:#840084; stroke-width:150; stroke-opacity:1; 
stroke-linecap:round; stroke-linejoin:round;">
<path d="M14250 12060
L14250 12860
" />
</g>
<g style="fill:#840084; fill-opacity:0.0; 
stroke:#840084; stroke-width:100; stroke-opacity:1; 
stroke-linecap:round; stroke-linejoin:round;">
<g transform="rotate(-90 11350 20710)">
<text x="11350" y="20910"
transform="scale(-1 1) translate(-22700.000000 0)"
textLength="723.228" font-size="533.333" lengthAdjust="spacingAndGlyphs"
text-anchor="middle" opacity="0">U1</text>
</g>
<path d="M11130 20405
L11454 20405
L11492 20424
L11511 20443
L11530 20481
L11530 20557
L11511 20595
L11492 20614
L11454 20633
L11130 20633
" />
<path d="M11530 21033
L11530 20805
" />
<path d="M11530 20919
L11130 20919
L11188 20881
L11226 20843
L11245 20805
" />
</g>
<g style="fill:#840084; fill-opacity:0.0; 
stroke:#840084; stroke-width:50; stroke-opacity:1; 
stroke-linecap:round; stroke-linejoin:round;">
<text x="9750" y="13060"
transform="scale(-1 1) translate(-19500.000000 0)"
textLength="260.476" font-size="266.667" lengthAdjust="spacingAndGlyphs"
text-anchor="middle" opacity="0">C2</text>
<path d="M9783 13031
L9792 13040
L9821 13050
L9840 13050
L9869 13040
L9888 13021
L9897 13002
L9907 12964
L9907 12936
L9897 12898
L9888 12879
L9869 12860
L9840 12850
L9821 12850
L9792 12860
L9783 12869
" />
<path d="M9707 12869
L9697 12860
L9678 12850
L9630 12850
L9611 12860
L9602 12869
L9592 12888
L9592 12907
L9602 12936
L9716 13050
L9592 13050
" />
<text x="9750" y="12060"
transform="scale(-1 1) translate(-19500.000000 0)"
textLength="477.857" font-size="266.667" lengthAdjust="spacingAndGlyphs"
text-anchor="middle" opacity="0">1uF</text>
<path d="M9869 12050
L9983 12050
" />
<path d="M9926 12050
L9926 11850
L9945 11879
L9964 11898
L9983 11907
" />
<path d="M9697 11917
L9697 12050
" />
<path d="M9783 11917
L9783 12021
L9773 12040
L9754 12050
L9726 12050
L9707 12040
L9697 12031
" />
<path d="M9535 11945
L9602 11945
" />
<path d="M9602 12050
L9602 11850
L9507 11850
" />
<text x="12250" y="13060"
transform="scale(-1 1) translate(-24500.000000 0)"
textLength="325.476" font-size="266.667" lengthAdjust="spacingAndGlyphs"
text-anchor="middle" opacity="0">C3</text>
<path d="M12283 13031
L12292 13040
L12321 13050
L12340 13050
L12369 13040
L12388 13021
L12397 13002
L12407 12964
L12407 12936
L12397 12898
L12388 12879
L12369 12860
L12340 12850
L12321 12850
L12292 12860
L12283 12869
" />
<path d="M12216 12850
L12092 12850
L12159 12926
L12130 12926
L12111 12936
L12102 12945
L12092 12964
L12092 13012
L12102 13031
L12111 13040
L12130 13050
L12188 13050
L12207 13040
L12216 13031
" />
<text x="12250" y="12060"
transform="scale(-1 1) translate(-24500.000000 0)"
textLength="477.857" font-size="266.667" lengthAdjust="spacingAndGlyphs"
text-anchor="middle" opacity="0">1uF</text>
<path d="M12369 12050
L12483 12050
" />
<path d="M12426 12050
L12426 11850
L12445 11879
L12464 11898
L12483 11907
" />
<path d="M12197 11917
L12197 12050
" />
<path d="M12283 11917
L12283 12021
L12273 12040
L12254 12050
L12226 12050
L12207 12040
L12197 12031
" />
<path d="M12035 11945
L12102 11945
" />
<path d="M12102 12050
L12102 11850
L12007 11850
" />
<text x="6500" y="20310"
transform="scale(-1 1) translate(-13000.000000 0)"
textLength="325.476" font-size="266.667" lengthAdjust="spacingAndGlyphs"
text-anchor="middle" opacity="0">C4</text>
<path d="M6533 20281
L6542 20290
L6571 20300
L6590 20300
L6619 20290
L6638 20271
L6647 20252
L6657 20214
L6657 20186
L6647 20148
L6638 20129
L6619 20110
L6590 20100
L6571 20100
L6542 20110
L6533 20119
" />
<path d="M6361 20167
L6361 20300
" />
<path d="M6409 20090
L6457 20233
L6333 20233
" />
<text x="6500" y="21310"
transform="scale(-1 1) translate(-13000.000000 0)"
textLength="763.571" font-size="266.667" lengthAdjust="spacingAndGlyphs"
text-anchor="middle" opacity="0">0.1uF</text>
<path d="M6828 21100
L6809 21100
L6790 21110
L6780 21119
L6771 21138
L6761 21176
L6761 21224
L6771 21262
L6780 21281
L6790 21290
L6809 21300
L6828 21300
L6847 21290
L6857 21281
L6866 21262
L6876 21224
L6876 21176
L6866 21138
L6857 21119
L6847 21110
L6828 21100
" />
<path d="M6676 21281
L6666 21290
L6676 21300
L6685 21290
L6676 21281
L6676 21300
" />
<path d="M6476 21300
L6590 21300
" />
<path d="M6533 21300
L6533 21100
L6552 21129
L6571 21148
L6590 21157
" />
<path d="M6304 21167
L6304 21300
" />
<path d="M6390 21167
L6390 21271
L6380 21290
L6361 21300
L6333 21300
L6314 21290
L6304 21281
" />
<path d="M6142 21195
L6209 21195
" />
<path d="M6209 21300
L6209 21100
L6114 21100
" />
<g transform="rotate(-90 14750 11210)">
<text x="14750" y="11310"
transform="scale(-1 1) translate(-29500.000000 0)"
textLength="325.476" font-size="266.667" lengthAdjust="spacingAndGlyphs"
text-anchor="middle" opacity="0">C5</text>
</g>
<path d="M14821 11176
L14830 11167
L14840 11138
L14840 11119
L14830 11090
L14811 11071
L14792 11062
L14754 11052
L14726 11052
L14688 11062
L14669 11071
L14650 11090
L14640 11119
L14640 11138
L14650 11167
L14659 11176
" />
<path d="M14640 11357
L14640 11262
L14735 11252
L14726 11262
L14716 11281
L14716 11329
L14726 11348
L14735 11357
L14754 11367
L14802 11367
L14821 11357
L14830 11348
L14840 11329
L14840 11281
L14830 11262
L14821 11252
" />
<g transform="rotate(-90 13750 11210)">
<text x="13750" y="11310"
transform="scale(-1 1) translate(-27500.000000 0)"
textLength="763.571" font-size="266.667" lengthAdjust="spacingAndGlyphs"
text-anchor="middle" opacity="0">0.1uF</text>
</g>
<path d="M13640 10881
L13640 10900
L13650 10919
L13659 10929
L13678 10938
L13716 10948
L13764 10948
L13802 10938
L13821 10929
L13830 10919
L13840 10900
L13840 10881
L13830 10862
L13821 10852
L13802 10843
L13764 10833
L13716 10833
L13678 10843
L13659 10852
L13650 10862
L13640 10881
" />
<path d="M13821 11033
L13830 11043
L13840 11033
L13830 11024
L13821 11033
L13840 11033
" />
<path d="M13840 11233
L13840 11119
" />
<path d="M13840 11176
L13640 11176
L13669 11157
L13688 11138
L13697 11119
" />
<path d="M13707 11405
L13840 11405
" />
<path d="M13707 11319
L13811 11319
L13830 11329
L13840 11348
L13840 11376
L13830 11395
L13821 11405
" />
<path d="M13735 11567
L13735 11500
" />
<path d="M13840 11500
L13640 11500
L13640 11595
" />
<g transform="rotate(90 7000 18960)">
<text x="7000" y="19060"
transform="scale(-1 1) translate(-14000.000000 0)"
textLength="325.476" font-size="266.667" lengthAdjust="spacingAndGlyphs"
text-anchor="middle" opacity="0">R1</text>
</g>
<path d="M6909 18993
L7004 19060
" />
<path d="M6909 19107
L7109 19107
L7109 19031
L7100 19012
L7090 19002
L7071 18993
L7042 18993
L7023 19002
L7014 19012
L7004 19031
L7004 19107
" />
<path d="M6909 18802
L6909 18917
" />
<path d="M6909 18860
L7109 18860
L7080 18879
L7061 18898
L7052 18917
" />
<g transform="rotate(90 8000 18960)">
<text x="8000" y="19060"
transform="scale(-1 1) translate(-16000.000000 0)"
textLength="506.429" font-size="266.667" lengthAdjust="spacingAndGlyphs"
text-anchor="middle" opacity="0">100</text>
</g>
<path d="M7909 19093
L7909 19207
" />
<path d="M7909 19150
L8109 19150
L8080 19169
L8061 19188
L8052 19207
" />
<path d="M8109 18969
L8109 18950
L8100 18931
L8090 18921
L8071 18912
L8033 18902
L7985 18902
L7947 18912
L7928 18921
L7919 18931
L7909 18950
L7909 18969
L7919 18988
L7928 18998
L7947 19007
L7985 19017
L8033 19017
L8071 19007
L8090 18998
L8100 18988
L8109 18969
" />
<path d="M8109 18779
L8109 18760
L8100 18740
L8090 18731
L8071 18721
L8033 18712
L7985 18712
L7947 18721
L7928 18731
L7919 18740
L7909 18760
L7909 18779
L7919 18798
L7928 18807
L7947 18817
L7985 18826
L8033 18826
L8071 18817
L8090 18807
L8100 18798
L8109 18779
" />
<g transform="rotate(-90 10500 18960)">
<text x="10500" y="19060"
transform="scale(-1 1) translate(-21000.000000 0)"
textLength="325.476" font-size="266.667" lengthAdjust="spacingAndGlyphs"
text-anchor="middle" opacity="0">R2</text>
</g>
<path d="M10590 18926
L10495 18860
" />
<path d="M10590 18812
L10390 18812
L10390 18888
L10400 18907
L10409 18917
L10428 18926
L10457 18926
L10476 18917
L10485 18907
L10495 18888
L10495 18812
" />
<path d="M10409 19002
L10400 19012
L10390 19031
L10390 19079
L10400 19098
L10409 19107
L10428 19117
L10447 19117
L10476 19107
L10590 18993
L10590 19117
" />
<g transform="rotate(-90 9500 18960)">
<text x="9500" y="19060"
transform="scale(-1 1) translate(-19000.000000 0)"
textLength="506.429" font-size="266.667" lengthAdjust="spacingAndGlyphs"
text-anchor="middle" opacity="0">100</text>
</g>
<path d="M9590 18826
L9590 18712
" />
<path d="M9590 18769
L9390 18769
L9419 18750
L9438 18731
L9447 18712
" />
<path d="M9390 18950
L9390 18969
L9400 18988
L9409 18998
L9428 19007
L9466 19017
L9514 19017
L9552 19007
L9571 18998
L9580 18988
L9590 18969
L9590 18950
L9580 18931
L9571 18921
L9552 18912
L9514 18902
L9466 18902
L9428 18912
L9409 18921
L9400 18931
L9390 18950
" />
<path d="M9390 19140
L9390 19160
L9400 19179
L9409 19188
L9428 19198
L9466 19207
L9514 19207
L9552 19198
L9571 19188
L9580 19179
L9590 19160
L9590 19140
L9580 19121
L9571 19112
L9552 19102
L9514 19093
L9466 19093
L9428 19102
L9409 19112
L9400 19121
L9390 19140
" />
</g>
<g style="fill:#840084; fill-opacity:0.0; 
stroke:#840084; stroke-width:100; stroke-opacity:1; 
stroke-linecap:round; stroke-linejoin:round;">
<text x="2000" y="15660"
transform="scale(-1 1) translate(-4000.000000 0)"
textLength="715.952" font-size="533.333" lengthAdjust="spacingAndGlyphs"
text-anchor="middle" opacity="0">D2</text>
<path d="M2295 15640
L2295 15240
L2200 15240
L2142 15260
L2104 15298
L2085 15336
L2066 15412
L2066 15469
L2085 15545
L2104 15583
L2142 15621
L2200 15640
L2295 15640
" />
<path d="M1914 15279
L1895 15260
L1857 15240
L1761 15240
L1723 15260
L1704 15279
L1685 15317
L1685 15355
L1704 15412
L1933 15640
L1685 15640
" />
<text x="7000" y="14372.6"
transform="scale(-1 1) translate(-14000.000000 0)"
textLength="650.952" font-size="533.333" lengthAdjust="spacingAndGlyphs"
text-anchor="middle" opacity="0">C1</text>
<path d="M7066 14315
L7085 14334
L7142 14353
L7180 14353
L7238 14334
L7276 14296
L7295 14258
L7314 14182
L7314 14125
L7295 14048
L7276 14010
L7238 13972
L7180 13953
L7142 13953
L7085 13972
L7066 13991
" />
<path d="M6685 14353
L6914 14353
" />
<path d="M6800 14353
L6800 13953
L6838 14010
L6876 14048
L6914 14067
" />
<text x="4000" y="15721.1"
transform="scale(-1 1) translate(-8000.000000 0)"
textLength="650.952" font-size="533.333" lengthAdjust="spacingAndGlyphs"
text-anchor="middle" opacity="0">D1</text>
<path d="M4295 15702
L4295 15302
L4200 15302
L4142 15321
L4104 15359
L4085 15397
L4066 15473
L4066 15530
L4085 15606
L4104 15644
L4142 15682
L4200 15702
L4295 15702
" />
<path d="M3685 15702
L3914 15702
" />
<path d="M3800 15702
L3800 15302
L3838 15359
L3876 15397
L3914 15416
" />
<text x="11000" y="11660"
transform="scale(-1 1) translate(-22000.000000 0)"
textLength="1412.86" font-size="533.333" lengthAdjust="spacingAndGlyphs"
text-anchor="middle" opacity="0">REG1</text>
<path d="M11447 11640
L11580 11450
" />
<path d="M11676 11640
L11676 11240
L11523 11240
L11485 11260
L11466 11279
L11447 11317
L11447 11374
L11466 11412
L11485 11431
L11523 11450
L11676 11450
" />
<path d="M11276 11431
L11142 11431
" />
<path d="M11085 11640
L11276 11640
L11276 11240
L11085 11240
" />
<path d="M10704 11260
L10742 11240
L10800 11240
L10857 11260
L10895 11298
L10914 11336
L10933 11412
L10933 11469
L10914 11545
L10895 11583
L10857 11621
L10800 11640
L10761 11640
L10704 11621
L10685 11602
L10685 11469
L10761 11469
" />
<path d="M10304 11640
L10533 11640
" />
<path d="M10419 11640
L10419 11240
L10457 11298
L10495 11336
L10533 11355
" />
</g>
<g style="fill:#840084; fill-opacity:0.0; 
stroke:#840084; stroke-width:50; stroke-opacity:1; 
stroke-linecap:round; stroke-linejoin:round;">
<text x="13750" y="11860"
transform="scale(-1 1) translate(-27500.000000 0)"
textLength="270" font-size="266.667" lengthAdjust="spacingAndGlyphs"
text-anchor="middle" opacity="0">U2</text>
<path d="M13902 11650
L13902 11812
L13892 11831
L13883 11840
L13864 11850
L13826 11850
L13807 11840
L13797 11831
L13788 11812
L13788 11650
" />
<path d="M13702 11669
L13692 11660
L13673 11650
L13626 11650
L13607 11660
L13597 11669
L13588 11688
L13588 11707
L13597 11736
L13711 11850
L13588 11850
" />
<text x="14250" y="13260"
transform="scale(-1 1) translate(-28500.000000 0)"
textLength="744.524" font-size="266.667" lengthAdjust="spacingAndGlyphs"
text-anchor="middle" opacity="0">VAL**</text>
<path d="M14635 13050
L14569 13250
L14502 13050
" />
<path d="M14445 13193
L14350 13193
" />
<path d="M14464 13250
L14397 13050
L14330 13250
" />
<path d="M14169 13250
L14264 13250
L14264 13050
" />
<path d="M14073 13050
L14073 13098
" />
<path d="M14121 13079
L14073 13098
L14026 13079
" />
<path d="M14102 13136
L14073 13098
L14045 13136
" />
<path d="M13921 13050
L13921 13098
" />
<path d="M13969 13079
L13921 13098
L13873 13079
" />
<path d="M13950 13136
L13921 13098
L13892 13136
" />
<g >
</g>
</g>
<g style="fill:#000000; fill-opacity:0.0; 
stroke:#000000; stroke-width:50; stroke-opacity:1; 
stroke-linecap:round; stroke-linejoin:round;">
</g>
<g style="fill:#C2C200; fill-opacity:0.0; 
stroke:#C2C200; stroke-width:50; stroke-opacity:1; 
stroke-linecap:round; stroke-linejoin:round;">
</g>
<g style="fill:#C2C200; fill-opacity:0.0; 
stroke:#C2C200; stroke-width:90; stroke-opacity:1; 
stroke-linecap:round; stroke-linejoin:round;">
<path d="M750 21210 A1250 1250 0.0 0 0 2000 22460" />
<path d="M16000 22460 A1250 1250 0.0 0 0 17250 21210" />
<path d="M17250 7210.04 A1250 1250 0.0 0 0 16000 5960.04" />
<path d="M2000 5960.04 A1250 1250 0.0 0 0 750 7210.04" />
<path d="M750 7210
L750 21210
" />
<path d="M2000 22460
L16000 22460
" />
<path d="M17250 7210
L17250 21210
" />
<path d="M2000 5960
L16000 5960
" />
<g >
</g>
<g >
</g>
<g >
</g>
<g >
</g>
<g >
</g>
<g >
</g>
<g >
</g>
<g >
</g>
<g >
</g>
<g >
</g>
<g >
</g>
<g >
</g>
<g >
</g>
<g >
</g>
<g >
</g>
<g >
</g>
<g >
</g>
<g >
</g>
<g >
</g>
<g >
</g>
<g >
</g>
<g >
</g>
<g >
</g>
<g >
</g>
<g >
</g>
<g >
</g>
<g >
</g>
</g> 
</svg>
