%TF.GenerationSoftware,KiCad,Pcbnew,5.1.10*%
%TF.CreationDate,2021-11-04T10:30:20-04:00*%
%TF.ProjectId,stepper_driver,73746570-7065-4725-9f64-72697665722e,1.0*%
%TF.SameCoordinates,Original*%
%TF.FileFunction,Soldermask,Bot*%
%TF.FilePolarity,Negative*%
%FSLAX46Y46*%
G04 Gerber Fmt 4.6, Leading zero omitted, Abs format (unit mm)*
G04 Created by KiCad (PCBNEW 5.1.10) date 2021-11-04 10:30:20*
%MOMM*%
%LPD*%
G01*
G04 APERTURE LIST*
%ADD10O,2.000000X2.540000*%
%ADD11R,2.000000X2.540000*%
%ADD12O,2.540000X1.905000*%
%ADD13R,2.540000X1.905000*%
%ADD14R,0.600000X1.550000*%
%ADD15R,0.700000X0.600000*%
%ADD16R,0.600000X0.700000*%
%ADD17C,3.810000*%
%ADD18O,1.524000X2.032000*%
%ADD19R,1.524000X2.032000*%
%ADD20R,2.743000X2.159000*%
%ADD21R,2.742999X2.159000*%
%ADD22C,1.000000*%
%ADD23C,3.556000*%
%ADD24O,2.032000X3.048000*%
%ADD25R,2.032000X3.048000*%
%ADD26O,2.500000X3.500000*%
%ADD27R,2.500000X3.500000*%
%ADD28R,1.600000X1.440000*%
%ADD29R,3.800000X4.960000*%
%ADD30R,0.701040X1.000760*%
%ADD31R,1.330960X0.558800*%
G04 APERTURE END LIST*
D10*
%TO.C,T1*%
X143510000Y-71501000D03*
X140970000Y-71501000D03*
X138430000Y-71501000D03*
D11*
X135890000Y-71501000D03*
%TD*%
D12*
%TO.C,T3*%
X156845000Y-81915000D03*
D13*
X156845000Y-79375000D03*
%TD*%
D12*
%TO.C,T4*%
X156845000Y-89535000D03*
D13*
X156845000Y-86995000D03*
%TD*%
D14*
%TO.C,U1*%
X135255000Y-108110000D03*
X136525000Y-108110000D03*
X137795000Y-108110000D03*
X139065000Y-108110000D03*
X140335000Y-108110000D03*
X141605000Y-108110000D03*
X142875000Y-108110000D03*
X144145000Y-108110000D03*
X144145000Y-102710000D03*
X142875000Y-102710000D03*
X141605000Y-102710000D03*
X140335000Y-102710000D03*
X139065000Y-102710000D03*
X137795000Y-102710000D03*
X136525000Y-102710000D03*
X135255000Y-102710000D03*
%TD*%
D15*
%TO.C,C2*%
X141605000Y-84955000D03*
X141605000Y-83955000D03*
%TD*%
%TO.C,C3*%
X147955000Y-84955000D03*
X147955000Y-83955000D03*
%TD*%
%TO.C,C4*%
X133350000Y-104910000D03*
X133350000Y-105910000D03*
%TD*%
D16*
%TO.C,C5*%
X153535000Y-81280000D03*
X152535000Y-81280000D03*
%TD*%
%TO.C,R1*%
X135390000Y-100965000D03*
X136390000Y-100965000D03*
%TD*%
%TO.C,R2*%
X142740000Y-100965000D03*
X141740000Y-100965000D03*
%TD*%
D17*
%TO.C,P1*%
X153733500Y-97409000D03*
X125666500Y-97409000D03*
D18*
X144780000Y-95631000D03*
X144780000Y-98679000D03*
X142240000Y-95631000D03*
X142240000Y-98679000D03*
X139700000Y-95631000D03*
X139700000Y-98679000D03*
X137160000Y-95631000D03*
X137160000Y-98679000D03*
X134620000Y-95631000D03*
D19*
X134620000Y-98679000D03*
%TD*%
D20*
%TO.C,D2*%
X121920000Y-85420000D03*
D21*
X121920000Y-89840000D03*
%TD*%
%TO.C,C1*%
G36*
G01*
X135670000Y-85005400D02*
X135670000Y-83904600D01*
G75*
G02*
X135919600Y-83655000I249600J0D01*
G01*
X138920400Y-83655000D01*
G75*
G02*
X139170000Y-83904600I0J-249600D01*
G01*
X139170000Y-85005400D01*
G75*
G02*
X138920400Y-85255000I-249600J0D01*
G01*
X135919600Y-85255000D01*
G75*
G02*
X135670000Y-85005400I0J249600D01*
G01*
G37*
G36*
G01*
X130070000Y-85005400D02*
X130070000Y-83904600D01*
G75*
G02*
X130319600Y-83655000I249600J0D01*
G01*
X133320400Y-83655000D01*
G75*
G02*
X133570000Y-83904600I0J-249600D01*
G01*
X133570000Y-85005400D01*
G75*
G02*
X133320400Y-85255000I-249600J0D01*
G01*
X130319600Y-85255000D01*
G75*
G02*
X130070000Y-85005400I0J249600D01*
G01*
G37*
%TD*%
D22*
%TO.C,FID2*%
X157480000Y-71120000D03*
%TD*%
%TO.C,FID4*%
X121920000Y-106680000D03*
%TD*%
D23*
%TO.C,MH1*%
X124181000Y-73380600D03*
%TD*%
%TO.C,MH2*%
X155219000Y-73380600D03*
%TD*%
%TO.C,MH3*%
X155219000Y-104419000D03*
%TD*%
%TO.C,MH4*%
X124181000Y-104419000D03*
%TD*%
D24*
%TO.C,SS1*%
X148590000Y-90805000D03*
X146050000Y-90805000D03*
X143510000Y-90805000D03*
X140970000Y-90805000D03*
X138430000Y-90805000D03*
X135890000Y-90805000D03*
X133350000Y-90805000D03*
X130810000Y-90805000D03*
X130810000Y-78105000D03*
X133350000Y-78105000D03*
X135890000Y-78105000D03*
X138430000Y-78105000D03*
X140970000Y-78105000D03*
X143510000Y-78105000D03*
X146050000Y-78105000D03*
D25*
X148590000Y-78105000D03*
%TD*%
D26*
%TO.C,T2*%
X122583000Y-81280000D03*
D27*
X126083000Y-81280000D03*
%TD*%
D28*
%TO.C,D1*%
X125935000Y-84850000D03*
X128065000Y-84850000D03*
D29*
X127000000Y-88650000D03*
%TD*%
D30*
%TO.C,REG1*%
X144780000Y-85653880D03*
X145729960Y-83256120D03*
X143830040Y-83256120D03*
%TD*%
D31*
%TO.C,U2*%
X151836120Y-83505040D03*
X151836120Y-84455000D03*
X151836120Y-85404960D03*
X154233880Y-85404960D03*
X154233880Y-84455000D03*
X154233880Y-83505040D03*
%TD*%
M02*
