<?xml version="1.0" standalone="no"?>
 <!DOCTYPE svg PUBLIC "-//W3C//DTD SVG 1.1//EN" 
 "http://www.w3.org/Graphics/SVG/1.1/DTD/svg11.dtd"> 
<svg
  xmlns:svg="http://www.w3.org/2000/svg"
  xmlns="http://www.w3.org/2000/svg"
  xmlns:xlink="http://www.w3.org/1999/xlink"
  version="1.1"
  width="6.360160cm" height="5.895340cm" viewBox="0 0 25040 23210">
<title>SVG Picture created as stepper_driver-Dwgs_User.svg date 2021/11/03 15:01:16 </title>
  <desc>Picture generated by PCBNEW </desc>
<g style="fill:#000000; fill-opacity:1;stroke:#000000; stroke-opacity:1;
stroke-linecap:round; stroke-linejoin:round;"
 transform="translate(0 0) scale(1 1)">
</g>
<g style="fill:#000000; fill-opacity:0.0; 
stroke:#000000; stroke-width:-0.000393701; stroke-opacity:1; 
stroke-linecap:round; stroke-linejoin:round;">
</g>
<g style="fill:#C2C2C2; fill-opacity:0.0; 
stroke:#C2C2C2; stroke-width:-0.000393701; stroke-opacity:1; 
stroke-linecap:round; stroke-linejoin:round;">
</g>
<g style="fill:#C2C2C2; fill-opacity:0.0; 
stroke:#C2C2C2; stroke-width:59.0551; stroke-opacity:1; 
stroke-linecap:round; stroke-linejoin:round;">
<g transform="rotate(-90 24111.8 14210)">
<text x="24111.8" y="14406.9"
textLength="1929.78" font-size="524.934" lengthAdjust="spacingAndGlyphs"
text-anchor="middle" opacity="0">42mm</text>
</g>
<path d="M24027 14847
L24289 14847
" />
<path d="M23877 14941
L24158 15034
L24158 14791
" />
<path d="M23933 14659
L23914 14641
L23896 14603
L23896 14510
L23914 14472
L23933 14453
L23971 14435
L24008 14435
L24064 14453
L24289 14678
L24289 14435
" />
<path d="M24289 14266
L24027 14266
" />
<path d="M24064 14266
L24046 14247
L24027 14210
L24027 14153
L24046 14116
L24083 14097
L24289 14097
" />
<path d="M24083 14097
L24046 14078
L24027 14041
L24027 13985
L24046 13947
L24083 13928
L24289 13928
" />
<path d="M24289 13741
L24027 13741
" />
<path d="M24064 13741
L24046 13722
L24027 13685
L24027 13628
L24046 13591
L24083 13572
L24289 13572
" />
<path d="M24083 13572
L24046 13553
L24027 13516
L24027 13460
L24046 13422
L24083 13403
L24289 13403
" />
<path d="M23600 22410
L23600 6010
" />
<path d="M15400 22410
L23830 22410
" />
<path d="M15400 6010
L23830 6010
" />
<path d="M23600 6010
L23830 6453
" />
<path d="M23600 6010
L23369 6453
" />
<path d="M23600 22410
L23830 21966
" />
<path d="M23600 22410
L23369 21966
" />
<text x="9000" y="495.079"
textLength="2176.51" font-size="524.934" lengthAdjust="spacingAndGlyphs"
text-anchor="middle" opacity="0">42 mm</text>
<path d="M8212 213
L8212 476
" />
<path d="M8118 63
L8025 345
L8268 345
" />
<path d="M8400 120
L8418 101
L8456 82
L8550 82
L8587 101
L8606 120
L8625 157
L8625 195
L8606 251
L8381 476
L8625 476
" />
<path d="M9093 476
L9093 213
" />
<path d="M9093 251
L9112 232
L9149 213
L9206 213
L9243 232
L9262 270
L9262 476
" />
<path d="M9262 270
L9281 232
L9318 213
L9374 213
L9412 232
L9431 270
L9431 476
" />
<path d="M9618 476
L9618 213
" />
<path d="M9618 251
L9637 232
L9674 213
L9731 213
L9768 232
L9787 270
L9787 476
" />
<path d="M9787 270
L9806 232
L9843 213
L9899 213
L9937 232
L9956 270
L9956 476
" />
<path d="M800 810
L17200 810
" />
<path d="M800 7610
L800 579
" />
<path d="M17200 7610
L17200 579
" />
<path d="M17200 810
L16756 1040
" />
<path d="M17200 810
L16756 579
" />
<path d="M800 810
L1243 1040
" />
<path d="M800 810
L1243 579
" />
<g transform="rotate(90 20511.8 14210)">
<text x="20511.8" y="14406.9"
textLength="2176.51" font-size="524.934" lengthAdjust="spacingAndGlyphs"
text-anchor="middle" opacity="0">32 mm</text>
</g>
<path d="M20727 13216
L20727 13460
L20577 13328
L20577 13385
L20558 13422
L20539 13441
L20502 13460
L20408 13460
L20371 13441
L20352 13422
L20333 13385
L20333 13272
L20352 13235
L20371 13216
" />
<path d="M20689 13610
L20708 13628
L20727 13666
L20727 13760
L20708 13797
L20689 13816
L20652 13835
L20614 13835
L20558 13816
L20333 13591
L20333 13835
" />
<path d="M20333 14303
L20596 14303
" />
<path d="M20558 14303
L20577 14322
L20596 14360
L20596 14416
L20577 14453
L20539 14472
L20333 14472
" />
<path d="M20539 14472
L20577 14491
L20596 14528
L20596 14584
L20577 14622
L20539 14641
L20333 14641
" />
<path d="M20333 14828
L20596 14828
" />
<path d="M20558 14828
L20577 14847
L20596 14884
L20596 14941
L20577 14978
L20539 14997
L20333 14997
" />
<path d="M20539 14997
L20577 15016
L20596 15053
L20596 15109
L20577 15147
L20539 15166
L20333 15166
" />
<path d="M20000 8100
L20000 20320
" />
<path d="M15110 8100
L20230 8100
" />
<path d="M15110 20320
L20230 20320
" />
<path d="M20000 20320
L19769 19876
" />
<path d="M20000 20320
L20230 19876
" />
<path d="M20000 8100
L19769 8543
" />
<path d="M20000 8100
L20230 8543
" />
<text x="9000" y="2895.08"
textLength="2176.51" font-size="524.934" lengthAdjust="spacingAndGlyphs"
text-anchor="middle" opacity="0">31 mm</text>
<path d="M8006 2482
L8250 2482
L8118 2632
L8175 2632
L8212 2651
L8231 2670
L8250 2707
L8250 2801
L8231 2838
L8212 2857
L8175 2876
L8062 2876
L8025 2857
L8006 2838
" />
<path d="M8625 2876
L8400 2876
" />
<path d="M8512 2876
L8512 2482
L8475 2538
L8437 2576
L8400 2595
" />
<path d="M9093 2876
L9093 2613
" />
<path d="M9093 2651
L9112 2632
L9149 2613
L9206 2613
L9243 2632
L9262 2670
L9262 2876
" />
<path d="M9262 2670
L9281 2632
L9318 2613
L9374 2613
L9412 2632
L9431 2670
L9431 2876
" />
<path d="M9618 2876
L9618 2613
" />
<path d="M9618 2651
L9637 2632
L9674 2613
L9731 2613
L9768 2632
L9787 2670
L9787 2876
" />
<path d="M9787 2670
L9806 2632
L9843 2613
L9899 2613
L9937 2632
L9956 2670
L9956 2876
" />
<path d="M2890 3210
L15110 3210
" />
<path d="M2890 8100
L2890 2979
" />
<path d="M15110 8100
L15110 2979
" />
<path d="M15110 3210
L14666 3440
" />
<path d="M15110 3210
L14666 2979
" />
<path d="M2890 3210
L3333 3440
" />
<path d="M2890 3210
L3333 2979
" />
<g >
</g>
<g >
</g>
<g >
</g>
<g >
</g>
<g >
</g>
<g >
</g>
<g >
</g>
<g >
</g>
<g >
</g>
<g >
</g>
<g >
</g>
<g >
</g>
<g >
</g>
<g >
</g>
<g >
</g>
<g >
</g>
<g >
</g>
<g >
</g>
<g >
</g>
<g >
</g>
<g >
</g>
<g >
</g>
<g >
</g>
<g >
</g>
<g >
</g>
<g >
</g>
<g >
</g>
</g>
<g style="fill:#000000; fill-opacity:0.0; 
stroke:#000000; stroke-width:59.0551; stroke-opacity:1; 
stroke-linecap:round; stroke-linejoin:round;">
</g>
<g style="fill:#C2C200; fill-opacity:0.0; 
stroke:#C2C200; stroke-width:59.0551; stroke-opacity:1; 
stroke-linecap:round; stroke-linejoin:round;">
</g>
<g style="fill:#C2C200; fill-opacity:0.0; 
stroke:#C2C200; stroke-width:90; stroke-opacity:1; 
stroke-linecap:round; stroke-linejoin:round;">
<path d="M750 21210 A1250 1250 0.0 0 0 2000 22460" />
<path d="M16000 22460 A1250 1250 0.0 0 0 17250 21210" />
<path d="M17250 7210.04 A1250 1250 0.0 0 0 16000 5960.04" />
<path d="M2000 5960.04 A1250 1250 0.0 0 0 750 7210.04" />
<path d="M750 7210
L750 21210
" />
<path d="M2000 22460
L16000 22460
" />
<path d="M17250 7210
L17250 21210
" />
<path d="M2000 5960
L16000 5960
" />
<g >
</g>
<g >
</g>
<g >
</g>
<g >
</g>
<g >
</g>
<g >
</g>
<g >
</g>
<g >
</g>
<g >
</g>
<g >
</g>
<g >
</g>
<g >
</g>
<g >
</g>
<g >
</g>
<g >
</g>
<g >
</g>
<g >
</g>
<g >
</g>
<g >
</g>
<g >
</g>
<g >
</g>
<g >
</g>
<g >
</g>
<g >
</g>
<g >
</g>
<g >
</g>
<g >
</g>
</g> 
</svg>
