%TF.GenerationSoftware,KiCad,Pcbnew,5.1.10*%
%TF.CreationDate,2021-11-03T12:23:44-04:00*%
%TF.ProjectId,stepper_driver,73746570-7065-4725-9f64-72697665722e,1.0*%
%TF.SameCoordinates,Original*%
%TF.FileFunction,Legend,Bot*%
%TF.FilePolarity,Positive*%
%FSLAX46Y46*%
G04 Gerber Fmt 4.6, Leading zero omitted, Abs format (unit mm)*
G04 Created by KiCad (PCBNEW 5.1.10) date 2021-11-03 12:23:44*
%MOMM*%
%LPD*%
G01*
G04 APERTURE LIST*
%ADD10C,0.381000*%
%ADD11C,0.177800*%
%ADD12C,0.279400*%
%ADD13C,0.100000*%
%ADD14C,0.120000*%
%ADD15C,0.228600*%
%ADD16C,0.150000*%
%ADD17C,0.254000*%
%ADD18C,0.127000*%
%ADD19O,2.000000X2.540000*%
%ADD20R,2.000000X2.540000*%
%ADD21O,2.540000X1.905000*%
%ADD22R,2.540000X1.905000*%
%ADD23R,0.600000X1.550000*%
%ADD24R,0.700000X0.600000*%
%ADD25R,0.600000X0.700000*%
%ADD26C,3.810000*%
%ADD27O,1.524000X2.032000*%
%ADD28R,1.524000X2.032000*%
%ADD29R,2.743000X2.159000*%
%ADD30R,2.742999X2.159000*%
%ADD31C,1.000000*%
%ADD32C,3.556000*%
%ADD33O,2.032000X3.048000*%
%ADD34R,2.032000X3.048000*%
%ADD35O,2.500000X3.500000*%
%ADD36R,2.500000X3.500000*%
%ADD37R,1.600000X1.440000*%
%ADD38R,3.800000X4.960000*%
%ADD39R,0.701040X1.000760*%
%ADD40R,1.330960X0.558800*%
G04 APERTURE END LIST*
D10*
%TO.C,U1*%
X134700000Y-107360000D02*
X134700000Y-103460000D01*
X144700000Y-107360000D02*
X134700000Y-107360000D01*
X144700000Y-103460000D02*
X144700000Y-107360000D01*
X134700000Y-103460000D02*
X144700000Y-103460000D01*
X136490000Y-104570000D02*
G75*
G03*
X136490000Y-104570000I-635000J0D01*
G01*
D11*
%TO.C,C2*%
X141205000Y-84255000D02*
X141205000Y-83605000D01*
X141205000Y-83605000D02*
X142005000Y-83605000D01*
X142005000Y-83605000D02*
X142005000Y-84255000D01*
X141205000Y-84655000D02*
X141205000Y-85305000D01*
X141205000Y-85305000D02*
X142005000Y-85305000D01*
X142005000Y-85305000D02*
X142005000Y-84655000D01*
%TO.C,C3*%
X147555000Y-84255000D02*
X147555000Y-83605000D01*
X147555000Y-83605000D02*
X148355000Y-83605000D01*
X148355000Y-83605000D02*
X148355000Y-84255000D01*
X147555000Y-84655000D02*
X147555000Y-85305000D01*
X147555000Y-85305000D02*
X148355000Y-85305000D01*
X148355000Y-85305000D02*
X148355000Y-84655000D01*
%TO.C,C4*%
X133750000Y-105610000D02*
X133750000Y-106260000D01*
X133750000Y-106260000D02*
X132950000Y-106260000D01*
X132950000Y-106260000D02*
X132950000Y-105610000D01*
X133750000Y-105210000D02*
X133750000Y-104560000D01*
X133750000Y-104560000D02*
X132950000Y-104560000D01*
X132950000Y-104560000D02*
X132950000Y-105210000D01*
%TO.C,C5*%
X152835000Y-81680000D02*
X152185000Y-81680000D01*
X152185000Y-81680000D02*
X152185000Y-80880000D01*
X152185000Y-80880000D02*
X152835000Y-80880000D01*
X153235000Y-81680000D02*
X153885000Y-81680000D01*
X153885000Y-81680000D02*
X153885000Y-80880000D01*
X153885000Y-80880000D02*
X153235000Y-80880000D01*
%TO.C,R1*%
X136090000Y-100565000D02*
X136740000Y-100565000D01*
X136740000Y-100565000D02*
X136740000Y-101365000D01*
X136740000Y-101365000D02*
X136090000Y-101365000D01*
X135690000Y-100565000D02*
X135040000Y-100565000D01*
X135040000Y-100565000D02*
X135040000Y-101365000D01*
X135040000Y-101365000D02*
X135690000Y-101365000D01*
%TO.C,R2*%
X142040000Y-101365000D02*
X141390000Y-101365000D01*
X141390000Y-101365000D02*
X141390000Y-100565000D01*
X141390000Y-100565000D02*
X142040000Y-100565000D01*
X142440000Y-101365000D02*
X143090000Y-101365000D01*
X143090000Y-101365000D02*
X143090000Y-100565000D01*
X143090000Y-100565000D02*
X142440000Y-100565000D01*
D12*
%TO.C,D2*%
X124070000Y-91180000D02*
X119770000Y-91180000D01*
D13*
X121918980Y-88279440D02*
X121918980Y-89181140D01*
X121918980Y-87128820D02*
X121918980Y-86130600D01*
X122719080Y-88279440D02*
X121118880Y-88279440D01*
X121169680Y-87128820D02*
X122719080Y-87128820D01*
X121918980Y-88279440D02*
X121169680Y-87128820D01*
X121918980Y-88279440D02*
X122719080Y-87128820D01*
D14*
%TO.C,C1*%
X138030000Y-81045000D02*
X138030000Y-83395000D01*
X138030000Y-87865000D02*
X138030000Y-85515000D01*
X132274437Y-87865000D02*
X138030000Y-87865000D01*
X132274437Y-81045000D02*
X138030000Y-81045000D01*
X131210000Y-82109437D02*
X131210000Y-83395000D01*
X131210000Y-86800563D02*
X131210000Y-85515000D01*
X131210000Y-86800563D02*
X132274437Y-87865000D01*
X131210000Y-82109437D02*
X132274437Y-81045000D01*
D12*
X130182500Y-86302500D02*
X130970000Y-86302500D01*
X130576250Y-86696250D02*
X130576250Y-85908750D01*
D15*
%TO.C,D1*%
X129300000Y-91380000D02*
X129300000Y-83880000D01*
X124700000Y-91380000D02*
X129300000Y-91380000D01*
X124700000Y-83880000D02*
X124700000Y-91380000D01*
X129300000Y-83880000D02*
X124700000Y-83880000D01*
D16*
%TO.C,REG1*%
X143510000Y-84455000D02*
X146050000Y-84455000D01*
D10*
%TO.C,U2*%
X153035000Y-83439000D02*
X153035000Y-85471000D01*
D15*
X154559000Y-82677000D02*
X154051000Y-82677000D01*
X154305000Y-82423000D02*
X154305000Y-82931000D01*
%TO.C,U1*%
D17*
X145112619Y-104635904D02*
X145935095Y-104635904D01*
X146031857Y-104684285D01*
X146080238Y-104732666D01*
X146128619Y-104829428D01*
X146128619Y-105022952D01*
X146080238Y-105119714D01*
X146031857Y-105168095D01*
X145935095Y-105216476D01*
X145112619Y-105216476D01*
X146128619Y-106232476D02*
X146128619Y-105651904D01*
X146128619Y-105942190D02*
X145112619Y-105942190D01*
X145257761Y-105845428D01*
X145354523Y-105748666D01*
X145402904Y-105651904D01*
%TO.C,C2*%
D18*
X141689666Y-85906428D02*
X141713857Y-85930619D01*
X141786428Y-85954809D01*
X141834809Y-85954809D01*
X141907380Y-85930619D01*
X141955761Y-85882238D01*
X141979952Y-85833857D01*
X142004142Y-85737095D01*
X142004142Y-85664523D01*
X141979952Y-85567761D01*
X141955761Y-85519380D01*
X141907380Y-85471000D01*
X141834809Y-85446809D01*
X141786428Y-85446809D01*
X141713857Y-85471000D01*
X141689666Y-85495190D01*
X141496142Y-85495190D02*
X141471952Y-85471000D01*
X141423571Y-85446809D01*
X141302619Y-85446809D01*
X141254238Y-85471000D01*
X141230047Y-85495190D01*
X141205857Y-85543571D01*
X141205857Y-85591952D01*
X141230047Y-85664523D01*
X141520333Y-85954809D01*
X141205857Y-85954809D01*
X141907380Y-83414809D02*
X142197666Y-83414809D01*
X142052523Y-83414809D02*
X142052523Y-82906809D01*
X142100904Y-82979380D01*
X142149285Y-83027761D01*
X142197666Y-83051952D01*
X141471952Y-83076142D02*
X141471952Y-83414809D01*
X141689666Y-83076142D02*
X141689666Y-83342238D01*
X141665476Y-83390619D01*
X141617095Y-83414809D01*
X141544523Y-83414809D01*
X141496142Y-83390619D01*
X141471952Y-83366428D01*
X141060714Y-83148714D02*
X141230047Y-83148714D01*
X141230047Y-83414809D02*
X141230047Y-82906809D01*
X140988142Y-82906809D01*
%TO.C,C3*%
X148039666Y-85906428D02*
X148063857Y-85930619D01*
X148136428Y-85954809D01*
X148184809Y-85954809D01*
X148257380Y-85930619D01*
X148305761Y-85882238D01*
X148329952Y-85833857D01*
X148354142Y-85737095D01*
X148354142Y-85664523D01*
X148329952Y-85567761D01*
X148305761Y-85519380D01*
X148257380Y-85471000D01*
X148184809Y-85446809D01*
X148136428Y-85446809D01*
X148063857Y-85471000D01*
X148039666Y-85495190D01*
X147870333Y-85446809D02*
X147555857Y-85446809D01*
X147725190Y-85640333D01*
X147652619Y-85640333D01*
X147604238Y-85664523D01*
X147580047Y-85688714D01*
X147555857Y-85737095D01*
X147555857Y-85858047D01*
X147580047Y-85906428D01*
X147604238Y-85930619D01*
X147652619Y-85954809D01*
X147797761Y-85954809D01*
X147846142Y-85930619D01*
X147870333Y-85906428D01*
X148257380Y-83414809D02*
X148547666Y-83414809D01*
X148402523Y-83414809D02*
X148402523Y-82906809D01*
X148450904Y-82979380D01*
X148499285Y-83027761D01*
X148547666Y-83051952D01*
X147821952Y-83076142D02*
X147821952Y-83414809D01*
X148039666Y-83076142D02*
X148039666Y-83342238D01*
X148015476Y-83390619D01*
X147967095Y-83414809D01*
X147894523Y-83414809D01*
X147846142Y-83390619D01*
X147821952Y-83366428D01*
X147410714Y-83148714D02*
X147580047Y-83148714D01*
X147580047Y-83414809D02*
X147580047Y-82906809D01*
X147338142Y-82906809D01*
%TO.C,C4*%
X133434666Y-104321428D02*
X133458857Y-104345619D01*
X133531428Y-104369809D01*
X133579809Y-104369809D01*
X133652380Y-104345619D01*
X133700761Y-104297238D01*
X133724952Y-104248857D01*
X133749142Y-104152095D01*
X133749142Y-104079523D01*
X133724952Y-103982761D01*
X133700761Y-103934380D01*
X133652380Y-103886000D01*
X133579809Y-103861809D01*
X133531428Y-103861809D01*
X133458857Y-103886000D01*
X133434666Y-103910190D01*
X132999238Y-104031142D02*
X132999238Y-104369809D01*
X133120190Y-103837619D02*
X133241142Y-104200476D01*
X132926666Y-104200476D01*
X134184571Y-106401809D02*
X134136190Y-106401809D01*
X134087809Y-106426000D01*
X134063619Y-106450190D01*
X134039428Y-106498571D01*
X134015238Y-106595333D01*
X134015238Y-106716285D01*
X134039428Y-106813047D01*
X134063619Y-106861428D01*
X134087809Y-106885619D01*
X134136190Y-106909809D01*
X134184571Y-106909809D01*
X134232952Y-106885619D01*
X134257142Y-106861428D01*
X134281333Y-106813047D01*
X134305523Y-106716285D01*
X134305523Y-106595333D01*
X134281333Y-106498571D01*
X134257142Y-106450190D01*
X134232952Y-106426000D01*
X134184571Y-106401809D01*
X133797523Y-106861428D02*
X133773333Y-106885619D01*
X133797523Y-106909809D01*
X133821714Y-106885619D01*
X133797523Y-106861428D01*
X133797523Y-106909809D01*
X133289523Y-106909809D02*
X133579809Y-106909809D01*
X133434666Y-106909809D02*
X133434666Y-106401809D01*
X133483047Y-106474380D01*
X133531428Y-106522761D01*
X133579809Y-106546952D01*
X132854095Y-106571142D02*
X132854095Y-106909809D01*
X133071809Y-106571142D02*
X133071809Y-106837238D01*
X133047619Y-106885619D01*
X132999238Y-106909809D01*
X132926666Y-106909809D01*
X132878285Y-106885619D01*
X132854095Y-106861428D01*
X132442857Y-106643714D02*
X132612190Y-106643714D01*
X132612190Y-106909809D02*
X132612190Y-106401809D01*
X132370285Y-106401809D01*
%TO.C,C5*%
X154486428Y-81195333D02*
X154510619Y-81171142D01*
X154534809Y-81098571D01*
X154534809Y-81050190D01*
X154510619Y-80977619D01*
X154462238Y-80929238D01*
X154413857Y-80905047D01*
X154317095Y-80880857D01*
X154244523Y-80880857D01*
X154147761Y-80905047D01*
X154099380Y-80929238D01*
X154051000Y-80977619D01*
X154026809Y-81050190D01*
X154026809Y-81098571D01*
X154051000Y-81171142D01*
X154075190Y-81195333D01*
X154026809Y-81654952D02*
X154026809Y-81413047D01*
X154268714Y-81388857D01*
X154244523Y-81413047D01*
X154220333Y-81461428D01*
X154220333Y-81582380D01*
X154244523Y-81630761D01*
X154268714Y-81654952D01*
X154317095Y-81679142D01*
X154438047Y-81679142D01*
X154486428Y-81654952D01*
X154510619Y-81630761D01*
X154534809Y-81582380D01*
X154534809Y-81461428D01*
X154510619Y-81413047D01*
X154486428Y-81388857D01*
X151486809Y-80445428D02*
X151486809Y-80493809D01*
X151511000Y-80542190D01*
X151535190Y-80566380D01*
X151583571Y-80590571D01*
X151680333Y-80614761D01*
X151801285Y-80614761D01*
X151898047Y-80590571D01*
X151946428Y-80566380D01*
X151970619Y-80542190D01*
X151994809Y-80493809D01*
X151994809Y-80445428D01*
X151970619Y-80397047D01*
X151946428Y-80372857D01*
X151898047Y-80348666D01*
X151801285Y-80324476D01*
X151680333Y-80324476D01*
X151583571Y-80348666D01*
X151535190Y-80372857D01*
X151511000Y-80397047D01*
X151486809Y-80445428D01*
X151946428Y-80832476D02*
X151970619Y-80856666D01*
X151994809Y-80832476D01*
X151970619Y-80808285D01*
X151946428Y-80832476D01*
X151994809Y-80832476D01*
X151994809Y-81340476D02*
X151994809Y-81050190D01*
X151994809Y-81195333D02*
X151486809Y-81195333D01*
X151559380Y-81146952D01*
X151607761Y-81098571D01*
X151631952Y-81050190D01*
X151656142Y-81775904D02*
X151994809Y-81775904D01*
X151656142Y-81558190D02*
X151922238Y-81558190D01*
X151970619Y-81582380D01*
X151994809Y-81630761D01*
X151994809Y-81703333D01*
X151970619Y-81751714D01*
X151946428Y-81775904D01*
X151728714Y-82187142D02*
X151728714Y-82017809D01*
X151994809Y-82017809D02*
X151486809Y-82017809D01*
X151486809Y-82259714D01*
%TO.C,R1*%
X134390190Y-101049666D02*
X134632095Y-101219000D01*
X134390190Y-101339952D02*
X134898190Y-101339952D01*
X134898190Y-101146428D01*
X134874000Y-101098047D01*
X134849809Y-101073857D01*
X134801428Y-101049666D01*
X134728857Y-101049666D01*
X134680476Y-101073857D01*
X134656285Y-101098047D01*
X134632095Y-101146428D01*
X134632095Y-101339952D01*
X134390190Y-100565857D02*
X134390190Y-100856142D01*
X134390190Y-100711000D02*
X134898190Y-100711000D01*
X134825619Y-100759380D01*
X134777238Y-100807761D01*
X134753047Y-100856142D01*
X136930190Y-101303666D02*
X136930190Y-101593952D01*
X136930190Y-101448809D02*
X137438190Y-101448809D01*
X137365619Y-101497190D01*
X137317238Y-101545571D01*
X137293047Y-101593952D01*
X137438190Y-100989190D02*
X137438190Y-100940809D01*
X137414000Y-100892428D01*
X137389809Y-100868238D01*
X137341428Y-100844047D01*
X137244666Y-100819857D01*
X137123714Y-100819857D01*
X137026952Y-100844047D01*
X136978571Y-100868238D01*
X136954380Y-100892428D01*
X136930190Y-100940809D01*
X136930190Y-100989190D01*
X136954380Y-101037571D01*
X136978571Y-101061761D01*
X137026952Y-101085952D01*
X137123714Y-101110142D01*
X137244666Y-101110142D01*
X137341428Y-101085952D01*
X137389809Y-101061761D01*
X137414000Y-101037571D01*
X137438190Y-100989190D01*
X137438190Y-100505380D02*
X137438190Y-100457000D01*
X137414000Y-100408619D01*
X137389809Y-100384428D01*
X137341428Y-100360238D01*
X137244666Y-100336047D01*
X137123714Y-100336047D01*
X137026952Y-100360238D01*
X136978571Y-100384428D01*
X136954380Y-100408619D01*
X136930190Y-100457000D01*
X136930190Y-100505380D01*
X136954380Y-100553761D01*
X136978571Y-100577952D01*
X137026952Y-100602142D01*
X137123714Y-100626333D01*
X137244666Y-100626333D01*
X137341428Y-100602142D01*
X137389809Y-100577952D01*
X137414000Y-100553761D01*
X137438190Y-100505380D01*
%TO.C,R2*%
X143739809Y-100880333D02*
X143497904Y-100711000D01*
X143739809Y-100590047D02*
X143231809Y-100590047D01*
X143231809Y-100783571D01*
X143256000Y-100831952D01*
X143280190Y-100856142D01*
X143328571Y-100880333D01*
X143401142Y-100880333D01*
X143449523Y-100856142D01*
X143473714Y-100831952D01*
X143497904Y-100783571D01*
X143497904Y-100590047D01*
X143280190Y-101073857D02*
X143256000Y-101098047D01*
X143231809Y-101146428D01*
X143231809Y-101267380D01*
X143256000Y-101315761D01*
X143280190Y-101339952D01*
X143328571Y-101364142D01*
X143376952Y-101364142D01*
X143449523Y-101339952D01*
X143739809Y-101049666D01*
X143739809Y-101364142D01*
X141199809Y-100626333D02*
X141199809Y-100336047D01*
X141199809Y-100481190D02*
X140691809Y-100481190D01*
X140764380Y-100432809D01*
X140812761Y-100384428D01*
X140836952Y-100336047D01*
X140691809Y-100940809D02*
X140691809Y-100989190D01*
X140716000Y-101037571D01*
X140740190Y-101061761D01*
X140788571Y-101085952D01*
X140885333Y-101110142D01*
X141006285Y-101110142D01*
X141103047Y-101085952D01*
X141151428Y-101061761D01*
X141175619Y-101037571D01*
X141199809Y-100989190D01*
X141199809Y-100940809D01*
X141175619Y-100892428D01*
X141151428Y-100868238D01*
X141103047Y-100844047D01*
X141006285Y-100819857D01*
X140885333Y-100819857D01*
X140788571Y-100844047D01*
X140740190Y-100868238D01*
X140716000Y-100892428D01*
X140691809Y-100940809D01*
X140691809Y-101424619D02*
X140691809Y-101473000D01*
X140716000Y-101521380D01*
X140740190Y-101545571D01*
X140788571Y-101569761D01*
X140885333Y-101593952D01*
X141006285Y-101593952D01*
X141103047Y-101569761D01*
X141151428Y-101545571D01*
X141175619Y-101521380D01*
X141199809Y-101473000D01*
X141199809Y-101424619D01*
X141175619Y-101376238D01*
X141151428Y-101352047D01*
X141103047Y-101327857D01*
X141006285Y-101303666D01*
X140885333Y-101303666D01*
X140788571Y-101327857D01*
X140740190Y-101352047D01*
X140716000Y-101376238D01*
X140691809Y-101424619D01*
%TO.C,D2*%
D17*
X122669904Y-92534619D02*
X122669904Y-91518619D01*
X122428000Y-91518619D01*
X122282857Y-91567000D01*
X122186095Y-91663761D01*
X122137714Y-91760523D01*
X122089333Y-91954047D01*
X122089333Y-92099190D01*
X122137714Y-92292714D01*
X122186095Y-92389476D01*
X122282857Y-92486238D01*
X122428000Y-92534619D01*
X122669904Y-92534619D01*
X121702285Y-91615380D02*
X121653904Y-91567000D01*
X121557142Y-91518619D01*
X121315238Y-91518619D01*
X121218476Y-91567000D01*
X121170095Y-91615380D01*
X121121714Y-91712142D01*
X121121714Y-91808904D01*
X121170095Y-91954047D01*
X121750666Y-92534619D01*
X121121714Y-92534619D01*
%TO.C,C1*%
X134789333Y-89167857D02*
X134837714Y-89216238D01*
X134982857Y-89264619D01*
X135079619Y-89264619D01*
X135224761Y-89216238D01*
X135321523Y-89119476D01*
X135369904Y-89022714D01*
X135418285Y-88829190D01*
X135418285Y-88684047D01*
X135369904Y-88490523D01*
X135321523Y-88393761D01*
X135224761Y-88297000D01*
X135079619Y-88248619D01*
X134982857Y-88248619D01*
X134837714Y-88297000D01*
X134789333Y-88345380D01*
X133821714Y-89264619D02*
X134402285Y-89264619D01*
X134112000Y-89264619D02*
X134112000Y-88248619D01*
X134208761Y-88393761D01*
X134305523Y-88490523D01*
X134402285Y-88538904D01*
%TO.C,D1*%
X127749904Y-92689619D02*
X127749904Y-91673619D01*
X127508000Y-91673619D01*
X127362857Y-91722000D01*
X127266095Y-91818761D01*
X127217714Y-91915523D01*
X127169333Y-92109047D01*
X127169333Y-92254190D01*
X127217714Y-92447714D01*
X127266095Y-92544476D01*
X127362857Y-92641238D01*
X127508000Y-92689619D01*
X127749904Y-92689619D01*
X126201714Y-92689619D02*
X126782285Y-92689619D01*
X126492000Y-92689619D02*
X126492000Y-91673619D01*
X126588761Y-91818761D01*
X126685523Y-91915523D01*
X126782285Y-91963904D01*
%TO.C,REG1*%
X145916952Y-82374619D02*
X146255619Y-81890809D01*
X146497523Y-82374619D02*
X146497523Y-81358619D01*
X146110476Y-81358619D01*
X146013714Y-81407000D01*
X145965333Y-81455380D01*
X145916952Y-81552142D01*
X145916952Y-81697285D01*
X145965333Y-81794047D01*
X146013714Y-81842428D01*
X146110476Y-81890809D01*
X146497523Y-81890809D01*
X145481523Y-81842428D02*
X145142857Y-81842428D01*
X144997714Y-82374619D02*
X145481523Y-82374619D01*
X145481523Y-81358619D01*
X144997714Y-81358619D01*
X144030095Y-81407000D02*
X144126857Y-81358619D01*
X144272000Y-81358619D01*
X144417142Y-81407000D01*
X144513904Y-81503761D01*
X144562285Y-81600523D01*
X144610666Y-81794047D01*
X144610666Y-81939190D01*
X144562285Y-82132714D01*
X144513904Y-82229476D01*
X144417142Y-82326238D01*
X144272000Y-82374619D01*
X144175238Y-82374619D01*
X144030095Y-82326238D01*
X143981714Y-82277857D01*
X143981714Y-81939190D01*
X144175238Y-81939190D01*
X143014095Y-82374619D02*
X143594666Y-82374619D01*
X143304380Y-82374619D02*
X143304380Y-81358619D01*
X143401142Y-81503761D01*
X143497904Y-81600523D01*
X143594666Y-81648904D01*
%TO.C,U2*%
D18*
X152152047Y-82398809D02*
X152152047Y-82810047D01*
X152127857Y-82858428D01*
X152103666Y-82882619D01*
X152055285Y-82906809D01*
X151958523Y-82906809D01*
X151910142Y-82882619D01*
X151885952Y-82858428D01*
X151861761Y-82810047D01*
X151861761Y-82398809D01*
X151644047Y-82447190D02*
X151619857Y-82423000D01*
X151571476Y-82398809D01*
X151450523Y-82398809D01*
X151402142Y-82423000D01*
X151377952Y-82447190D01*
X151353761Y-82495571D01*
X151353761Y-82543952D01*
X151377952Y-82616523D01*
X151668238Y-82906809D01*
X151353761Y-82906809D01*
X154014714Y-85954809D02*
X153845380Y-86462809D01*
X153676047Y-85954809D01*
X153530904Y-86317666D02*
X153289000Y-86317666D01*
X153579285Y-86462809D02*
X153409952Y-85954809D01*
X153240619Y-86462809D01*
X152829380Y-86462809D02*
X153071285Y-86462809D01*
X153071285Y-85954809D01*
X152587476Y-85954809D02*
X152587476Y-86075761D01*
X152708428Y-86027380D02*
X152587476Y-86075761D01*
X152466523Y-86027380D01*
X152660047Y-86172523D02*
X152587476Y-86075761D01*
X152514904Y-86172523D01*
X152200428Y-85954809D02*
X152200428Y-86075761D01*
X152321380Y-86027380D02*
X152200428Y-86075761D01*
X152079476Y-86027380D01*
X152273000Y-86172523D02*
X152200428Y-86075761D01*
X152127857Y-86172523D01*
%TD*%
%LPC*%
D19*
%TO.C,T1*%
X143510000Y-71501000D03*
X140970000Y-71501000D03*
X138430000Y-71501000D03*
D20*
X135890000Y-71501000D03*
%TD*%
D21*
%TO.C,T3*%
X156845000Y-81915000D03*
D22*
X156845000Y-79375000D03*
%TD*%
D21*
%TO.C,T4*%
X156845000Y-89535000D03*
D22*
X156845000Y-86995000D03*
%TD*%
D23*
%TO.C,U1*%
X135255000Y-108110000D03*
X136525000Y-108110000D03*
X137795000Y-108110000D03*
X139065000Y-108110000D03*
X140335000Y-108110000D03*
X141605000Y-108110000D03*
X142875000Y-108110000D03*
X144145000Y-108110000D03*
X144145000Y-102710000D03*
X142875000Y-102710000D03*
X141605000Y-102710000D03*
X140335000Y-102710000D03*
X139065000Y-102710000D03*
X137795000Y-102710000D03*
X136525000Y-102710000D03*
X135255000Y-102710000D03*
%TD*%
D24*
%TO.C,C2*%
X141605000Y-84955000D03*
X141605000Y-83955000D03*
%TD*%
%TO.C,C3*%
X147955000Y-84955000D03*
X147955000Y-83955000D03*
%TD*%
%TO.C,C4*%
X133350000Y-104910000D03*
X133350000Y-105910000D03*
%TD*%
D25*
%TO.C,C5*%
X153535000Y-81280000D03*
X152535000Y-81280000D03*
%TD*%
%TO.C,R1*%
X135390000Y-100965000D03*
X136390000Y-100965000D03*
%TD*%
%TO.C,R2*%
X142740000Y-100965000D03*
X141740000Y-100965000D03*
%TD*%
D26*
%TO.C,P1*%
X153733500Y-97409000D03*
X125666500Y-97409000D03*
D27*
X144780000Y-95631000D03*
X144780000Y-98679000D03*
X142240000Y-95631000D03*
X142240000Y-98679000D03*
X139700000Y-95631000D03*
X139700000Y-98679000D03*
X137160000Y-95631000D03*
X137160000Y-98679000D03*
X134620000Y-95631000D03*
D28*
X134620000Y-98679000D03*
%TD*%
D29*
%TO.C,D2*%
X121920000Y-85420000D03*
D30*
X121920000Y-89840000D03*
%TD*%
%TO.C,C1*%
G36*
G01*
X135670000Y-85005400D02*
X135670000Y-83904600D01*
G75*
G02*
X135919600Y-83655000I249600J0D01*
G01*
X138920400Y-83655000D01*
G75*
G02*
X139170000Y-83904600I0J-249600D01*
G01*
X139170000Y-85005400D01*
G75*
G02*
X138920400Y-85255000I-249600J0D01*
G01*
X135919600Y-85255000D01*
G75*
G02*
X135670000Y-85005400I0J249600D01*
G01*
G37*
G36*
G01*
X130070000Y-85005400D02*
X130070000Y-83904600D01*
G75*
G02*
X130319600Y-83655000I249600J0D01*
G01*
X133320400Y-83655000D01*
G75*
G02*
X133570000Y-83904600I0J-249600D01*
G01*
X133570000Y-85005400D01*
G75*
G02*
X133320400Y-85255000I-249600J0D01*
G01*
X130319600Y-85255000D01*
G75*
G02*
X130070000Y-85005400I0J249600D01*
G01*
G37*
%TD*%
D31*
%TO.C,FID2*%
X157480000Y-71120000D03*
%TD*%
%TO.C,FID4*%
X121920000Y-106680000D03*
%TD*%
D32*
%TO.C,MH1*%
X124181000Y-73380600D03*
%TD*%
%TO.C,MH2*%
X155219000Y-73380600D03*
%TD*%
%TO.C,MH3*%
X155219000Y-104419000D03*
%TD*%
%TO.C,MH4*%
X124181000Y-104419000D03*
%TD*%
D33*
%TO.C,SS1*%
X148590000Y-90805000D03*
X146050000Y-90805000D03*
X143510000Y-90805000D03*
X140970000Y-90805000D03*
X138430000Y-90805000D03*
X135890000Y-90805000D03*
X133350000Y-90805000D03*
X130810000Y-90805000D03*
X130810000Y-78105000D03*
X133350000Y-78105000D03*
X135890000Y-78105000D03*
X138430000Y-78105000D03*
X140970000Y-78105000D03*
X143510000Y-78105000D03*
X146050000Y-78105000D03*
D34*
X148590000Y-78105000D03*
%TD*%
D35*
%TO.C,T2*%
X122583000Y-81280000D03*
D36*
X126083000Y-81280000D03*
%TD*%
D37*
%TO.C,D1*%
X125935000Y-84850000D03*
X128065000Y-84850000D03*
D38*
X127000000Y-88650000D03*
%TD*%
D39*
%TO.C,REG1*%
X144780000Y-85653880D03*
X145729960Y-83256120D03*
X143830040Y-83256120D03*
%TD*%
D40*
%TO.C,U2*%
X151836120Y-83505040D03*
X151836120Y-84455000D03*
X151836120Y-85404960D03*
X154233880Y-85404960D03*
X154233880Y-84455000D03*
X154233880Y-83505040D03*
%TD*%
M02*
