%TF.GenerationSoftware,KiCad,Pcbnew,5.1.10*%
%TF.CreationDate,2021-11-03T12:23:44-04:00*%
%TF.ProjectId,stepper_driver,73746570-7065-4725-9f64-72697665722e,1.0*%
%TF.SameCoordinates,Original*%
%TF.FileFunction,OtherDrawing,Comment*%
%FSLAX46Y46*%
G04 Gerber Fmt 4.6, Leading zero omitted, Abs format (unit mm)*
G04 Created by KiCad (PCBNEW 5.1.10) date 2021-11-03 12:23:44*
%MOMM*%
%LPD*%
G01*
G04 APERTURE LIST*
%ADD10C,0.150000*%
G04 APERTURE END LIST*
D10*
X178536380Y-91828571D02*
X178536380Y-92400000D01*
X178536380Y-92114285D02*
X177536380Y-92114285D01*
X177679238Y-92209523D01*
X177774476Y-92304761D01*
X177822095Y-92400000D01*
X178441142Y-91400000D02*
X178488761Y-91352380D01*
X178536380Y-91400000D01*
X178488761Y-91447619D01*
X178441142Y-91400000D01*
X178536380Y-91400000D01*
X177536380Y-90495238D02*
X177536380Y-90685714D01*
X177584000Y-90780952D01*
X177631619Y-90828571D01*
X177774476Y-90923809D01*
X177964952Y-90971428D01*
X178345904Y-90971428D01*
X178441142Y-90923809D01*
X178488761Y-90876190D01*
X178536380Y-90780952D01*
X178536380Y-90590476D01*
X178488761Y-90495238D01*
X178441142Y-90447619D01*
X178345904Y-90400000D01*
X178107809Y-90400000D01*
X178012571Y-90447619D01*
X177964952Y-90495238D01*
X177917333Y-90590476D01*
X177917333Y-90780952D01*
X177964952Y-90876190D01*
X178012571Y-90923809D01*
X178107809Y-90971428D01*
X177869714Y-89542857D02*
X178536380Y-89542857D01*
X177488761Y-89780952D02*
X178203047Y-90019047D01*
X178203047Y-89400000D01*
X177536380Y-88828571D02*
X177536380Y-88733333D01*
X177584000Y-88638095D01*
X177631619Y-88590476D01*
X177726857Y-88542857D01*
X177917333Y-88495238D01*
X178155428Y-88495238D01*
X178345904Y-88542857D01*
X178441142Y-88590476D01*
X178488761Y-88638095D01*
X178536380Y-88733333D01*
X178536380Y-88828571D01*
X178488761Y-88923809D01*
X178441142Y-88971428D01*
X178345904Y-89019047D01*
X178155428Y-89066666D01*
X177917333Y-89066666D01*
X177726857Y-89019047D01*
X177631619Y-88971428D01*
X177584000Y-88923809D01*
X177536380Y-88828571D01*
X177536380Y-87876190D02*
X177536380Y-87780952D01*
X177584000Y-87685714D01*
X177631619Y-87638095D01*
X177726857Y-87590476D01*
X177917333Y-87542857D01*
X178155428Y-87542857D01*
X178345904Y-87590476D01*
X178441142Y-87638095D01*
X178488761Y-87685714D01*
X178536380Y-87780952D01*
X178536380Y-87876190D01*
X178488761Y-87971428D01*
X178441142Y-88019047D01*
X178345904Y-88066666D01*
X178155428Y-88114285D01*
X177917333Y-88114285D01*
X177726857Y-88066666D01*
X177631619Y-88019047D01*
X177584000Y-87971428D01*
X177536380Y-87876190D01*
X178536380Y-86352380D02*
X177869714Y-86352380D01*
X177536380Y-86352380D02*
X177584000Y-86400000D01*
X177631619Y-86352380D01*
X177584000Y-86304761D01*
X177536380Y-86352380D01*
X177631619Y-86352380D01*
X177869714Y-85876190D02*
X178536380Y-85876190D01*
X177964952Y-85876190D02*
X177917333Y-85828571D01*
X177869714Y-85733333D01*
X177869714Y-85590476D01*
X177917333Y-85495238D01*
X178012571Y-85447619D01*
X178536380Y-85447619D01*
X176784000Y-109728000D02*
X176784000Y-68072000D01*
X155956000Y-109728000D02*
X177370421Y-109728000D01*
X155956000Y-68072000D02*
X177370421Y-68072000D01*
X176784000Y-68072000D02*
X177370421Y-69198504D01*
X176784000Y-68072000D02*
X176197579Y-69198504D01*
X176784000Y-109728000D02*
X177370421Y-108601496D01*
X176784000Y-109728000D02*
X176197579Y-108601496D01*
X136771428Y-54016380D02*
X136200000Y-54016380D01*
X136485714Y-54016380D02*
X136485714Y-53016380D01*
X136390476Y-53159238D01*
X136295238Y-53254476D01*
X136200000Y-53302095D01*
X137200000Y-53921142D02*
X137247619Y-53968761D01*
X137200000Y-54016380D01*
X137152380Y-53968761D01*
X137200000Y-53921142D01*
X137200000Y-54016380D01*
X138104761Y-53016380D02*
X137914285Y-53016380D01*
X137819047Y-53064000D01*
X137771428Y-53111619D01*
X137676190Y-53254476D01*
X137628571Y-53444952D01*
X137628571Y-53825904D01*
X137676190Y-53921142D01*
X137723809Y-53968761D01*
X137819047Y-54016380D01*
X138009523Y-54016380D01*
X138104761Y-53968761D01*
X138152380Y-53921142D01*
X138200000Y-53825904D01*
X138200000Y-53587809D01*
X138152380Y-53492571D01*
X138104761Y-53444952D01*
X138009523Y-53397333D01*
X137819047Y-53397333D01*
X137723809Y-53444952D01*
X137676190Y-53492571D01*
X137628571Y-53587809D01*
X139057142Y-53349714D02*
X139057142Y-54016380D01*
X138819047Y-52968761D02*
X138580952Y-53683047D01*
X139200000Y-53683047D01*
X139771428Y-53016380D02*
X139866666Y-53016380D01*
X139961904Y-53064000D01*
X140009523Y-53111619D01*
X140057142Y-53206857D01*
X140104761Y-53397333D01*
X140104761Y-53635428D01*
X140057142Y-53825904D01*
X140009523Y-53921142D01*
X139961904Y-53968761D01*
X139866666Y-54016380D01*
X139771428Y-54016380D01*
X139676190Y-53968761D01*
X139628571Y-53921142D01*
X139580952Y-53825904D01*
X139533333Y-53635428D01*
X139533333Y-53397333D01*
X139580952Y-53206857D01*
X139628571Y-53111619D01*
X139676190Y-53064000D01*
X139771428Y-53016380D01*
X140723809Y-53016380D02*
X140819047Y-53016380D01*
X140914285Y-53064000D01*
X140961904Y-53111619D01*
X141009523Y-53206857D01*
X141057142Y-53397333D01*
X141057142Y-53635428D01*
X141009523Y-53825904D01*
X140961904Y-53921142D01*
X140914285Y-53968761D01*
X140819047Y-54016380D01*
X140723809Y-54016380D01*
X140628571Y-53968761D01*
X140580952Y-53921142D01*
X140533333Y-53825904D01*
X140485714Y-53635428D01*
X140485714Y-53397333D01*
X140533333Y-53206857D01*
X140580952Y-53111619D01*
X140628571Y-53064000D01*
X140723809Y-53016380D01*
X142247619Y-54016380D02*
X142247619Y-53349714D01*
X142247619Y-53016380D02*
X142200000Y-53064000D01*
X142247619Y-53111619D01*
X142295238Y-53064000D01*
X142247619Y-53016380D01*
X142247619Y-53111619D01*
X142723809Y-53349714D02*
X142723809Y-54016380D01*
X142723809Y-53444952D02*
X142771428Y-53397333D01*
X142866666Y-53349714D01*
X143009523Y-53349714D01*
X143104761Y-53397333D01*
X143152380Y-53492571D01*
X143152380Y-54016380D01*
X118872000Y-54864000D02*
X160528000Y-54864000D01*
X118872000Y-72136000D02*
X118872000Y-54277579D01*
X160528000Y-72136000D02*
X160528000Y-54277579D01*
X160528000Y-54864000D02*
X159401496Y-55450421D01*
X160528000Y-54864000D02*
X159401496Y-54277579D01*
X118872000Y-54864000D02*
X119998504Y-55450421D01*
X118872000Y-54864000D02*
X119998504Y-54277579D01*
X168487619Y-85971428D02*
X168487619Y-85400000D01*
X168487619Y-85685714D02*
X169487619Y-85685714D01*
X169344761Y-85590476D01*
X169249523Y-85495238D01*
X169201904Y-85400000D01*
X168582857Y-86400000D02*
X168535238Y-86447619D01*
X168487619Y-86400000D01*
X168535238Y-86352380D01*
X168582857Y-86400000D01*
X168487619Y-86400000D01*
X169392380Y-86828571D02*
X169440000Y-86876190D01*
X169487619Y-86971428D01*
X169487619Y-87209523D01*
X169440000Y-87304761D01*
X169392380Y-87352380D01*
X169297142Y-87400000D01*
X169201904Y-87400000D01*
X169059047Y-87352380D01*
X168487619Y-86780952D01*
X168487619Y-87400000D01*
X169392380Y-87780952D02*
X169440000Y-87828571D01*
X169487619Y-87923809D01*
X169487619Y-88161904D01*
X169440000Y-88257142D01*
X169392380Y-88304761D01*
X169297142Y-88352380D01*
X169201904Y-88352380D01*
X169059047Y-88304761D01*
X168487619Y-87733333D01*
X168487619Y-88352380D01*
X169392380Y-88733333D02*
X169440000Y-88780952D01*
X169487619Y-88876190D01*
X169487619Y-89114285D01*
X169440000Y-89209523D01*
X169392380Y-89257142D01*
X169297142Y-89304761D01*
X169201904Y-89304761D01*
X169059047Y-89257142D01*
X168487619Y-88685714D01*
X168487619Y-89304761D01*
X169487619Y-89923809D02*
X169487619Y-90019047D01*
X169440000Y-90114285D01*
X169392380Y-90161904D01*
X169297142Y-90209523D01*
X169106666Y-90257142D01*
X168868571Y-90257142D01*
X168678095Y-90209523D01*
X168582857Y-90161904D01*
X168535238Y-90114285D01*
X168487619Y-90019047D01*
X168487619Y-89923809D01*
X168535238Y-89828571D01*
X168582857Y-89780952D01*
X168678095Y-89733333D01*
X168868571Y-89685714D01*
X169106666Y-89685714D01*
X169297142Y-89733333D01*
X169392380Y-89780952D01*
X169440000Y-89828571D01*
X169487619Y-89923809D01*
X168487619Y-91447619D02*
X169154285Y-91447619D01*
X169487619Y-91447619D02*
X169440000Y-91400000D01*
X169392380Y-91447619D01*
X169440000Y-91495238D01*
X169487619Y-91447619D01*
X169392380Y-91447619D01*
X169154285Y-91923809D02*
X168487619Y-91923809D01*
X169059047Y-91923809D02*
X169106666Y-91971428D01*
X169154285Y-92066666D01*
X169154285Y-92209523D01*
X169106666Y-92304761D01*
X169011428Y-92352380D01*
X168487619Y-92352380D01*
X167640000Y-73380600D02*
X167640000Y-104419400D01*
X155219400Y-73380600D02*
X168226421Y-73380600D01*
X155219400Y-104419400D02*
X168226421Y-104419400D01*
X167640000Y-104419400D02*
X167053579Y-103292896D01*
X167640000Y-104419400D02*
X168226421Y-103292896D01*
X167640000Y-73380600D02*
X167053579Y-74507104D01*
X167640000Y-73380600D02*
X168226421Y-74507104D01*
X136771428Y-60112380D02*
X136200000Y-60112380D01*
X136485714Y-60112380D02*
X136485714Y-59112380D01*
X136390476Y-59255238D01*
X136295238Y-59350476D01*
X136200000Y-59398095D01*
X137200000Y-60017142D02*
X137247619Y-60064761D01*
X137200000Y-60112380D01*
X137152380Y-60064761D01*
X137200000Y-60017142D01*
X137200000Y-60112380D01*
X137628571Y-59207619D02*
X137676190Y-59160000D01*
X137771428Y-59112380D01*
X138009523Y-59112380D01*
X138104761Y-59160000D01*
X138152380Y-59207619D01*
X138200000Y-59302857D01*
X138200000Y-59398095D01*
X138152380Y-59540952D01*
X137580952Y-60112380D01*
X138200000Y-60112380D01*
X138580952Y-59207619D02*
X138628571Y-59160000D01*
X138723809Y-59112380D01*
X138961904Y-59112380D01*
X139057142Y-59160000D01*
X139104761Y-59207619D01*
X139152380Y-59302857D01*
X139152380Y-59398095D01*
X139104761Y-59540952D01*
X138533333Y-60112380D01*
X139152380Y-60112380D01*
X139533333Y-59207619D02*
X139580952Y-59160000D01*
X139676190Y-59112380D01*
X139914285Y-59112380D01*
X140009523Y-59160000D01*
X140057142Y-59207619D01*
X140104761Y-59302857D01*
X140104761Y-59398095D01*
X140057142Y-59540952D01*
X139485714Y-60112380D01*
X140104761Y-60112380D01*
X140723809Y-59112380D02*
X140819047Y-59112380D01*
X140914285Y-59160000D01*
X140961904Y-59207619D01*
X141009523Y-59302857D01*
X141057142Y-59493333D01*
X141057142Y-59731428D01*
X141009523Y-59921904D01*
X140961904Y-60017142D01*
X140914285Y-60064761D01*
X140819047Y-60112380D01*
X140723809Y-60112380D01*
X140628571Y-60064761D01*
X140580952Y-60017142D01*
X140533333Y-59921904D01*
X140485714Y-59731428D01*
X140485714Y-59493333D01*
X140533333Y-59302857D01*
X140580952Y-59207619D01*
X140628571Y-59160000D01*
X140723809Y-59112380D01*
X142247619Y-60112380D02*
X142247619Y-59445714D01*
X142247619Y-59112380D02*
X142200000Y-59160000D01*
X142247619Y-59207619D01*
X142295238Y-59160000D01*
X142247619Y-59112380D01*
X142247619Y-59207619D01*
X142723809Y-59445714D02*
X142723809Y-60112380D01*
X142723809Y-59540952D02*
X142771428Y-59493333D01*
X142866666Y-59445714D01*
X143009523Y-59445714D01*
X143104761Y-59493333D01*
X143152380Y-59588571D01*
X143152380Y-60112380D01*
X124180600Y-60960000D02*
X155219400Y-60960000D01*
X124180600Y-73380600D02*
X124180600Y-60373579D01*
X155219400Y-73380600D02*
X155219400Y-60373579D01*
X155219400Y-60960000D02*
X154092896Y-61546421D01*
X155219400Y-60960000D02*
X154092896Y-60373579D01*
X124180600Y-60960000D02*
X125307104Y-61546421D01*
X124180600Y-60960000D02*
X125307104Y-60373579D01*
M02*
