<?xml version="1.0" standalone="no"?>
 <!DOCTYPE svg PUBLIC "-//W3C//DTD SVG 1.1//EN" 
 "http://www.w3.org/Graphics/SVG/1.1/DTD/svg11.dtd"> 
<svg
  xmlns:svg="http://www.w3.org/2000/svg"
  xmlns="http://www.w3.org/2000/svg"
  xmlns:xlink="http://www.w3.org/1999/xlink"
  version="1.1"
  width="7.076440cm" height="5.895340cm" viewBox="0 0 27860 23210">
<title>SVG Picture created as stepper_driver-Dwgs_User.svg date 2021/11/03 11:59:43 </title>
  <desc>Picture generated by PCBNEW </desc>
<g style="fill:#000000; fill-opacity:1;stroke:#000000; stroke-opacity:1;
stroke-linecap:round; stroke-linejoin:round;"
 transform="translate(0 0) scale(1 1)">
</g>
<g style="fill:#000000; fill-opacity:0.0; 
stroke:#000000; stroke-width:-0.000393701; stroke-opacity:1; 
stroke-linecap:round; stroke-linejoin:round;">
</g>
<g style="fill:#C2C2C2; fill-opacity:0.0; 
stroke:#C2C2C2; stroke-width:-0.000393701; stroke-opacity:1; 
stroke-linecap:round; stroke-linejoin:round;">
</g>
<g style="fill:#C2C2C2; fill-opacity:0.0; 
stroke:#C2C2C2; stroke-width:59.0551; stroke-opacity:1; 
stroke-linecap:round; stroke-linejoin:round;">
<g transform="rotate(-90 26381.7 14210)">
<text x="26381.7" y="14406.9"
textLength="3035.89" font-size="524.934" lengthAdjust="spacingAndGlyphs"
text-anchor="middle" opacity="0">1.6400 in</text>
</g>
<path d="M26559 15363
L26559 15587
" />
<path d="M26559 15475
L26166 15475
L26222 15513
L26259 15550
L26278 15587
" />
<path d="M26522 15194
L26541 15175
L26559 15194
L26541 15213
L26522 15194
L26559 15194
" />
<path d="M26166 14838
L26166 14913
L26184 14950
L26203 14969
L26259 15006
L26334 15025
L26484 15025
L26522 15006
L26541 14988
L26559 14950
L26559 14875
L26541 14838
L26522 14819
L26484 14800
L26391 14800
L26353 14819
L26334 14838
L26316 14875
L26316 14950
L26334 14988
L26353 15006
L26391 15025
" />
<path d="M26297 14463
L26559 14463
" />
<path d="M26147 14556
L26428 14650
L26428 14406
" />
<path d="M26166 14181
L26166 14144
L26184 14106
L26203 14088
L26241 14069
L26316 14050
L26409 14050
L26484 14069
L26522 14088
L26541 14106
L26559 14144
L26559 14181
L26541 14219
L26522 14238
L26484 14256
L26409 14275
L26316 14275
L26241 14256
L26203 14238
L26184 14219
L26166 14181
" />
<path d="M26166 13806
L26166 13769
L26184 13731
L26203 13713
L26241 13694
L26316 13675
L26409 13675
L26484 13694
L26522 13713
L26541 13731
L26559 13769
L26559 13806
L26541 13844
L26522 13863
L26484 13881
L26409 13900
L26316 13900
L26241 13881
L26203 13863
L26184 13844
L26166 13806
" />
<path d="M26559 13207
L26297 13207
" />
<path d="M26166 13207
L26184 13225
L26203 13207
L26184 13188
L26166 13207
L26203 13207
" />
<path d="M26297 13019
L26559 13019
" />
<path d="M26334 13019
L26316 13000
L26297 12963
L26297 12907
L26316 12869
L26353 12850
L26559 12850
" />
<path d="M25869 22410
L25869 6010
" />
<path d="M17669 22410
L26100 22410
" />
<path d="M17669 6010
L26100 6010
" />
<path d="M25869 6010
L26100 6453
" />
<path d="M25869 6010
L25638 6453
" />
<path d="M25869 22410
L26100 21966
" />
<path d="M25869 22410
L25638 21966
" />
<text x="11269.8" y="495.079"
textLength="2982.66" font-size="524.934" lengthAdjust="spacingAndGlyphs"
text-anchor="middle" opacity="0">1.6400 in</text>
<path d="M10116 476
L9891 476
" />
<path d="M10004 476
L10004 82
L9966 138
L9929 176
L9891 195
" />
<path d="M10285 438
L10304 457
L10285 476
L10266 457
L10285 438
L10285 476
" />
<path d="M10641 82
L10566 82
L10529 101
L10510 120
L10473 176
L10454 251
L10454 401
L10473 438
L10491 457
L10529 476
L10604 476
L10641 457
L10660 438
L10679 401
L10679 307
L10660 270
L10641 251
L10604 232
L10529 232
L10491 251
L10473 270
L10454 307
" />
<path d="M11016 213
L11016 476
" />
<path d="M10923 63
L10829 345
L11072 345
" />
<path d="M11297 82
L11335 82
L11372 101
L11391 120
L11410 157
L11429 232
L11429 326
L11410 401
L11391 438
L11372 457
L11335 476
L11297 476
L11260 457
L11241 438
L11222 401
L11204 326
L11204 232
L11222 157
L11241 120
L11260 101
L11297 82
" />
<path d="M11672 82
L11710 82
L11747 101
L11766 120
L11785 157
L11804 232
L11804 326
L11785 401
L11766 438
L11747 457
L11710 476
L11672 476
L11635 457
L11616 438
L11597 401
L11579 326
L11579 232
L11597 157
L11616 120
L11635 101
L11672 82
" />
<path d="M12272 476
L12272 213
" />
<path d="M12272 82
L12254 101
L12272 120
L12291 101
L12272 82
L12272 120
" />
<path d="M12460 213
L12460 476
" />
<path d="M12460 251
L12479 232
L12516 213
L12572 213
L12610 232
L12629 270
L12629 476
" />
<path d="M3069 810
L19469 810
" />
<path d="M3069 7610
L3069 579
" />
<path d="M19469 7610
L19469 579
" />
<path d="M19469 810
L19026 1040
" />
<path d="M19469 810
L19026 579
" />
<path d="M3069 810
L3513 1040
" />
<path d="M3069 810
L3513 579
" />
<g transform="rotate(-270 22781.7 14210)">
<text x="22781.7" y="14406.9"
textLength="2982.66" font-size="524.934" lengthAdjust="spacingAndGlyphs"
text-anchor="middle" opacity="0">1.2220 in</text>
</g>
<path d="M22603 13057
L22603 12832
" />
<path d="M22603 12944
L22997 12944
L22941 12907
L22903 12869
L22884 12832
" />
<path d="M22641 13225
L22622 13244
L22603 13225
L22622 13207
L22641 13225
L22603 13225
" />
<path d="M22959 13394
L22978 13413
L22997 13450
L22997 13544
L22978 13581
L22959 13600
L22922 13619
L22884 13619
L22828 13600
L22603 13375
L22603 13619
" />
<path d="M22959 13769
L22978 13788
L22997 13825
L22997 13919
L22978 13956
L22959 13975
L22922 13994
L22884 13994
L22828 13975
L22603 13750
L22603 13994
" />
<path d="M22959 14144
L22978 14163
L22997 14200
L22997 14294
L22978 14331
L22959 14350
L22922 14369
L22884 14369
L22828 14350
L22603 14125
L22603 14369
" />
<path d="M22997 14613
L22997 14650
L22978 14688
L22959 14706
L22922 14725
L22847 14744
L22753 14744
L22678 14725
L22641 14706
L22622 14688
L22603 14650
L22603 14613
L22622 14575
L22641 14556
L22678 14538
L22753 14519
L22847 14519
L22922 14538
L22959 14556
L22978 14575
L22997 14613
" />
<path d="M22603 15213
L22866 15213
" />
<path d="M22997 15213
L22978 15194
L22959 15213
L22978 15231
L22997 15213
L22959 15213
" />
<path d="M22866 15400
L22603 15400
" />
<path d="M22828 15400
L22847 15419
L22866 15456
L22866 15513
L22847 15550
L22809 15569
L22603 15569
" />
<path d="M22269 8100
L22269 20320
" />
<path d="M17379 8100
L22500 8100
" />
<path d="M17379 20320
L22500 20320
" />
<path d="M22269 20320
L22038 19876
" />
<path d="M22269 20320
L22500 19876
" />
<path d="M22269 8100
L22038 8543
" />
<path d="M22269 8100
L22500 8543
" />
<text x="11269.8" y="2895.08"
textLength="2982.66" font-size="524.934" lengthAdjust="spacingAndGlyphs"
text-anchor="middle" opacity="0">1.2220 in</text>
<path d="M10116 2876
L9891 2876
" />
<path d="M10004 2876
L10004 2482
L9966 2538
L9929 2576
L9891 2595
" />
<path d="M10285 2838
L10304 2857
L10285 2876
L10266 2857
L10285 2838
L10285 2876
" />
<path d="M10454 2520
L10473 2501
L10510 2482
L10604 2482
L10641 2501
L10660 2520
L10679 2557
L10679 2595
L10660 2651
L10435 2876
L10679 2876
" />
<path d="M10829 2520
L10848 2501
L10885 2482
L10979 2482
L11016 2501
L11035 2520
L11054 2557
L11054 2595
L11035 2651
L10810 2876
L11054 2876
" />
<path d="M11204 2520
L11222 2501
L11260 2482
L11354 2482
L11391 2501
L11410 2520
L11429 2557
L11429 2595
L11410 2651
L11185 2876
L11429 2876
" />
<path d="M11672 2482
L11710 2482
L11747 2501
L11766 2520
L11785 2557
L11804 2632
L11804 2726
L11785 2801
L11766 2838
L11747 2857
L11710 2876
L11672 2876
L11635 2857
L11616 2838
L11597 2801
L11579 2726
L11579 2632
L11597 2557
L11616 2520
L11635 2501
L11672 2482
" />
<path d="M12272 2876
L12272 2613
" />
<path d="M12272 2482
L12254 2501
L12272 2520
L12291 2501
L12272 2482
L12272 2520
" />
<path d="M12460 2613
L12460 2876
" />
<path d="M12460 2651
L12479 2632
L12516 2613
L12572 2613
L12610 2632
L12629 2670
L12629 2876
" />
<path d="M5159 3210
L17379 3210
" />
<path d="M5159 8100
L5159 2979
" />
<path d="M17379 8100
L17379 2979
" />
<path d="M17379 3210
L16936 3440
" />
<path d="M17379 3210
L16936 2979
" />
<path d="M5159 3210
L5603 3440
" />
<path d="M5159 3210
L5603 2979
" />
<g >
</g>
<g >
</g>
<g >
</g>
<g >
</g>
<g >
</g>
<g >
</g>
<g >
</g>
<g >
</g>
<g >
</g>
<g >
</g>
<g >
</g>
<g >
</g>
<g >
</g>
<g >
</g>
<g >
</g>
<g >
</g>
<g >
</g>
<g >
</g>
<g >
</g>
<g >
</g>
<g >
</g>
<g >
</g>
<g >
</g>
<g >
</g>
<g >
</g>
<g >
</g>
<g >
</g>
</g>
<g style="fill:#000000; fill-opacity:0.0; 
stroke:#000000; stroke-width:59.0551; stroke-opacity:1; 
stroke-linecap:round; stroke-linejoin:round;">
</g>
<g style="fill:#C2C200; fill-opacity:0.0; 
stroke:#C2C200; stroke-width:59.0551; stroke-opacity:1; 
stroke-linecap:round; stroke-linejoin:round;">
</g>
<g style="fill:#C2C200; fill-opacity:0.0; 
stroke:#C2C200; stroke-width:90; stroke-opacity:1; 
stroke-linecap:round; stroke-linejoin:round;">
<path d="M3019.84 21210 A1250 1250 0.0 0 0 4269.84 22460" />
<path d="M18269.8 22460 A1250 1250 0.0 0 0 19519.8 21210" />
<path d="M19519.8 7210.04 A1250 1250 0.0 0 0 18269.8 5960.04" />
<path d="M4269.84 5960.04 A1250 1250 0.0 0 0 3019.84 7210.04" />
<path d="M3019 7210
L3019 21210
" />
<path d="M4269 22460
L18269 22460
" />
<path d="M19519 7210
L19519 21210
" />
<path d="M4269 5960
L18269 5960
" />
<g >
</g>
<g >
</g>
<g >
</g>
<g >
</g>
<g >
</g>
<g >
</g>
<g >
</g>
<g >
</g>
<g >
</g>
<g >
</g>
<g >
</g>
<g >
</g>
<g >
</g>
<g >
</g>
<g >
</g>
<g >
</g>
<g >
</g>
<g >
</g>
<g >
</g>
<g >
</g>
<g >
</g>
<g >
</g>
<g >
</g>
<g >
</g>
<g >
</g>
<g >
</g>
<g >
</g>
</g> 
</svg>
