%TF.GenerationSoftware,KiCad,Pcbnew,5.1.10*%
%TF.CreationDate,2021-11-03T12:23:44-04:00*%
%TF.ProjectId,stepper_driver,73746570-7065-4725-9f64-72697665722e,1.0*%
%TF.SameCoordinates,Original*%
%TF.FileFunction,Soldermask,Top*%
%TF.FilePolarity,Negative*%
%FSLAX46Y46*%
G04 Gerber Fmt 4.6, Leading zero omitted, Abs format (unit mm)*
G04 Created by KiCad (PCBNEW 5.1.10) date 2021-11-03 12:23:44*
%MOMM*%
%LPD*%
G01*
G04 APERTURE LIST*
%ADD10O,2.000000X2.540000*%
%ADD11R,2.000000X2.540000*%
%ADD12O,2.540000X1.905000*%
%ADD13R,2.540000X1.905000*%
%ADD14C,3.810000*%
%ADD15O,1.524000X2.032000*%
%ADD16R,1.524000X2.032000*%
%ADD17C,1.000000*%
%ADD18C,3.556000*%
%ADD19O,2.032000X3.048000*%
%ADD20R,2.032000X3.048000*%
%ADD21O,2.500000X3.500000*%
%ADD22R,2.500000X3.500000*%
G04 APERTURE END LIST*
D10*
%TO.C,T1*%
X143510000Y-71501000D03*
X140970000Y-71501000D03*
X138430000Y-71501000D03*
D11*
X135890000Y-71501000D03*
%TD*%
D12*
%TO.C,T3*%
X156845000Y-81915000D03*
D13*
X156845000Y-79375000D03*
%TD*%
D12*
%TO.C,T4*%
X156845000Y-89535000D03*
D13*
X156845000Y-86995000D03*
%TD*%
D14*
%TO.C,P1*%
X153733500Y-97409000D03*
X125666500Y-97409000D03*
D15*
X144780000Y-95631000D03*
X144780000Y-98679000D03*
X142240000Y-95631000D03*
X142240000Y-98679000D03*
X139700000Y-95631000D03*
X139700000Y-98679000D03*
X137160000Y-95631000D03*
X137160000Y-98679000D03*
X134620000Y-95631000D03*
D16*
X134620000Y-98679000D03*
%TD*%
D17*
%TO.C,FID1*%
X121920000Y-71120000D03*
%TD*%
%TO.C,FID3*%
X157480000Y-106680000D03*
%TD*%
D18*
%TO.C,MH1*%
X124181000Y-73380600D03*
%TD*%
%TO.C,MH2*%
X155219000Y-73380600D03*
%TD*%
%TO.C,MH3*%
X155219000Y-104419000D03*
%TD*%
%TO.C,MH4*%
X124181000Y-104419000D03*
%TD*%
D19*
%TO.C,SS1*%
X148590000Y-90805000D03*
X146050000Y-90805000D03*
X143510000Y-90805000D03*
X140970000Y-90805000D03*
X138430000Y-90805000D03*
X135890000Y-90805000D03*
X133350000Y-90805000D03*
X130810000Y-90805000D03*
X130810000Y-78105000D03*
X133350000Y-78105000D03*
X135890000Y-78105000D03*
X138430000Y-78105000D03*
X140970000Y-78105000D03*
X143510000Y-78105000D03*
X146050000Y-78105000D03*
D20*
X148590000Y-78105000D03*
%TD*%
D21*
%TO.C,T2*%
X122583000Y-81280000D03*
D22*
X126083000Y-81280000D03*
%TD*%
M02*
