<?xml version="1.0" standalone="no"?>
 <!DOCTYPE svg PUBLIC "-//W3C//DTD SVG 1.1//EN" 
 "http://www.w3.org/Graphics/SVG/1.1/DTD/svg11.dtd"> 
<svg
  xmlns:svg="http://www.w3.org/2000/svg"
  xmlns="http://www.w3.org/2000/svg"
  xmlns:xlink="http://www.w3.org/1999/xlink"
  version="1.1"
  width="7.076440cm" height="5.895340cm" viewBox="0 0 27860 23210">
<title>SVG Picture created as stepper_driver-F_SilkS.svg date 2021/11/03 11:59:43 </title>
  <desc>Picture generated by PCBNEW </desc>
<g style="fill:#000000; fill-opacity:1;stroke:#000000; stroke-opacity:1;
stroke-linecap:round; stroke-linejoin:round;"
 transform="translate(0 0) scale(1 1)">
</g>
<g style="fill:#000000; fill-opacity:0.0; 
stroke:#000000; stroke-width:-0.000393701; stroke-opacity:1; 
stroke-linecap:round; stroke-linejoin:round;">
</g>
<g style="fill:#008484; fill-opacity:0.0; 
stroke:#008484; stroke-width:-0.000393701; stroke-opacity:1; 
stroke-linecap:round; stroke-linejoin:round;">
</g>
<g style="fill:#008484; fill-opacity:0.0; 
stroke:#008484; stroke-width:100; stroke-opacity:1; 
stroke-linecap:round; stroke-linejoin:round;">
<text x="11269.8" y="19960"
textLength="7226.9" font-size="533.333" lengthAdjust="spacingAndGlyphs"
text-anchor="middle" opacity="0">stepper_driver NEMA 17</text>
<path d="M7765 19921
L7803 19940
L7879 19940
L7917 19921
L7936 19883
L7936 19864
L7917 19826
L7879 19807
L7822 19807
L7784 19788
L7765 19750
L7765 19731
L7784 19693
L7822 19674
L7879 19674
L7917 19693
" />
<path d="M8050 19674
L8203 19674
" />
<path d="M8107 19540
L8107 19883
L8126 19921
L8165 19940
L8203 19940
" />
<path d="M8488 19921
L8450 19940
L8374 19940
L8336 19921
L8317 19883
L8317 19731
L8336 19693
L8374 19674
L8450 19674
L8488 19693
L8507 19731
L8507 19769
L8317 19807
" />
<path d="M8679 19674
L8679 20074
" />
<path d="M8679 19693
L8717 19674
L8793 19674
L8831 19693
L8850 19712
L8869 19750
L8869 19864
L8850 19902
L8831 19921
L8793 19940
L8717 19940
L8679 19921
" />
<path d="M9041 19674
L9041 20074
" />
<path d="M9041 19693
L9079 19674
L9155 19674
L9193 19693
L9212 19712
L9231 19750
L9231 19864
L9212 19902
L9193 19921
L9155 19940
L9079 19940
L9041 19921
" />
<path d="M9555 19921
L9517 19940
L9441 19940
L9403 19921
L9384 19883
L9384 19731
L9403 19693
L9441 19674
L9517 19674
L9555 19693
L9574 19731
L9574 19769
L9384 19807
" />
<path d="M9746 19940
L9746 19674
" />
<path d="M9746 19750
L9765 19712
L9784 19693
L9822 19674
L9860 19674
" />
<path d="M9898 19979
L10203 19979
" />
<path d="M10469 19940
L10469 19540
" />
<path d="M10469 19921
L10431 19940
L10355 19940
L10317 19921
L10298 19902
L10279 19864
L10279 19750
L10298 19712
L10317 19693
L10355 19674
L10431 19674
L10469 19693
" />
<path d="M10660 19940
L10660 19674
" />
<path d="M10660 19750
L10679 19712
L10698 19693
L10736 19674
L10774 19674
" />
<path d="M10907 19940
L10907 19674
" />
<path d="M10907 19540
L10888 19560
L10907 19579
L10926 19560
L10907 19540
L10907 19579
" />
<path d="M11060 19674
L11155 19940
L11250 19674
" />
<path d="M11555 19921
L11517 19940
L11441 19940
L11403 19921
L11384 19883
L11384 19731
L11403 19693
L11441 19674
L11517 19674
L11555 19693
L11574 19731
L11574 19769
L11384 19807
" />
<path d="M11746 19940
L11746 19674
" />
<path d="M11746 19750
L11765 19712
L11784 19693
L11822 19674
L11860 19674
" />
<path d="M12298 19940
L12298 19540
L12526 19940
L12526 19540
" />
<path d="M12717 19731
L12850 19731
" />
<path d="M12907 19940
L12717 19940
L12717 19540
L12907 19540
" />
<path d="M13079 19940
L13079 19540
L13212 19826
L13346 19540
L13346 19940
" />
<path d="M13517 19826
L13707 19826
" />
<path d="M13479 19940
L13612 19540
L13746 19940
" />
<path d="M14393 19940
L14165 19940
" />
<path d="M14279 19940
L14279 19540
L14241 19598
L14203 19636
L14165 19655
" />
<path d="M14526 19540
L14793 19540
L14622 19940
" />
<text x="11269.8" y="20660"
textLength="7939.52" font-size="533.333" lengthAdjust="spacingAndGlyphs"
text-anchor="middle" opacity="0">Janelia Research Campus</text>
<path d="M7574 20240
L7574 20526
L7555 20583
L7517 20621
L7460 20640
L7422 20640
" />
<path d="M7936 20640
L7936 20431
L7917 20393
L7879 20374
L7803 20374
L7765 20393
" />
<path d="M7936 20621
L7898 20640
L7803 20640
L7765 20621
L7746 20583
L7746 20545
L7765 20507
L7803 20488
L7898 20488
L7936 20469
" />
<path d="M8126 20374
L8126 20640
" />
<path d="M8126 20412
L8146 20393
L8184 20374
L8241 20374
L8279 20393
L8298 20431
L8298 20640
" />
<path d="M8641 20621
L8603 20640
L8526 20640
L8488 20621
L8469 20583
L8469 20431
L8488 20393
L8526 20374
L8603 20374
L8641 20393
L8660 20431
L8660 20469
L8469 20507
" />
<path d="M8888 20640
L8850 20621
L8831 20583
L8831 20240
" />
<path d="M9041 20640
L9041 20374
" />
<path d="M9041 20240
L9022 20260
L9041 20279
L9060 20260
L9041 20240
L9041 20279
" />
<path d="M9403 20640
L9403 20431
L9384 20393
L9346 20374
L9269 20374
L9231 20393
" />
<path d="M9403 20621
L9365 20640
L9269 20640
L9231 20621
L9212 20583
L9212 20545
L9231 20507
L9269 20488
L9365 20488
L9403 20469
" />
<path d="M10126 20640
L9993 20450
" />
<path d="M9898 20640
L9898 20240
L10050 20240
L10088 20260
L10107 20279
L10126 20317
L10126 20374
L10107 20412
L10088 20431
L10050 20450
L9898 20450
" />
<path d="M10450 20621
L10412 20640
L10336 20640
L10298 20621
L10279 20583
L10279 20431
L10298 20393
L10336 20374
L10412 20374
L10450 20393
L10469 20431
L10469 20469
L10279 20507
" />
<path d="M10622 20621
L10660 20640
L10736 20640
L10774 20621
L10793 20583
L10793 20564
L10774 20526
L10736 20507
L10679 20507
L10641 20488
L10622 20450
L10622 20431
L10641 20393
L10679 20374
L10736 20374
L10774 20393
" />
<path d="M11117 20621
L11079 20640
L11003 20640
L10965 20621
L10946 20583
L10946 20431
L10965 20393
L11003 20374
L11079 20374
L11117 20393
L11136 20431
L11136 20469
L10946 20507
" />
<path d="M11479 20640
L11479 20431
L11460 20393
L11422 20374
L11346 20374
L11307 20393
" />
<path d="M11479 20621
L11441 20640
L11346 20640
L11307 20621
L11288 20583
L11288 20545
L11307 20507
L11346 20488
L11441 20488
L11479 20469
" />
<path d="M11669 20640
L11669 20374
" />
<path d="M11669 20450
L11688 20412
L11707 20393
L11746 20374
L11784 20374
" />
<path d="M12088 20621
L12050 20640
L11974 20640
L11936 20621
L11917 20602
L11898 20564
L11898 20450
L11917 20412
L11936 20393
L11974 20374
L12050 20374
L12088 20393
" />
<path d="M12260 20640
L12260 20240
" />
<path d="M12431 20640
L12431 20431
L12412 20393
L12374 20374
L12317 20374
L12279 20393
L12260 20412
" />
<path d="M13155 20602
L13136 20621
L13079 20640
L13041 20640
L12984 20621
L12946 20583
L12926 20545
L12907 20469
L12907 20412
L12926 20336
L12946 20298
L12984 20260
L13041 20240
L13079 20240
L13136 20260
L13155 20279
" />
<path d="M13498 20640
L13498 20431
L13479 20393
L13441 20374
L13365 20374
L13326 20393
" />
<path d="M13498 20621
L13460 20640
L13365 20640
L13326 20621
L13307 20583
L13307 20545
L13326 20507
L13365 20488
L13460 20488
L13498 20469
" />
<path d="M13688 20640
L13688 20374
" />
<path d="M13688 20412
L13707 20393
L13746 20374
L13803 20374
L13841 20393
L13860 20431
L13860 20640
" />
<path d="M13860 20431
L13879 20393
L13917 20374
L13974 20374
L14012 20393
L14031 20431
L14031 20640
" />
<path d="M14222 20374
L14222 20774
" />
<path d="M14222 20393
L14260 20374
L14336 20374
L14374 20393
L14393 20412
L14412 20450
L14412 20564
L14393 20602
L14374 20621
L14336 20640
L14260 20640
L14222 20621
" />
<path d="M14755 20374
L14755 20640
" />
<path d="M14584 20374
L14584 20583
L14603 20621
L14641 20640
L14698 20640
L14736 20621
L14755 20602
" />
<path d="M14926 20621
L14965 20640
L15041 20640
L15079 20621
L15098 20583
L15098 20564
L15079 20526
L15041 20507
L14984 20507
L14946 20488
L14926 20450
L14926 20431
L14946 20393
L14984 20374
L15041 20374
L15079 20393
" />
<text x="11269.8" y="21360"
textLength="5291.9" font-size="533.333" lengthAdjust="spacingAndGlyphs"
text-anchor="middle" opacity="0">11/2021 ver 1.0</text>
<path d="M8993 21340
L8765 21340
" />
<path d="M8879 21340
L8879 20940
L8841 20998
L8803 21036
L8765 21055
" />
<path d="M9374 21340
L9146 21340
" />
<path d="M9260 21340
L9260 20940
L9222 20998
L9184 21036
L9146 21055
" />
<path d="M9831 20921
L9488 21436
" />
<path d="M9946 20979
L9965 20960
L10003 20940
L10098 20940
L10136 20960
L10155 20979
L10174 21017
L10174 21055
L10155 21112
L9926 21340
L10174 21340
" />
<path d="M10422 20940
L10460 20940
L10498 20960
L10517 20979
L10536 21017
L10555 21093
L10555 21188
L10536 21264
L10517 21302
L10498 21321
L10460 21340
L10422 21340
L10384 21321
L10365 21302
L10346 21264
L10326 21188
L10326 21093
L10346 21017
L10365 20979
L10384 20960
L10422 20940
" />
<path d="M10707 20979
L10726 20960
L10765 20940
L10860 20940
L10898 20960
L10917 20979
L10936 21017
L10936 21055
L10917 21112
L10688 21340
L10936 21340
" />
<path d="M11317 21340
L11088 21340
" />
<path d="M11203 21340
L11203 20940
L11165 20998
L11126 21036
L11088 21055
" />
<path d="M11755 21074
L11850 21340
L11946 21074
" />
<path d="M12250 21321
L12212 21340
L12136 21340
L12098 21321
L12079 21283
L12079 21131
L12098 21093
L12136 21074
L12212 21074
L12250 21093
L12269 21131
L12269 21169
L12079 21207
" />
<path d="M12441 21340
L12441 21074
" />
<path d="M12441 21150
L12460 21112
L12479 21093
L12517 21074
L12555 21074
" />
<path d="M13203 21340
L12974 21340
" />
<path d="M13088 21340
L13088 20940
L13050 20998
L13012 21036
L12974 21055
" />
<path d="M13374 21302
L13393 21321
L13374 21340
L13355 21321
L13374 21302
L13374 21340
" />
<path d="M13641 20940
L13679 20940
L13717 20960
L13736 20979
L13755 21017
L13774 21093
L13774 21188
L13755 21264
L13736 21302
L13717 21321
L13679 21340
L13641 21340
L13603 21321
L13584 21302
L13565 21264
L13546 21188
L13546 21093
L13565 21017
L13584 20979
L13603 20960
L13641 20940
" />
<g transform="rotate(-90 16269.8 13960)">
<text x="16269.8" y="14160"
textLength="1634.76" font-size="533.333" lengthAdjust="spacingAndGlyphs"
text-anchor="middle" opacity="0">REFR</text>
</g>
<path d="M16450 14388
L16260 14521
" />
<path d="M16450 14617
L16050 14617
L16050 14464
L16069 14426
L16088 14407
L16126 14388
L16184 14388
L16222 14407
L16241 14426
L16260 14464
L16260 14617
" />
<path d="M16241 14217
L16241 14083
" />
<path d="M16450 14026
L16450 14217
L16050 14217
L16050 14026
" />
<path d="M16241 13721
L16241 13855
" />
<path d="M16450 13855
L16050 13855
L16050 13664
" />
<path d="M16450 13283
L16260 13417
" />
<path d="M16450 13512
L16050 13512
L16050 13360
L16069 13321
L16088 13302
L16126 13283
L16184 13283
L16222 13302
L16241 13321
L16260 13360
L16260 13512
" />
<g transform="rotate(-90 16269.8 10960)">
<text x="16269.8" y="11160"
textLength="1234.76" font-size="533.333" lengthAdjust="spacingAndGlyphs"
text-anchor="middle" opacity="0">REF</text>
</g>
<path d="M16450 11188
L16260 11321
" />
<path d="M16450 11417
L16050 11417
L16050 11264
L16069 11226
L16088 11207
L16126 11188
L16184 11188
L16222 11207
L16241 11226
L16260 11264
L16260 11417
" />
<path d="M16241 11017
L16241 10883
" />
<path d="M16450 10826
L16450 11017
L16050 11017
L16050 10826
" />
<path d="M16241 10521
L16241 10655
" />
<path d="M16450 10655
L16050 10655
L16050 10464
" />
<g transform="rotate(-90 3469.84 11210)">
<text x="3469.84" y="11410"
textLength="1349.05" font-size="533.333" lengthAdjust="spacingAndGlyphs"
text-anchor="middle" opacity="0">GND</text>
</g>
<path d="M3269 11514
L3250 11552
L3250 11610
L3269 11667
L3307 11705
L3346 11724
L3422 11743
L3479 11743
L3555 11724
L3593 11705
L3631 11667
L3650 11610
L3650 11571
L3631 11514
L3612 11495
L3479 11495
L3479 11571
" />
<path d="M3650 11324
L3250 11324
L3650 11095
L3250 11095
" />
<path d="M3650 10905
L3250 10905
L3250 10810
L3269 10752
L3307 10714
L3346 10695
L3422 10676
L3479 10676
L3555 10695
L3593 10714
L3631 10752
L3650 10810
L3650 10905
" />
<g transform="rotate(-90 6969.84 11210)">
<text x="6969.84" y="11410"
textLength="2910.95" font-size="533.333" lengthAdjust="spacingAndGlyphs"
text-anchor="middle" opacity="0">5-24VDC</text>
</g>
<path d="M6750 12314
L6750 12505
L6941 12524
L6922 12505
L6903 12467
L6903 12371
L6922 12333
L6941 12314
L6979 12295
L7074 12295
L7112 12314
L7131 12333
L7150 12371
L7150 12467
L7131 12505
L7112 12524
" />
<path d="M6998 12124
L6998 11819
" />
<path d="M6788 11648
L6769 11629
L6750 11590
L6750 11495
L6769 11457
L6788 11438
L6826 11419
L6865 11419
L6922 11438
L7150 11667
L7150 11419
" />
<path d="M6884 11076
L7150 11076
" />
<path d="M6731 11171
L7017 11267
L7017 11019
" />
<path d="M6750 10924
L7150 10790
L6750 10657
" />
<path d="M7150 10524
L6750 10524
L6750 10429
L6769 10371
L6807 10333
L6846 10314
L6922 10295
L6979 10295
L7055 10314
L7093 10333
L7131 10371
L7150 10429
L7150 10524
" />
<path d="M7112 9895
L7131 9914
L7150 9971
L7150 10010
L7131 10067
L7093 10105
L7055 10124
L6979 10143
L6922 10143
L6846 10124
L6807 10105
L6769 10067
L6750 10010
L6750 9971
L6769 9914
L6788 9895
" />
<text x="9769.84" y="9160.04"
textLength="1025.24" font-size="533.333" lengthAdjust="spacingAndGlyphs"
text-anchor="middle" opacity="0">B-</text>
<path d="M9550 8931
L9607 8950
L9626 8969
L9646 9007
L9646 9064
L9626 9102
L9607 9121
L9569 9140
L9417 9140
L9417 8740
L9550 8740
L9588 8760
L9607 8779
L9626 8817
L9626 8855
L9607 8893
L9588 8912
L9550 8931
L9417 8931
" />
<path d="M9817 8988
L10122 8988
" />
<text x="10769.8" y="9160.04"
textLength="1025.24" font-size="533.333" lengthAdjust="spacingAndGlyphs"
text-anchor="middle" opacity="0">B+</text>
<path d="M10550 8931
L10607 8950
L10626 8969
L10646 9007
L10646 9064
L10626 9102
L10607 9121
L10569 9140
L10417 9140
L10417 8740
L10550 8740
L10588 8760
L10607 8779
L10626 8817
L10626 8855
L10607 8893
L10588 8912
L10550 8931
L10417 8931
" />
<path d="M10817 8988
L11122 8988
" />
<path d="M10969 9140
L10969 8836
" />
<text x="12769.8" y="9160.04"
textLength="968.095" font-size="533.333" lengthAdjust="spacingAndGlyphs"
text-anchor="middle" opacity="0">A-</text>
<path d="M12426 9026
L12617 9026
" />
<path d="M12388 9140
L12522 8740
L12655 9140
" />
<path d="M12788 8988
L13093 8988
" />
<text x="11769.8" y="9160.04"
textLength="968.095" font-size="533.333" lengthAdjust="spacingAndGlyphs"
text-anchor="middle" opacity="0">A+</text>
<path d="M11426 9026
L11617 9026
" />
<path d="M11388 9140
L11522 8740
L11655 9140
" />
<path d="M11788 8988
L12093 8988
" />
<path d="M11941 9140
L11941 8836
" />
</g>
<g style="fill:#008484; fill-opacity:0.0; 
stroke:#008484; stroke-width:110; stroke-opacity:1; 
stroke-linecap:round; stroke-linejoin:round;">
<path d="M12769 6360
L12769 6110
" />
<path d="M11769 6360
L11769 6110
" />
<path d="M10769 6360
L10769 6110
" />
<path d="M9769 6360
L9769 6110
" />
<path d="M13019 6610
L13019 6110
" />
<path d="M12519 6610
L13019 6610
" />
<path d="M12519 6110
L12519 6610
" />
<path d="M12019 6610
L12019 6110
" />
<path d="M11519 6610
L12019 6610
" />
<path d="M11519 6110
L11519 6610
" />
<path d="M11019 6610
L11019 6110
" />
<path d="M10519 6610
L11019 6610
" />
<path d="M10519 6110
L10519 6610
" />
<path d="M10019 6610
L10019 6110
" />
<path d="M9519 6610
L10019 6610
" />
<path d="M9519 6110
L9519 6610
" />
</g>
<g style="fill:#008484; fill-opacity:0.0; 
stroke:#008484; stroke-width:98.4252; stroke-opacity:1; 
stroke-linecap:round; stroke-linejoin:round;">
<path d="M9179 6080
L9179 8639
" />
<path d="M9179 8639
L13360 8639
" />
<path d="M13360 6080
L13360 8639
" />
<path d="M9179 6080
L13360 6080
" />
</g>
<g style="fill:#008484; fill-opacity:0.0; 
stroke:#008484; stroke-width:110; stroke-opacity:1; 
stroke-linecap:round; stroke-linejoin:round;">
<path d="M19019 10460
L19269 10460
" />
<path d="M19019 11460
L19269 11460
" />
<path d="M18769 11710
L19269 11710
" />
<path d="M18769 11210
L18769 11710
" />
<path d="M19269 11210
L18769 11210
" />
<path d="M18769 10710
L19269 10710
" />
<path d="M18769 10210
L18769 10710
" />
<path d="M19269 10210
L18769 10210
" />
</g>
<g style="fill:#008484; fill-opacity:0.0; 
stroke:#008484; stroke-width:150; stroke-opacity:1; 
stroke-linecap:round; stroke-linejoin:round;">
<path d="M19299 9870
L16739 9870
" />
<path d="M16739 9870
L16739 12050
" />
<path d="M19299 12050
L16739 12050
" />
<path d="M19299 9870
L19299 12050
" />
</g>
<g style="fill:#008484; fill-opacity:0.0; 
stroke:#008484; stroke-width:110; stroke-opacity:1; 
stroke-linecap:round; stroke-linejoin:round;">
<path d="M19019 13460
L19269 13460
" />
<path d="M19019 14460
L19269 14460
" />
<path d="M18769 14710
L19269 14710
" />
<path d="M18769 14210
L18769 14710
" />
<path d="M19269 14210
L18769 14210
" />
<path d="M18769 13710
L19269 13710
" />
<path d="M18769 13210
L18769 13710
" />
<path d="M19269 13210
L18769 13210
" />
</g>
<g style="fill:#008484; fill-opacity:0.0; 
stroke:#008484; stroke-width:150; stroke-opacity:1; 
stroke-linecap:round; stroke-linejoin:round;">
<path d="M19299 12870
L16739 12870
" />
<path d="M16739 12870
L16739 15050
" />
<path d="M19299 15050
L16739 15050
" />
<path d="M19299 12870
L19299 15050
" />
<path d="M4969 19160
L17569 19160
" />
<path d="M17569 19160
L17569 15760
" />
<path d="M17569 15760
L4969 15760
" />
<path d="M4969 19160
L4969 15760
" />
<path d="M9269 19260
L8769 19760
" />
<path d="M8769 19760
L9769 19760
" />
<path d="M9769 19760
L9269 19260
" />
<path d="M12069 19160
L12069 19360
" />
<path d="M12069 19360
L10469 19360
" />
<path d="M10469 19360
L10469 19160
" />
</g>
<g style="fill:#008484; fill-opacity:0.0; 
stroke:#008484; stroke-width:90; stroke-opacity:1; 
stroke-linecap:round; stroke-linejoin:round;">
<circle cx="5160" cy="8100.04" r="1000" /> 
<circle cx="17379.7" cy="8100.04" r="1000" /> 
<circle cx="17379.7" cy="20319.9" r="1000" /> 
<circle cx="5160" cy="20319.9" r="1000" /> 
<path d="M15269 9460
L7269 9460
" />
<path d="M7269 9460
L7269 15460
" />
<path d="M7269 15460
L15269 15460
" />
<path d="M15269 15460
L15269 9460
" />
</g>
<g style="fill:#008484; fill-opacity:0.0; 
stroke:#008484; stroke-width:110; stroke-opacity:1; 
stroke-linecap:round; stroke-linejoin:round;">
<path d="M5908 14162
L6105 14556
" />
<path d="M5711 14556
L5908 14162
" />
<path d="M6105 14556
L5711 14556
" />
</g>
<g style="fill:#008484; fill-opacity:0.0; 
stroke:#008484; stroke-width:118.11; stroke-opacity:1; 
stroke-linecap:round; stroke-linejoin:round;">
<path d="M6597 14674
L3841 14674
" />
<path d="M3841 14674
L3841 10265
" />
<path d="M6597 10265
L3841 10265
" />
<path d="M6597 14674
L6597 10265
" />
</g>
<g style="fill:#008484; fill-opacity:0.0; 
stroke:#008484; stroke-width:100; stroke-opacity:1; 
stroke-linecap:round; stroke-linejoin:round;">
<g transform="rotate(-90 8769.84 7360.04)">
<text x="8769.84" y="7560.04"
textLength="815.714" font-size="533.333" lengthAdjust="spacingAndGlyphs"
text-anchor="middle" opacity="0">T1</text>
</g>
<path d="M8550 7664
L8550 7436
" />
<path d="M8950 7550
L8550 7550
" />
<path d="M8950 7093
L8950 7321
" />
<path d="M8950 7207
L8550 7207
L8607 7245
L8646 7283
L8665 7321
" />
<text x="18019.8" y="9660.04"
textLength="815.714" font-size="533.333" lengthAdjust="spacingAndGlyphs"
text-anchor="middle" opacity="0">T3</text>
<path d="M17715 9240
L17943 9240
" />
<path d="M17829 9640
L17829 9240
" />
<path d="M18038 9240
L18286 9240
L18153 9393
L18210 9393
L18248 9412
L18267 9431
L18286 9469
L18286 9564
L18267 9602
L18248 9621
L18210 9640
L18096 9640
L18057 9621
L18038 9602
" />
<text x="18019.8" y="12660"
textLength="815.714" font-size="533.333" lengthAdjust="spacingAndGlyphs"
text-anchor="middle" opacity="0">T4</text>
<path d="M17715 12240
L17943 12240
" />
<path d="M17829 12640
L17829 12240
" />
<path d="M18248 12374
L18248 12640
" />
<path d="M18153 12221
L18057 12507
L18305 12507
" />
<g transform="rotate(-90 18019.8 17460)">
<text x="18019.8" y="17660"
textLength="910.952" font-size="533.333" lengthAdjust="spacingAndGlyphs"
text-anchor="middle" opacity="0">P1</text>
</g>
<path d="M18200 17755
L17800 17755
L17800 17602
L17819 17564
L17838 17545
L17876 17526
L17934 17526
L17972 17545
L17991 17564
L18010 17602
L18010 17755
" />
<path d="M18200 17145
L18200 17374
" />
<path d="M18200 17260
L17800 17260
L17857 17298
L17896 17336
L17915 17374
" />
<g transform="rotate(-90 6969.84 15010)">
<text x="6969.84" y="15210"
textLength="1272.86" font-size="533.333" lengthAdjust="spacingAndGlyphs"
text-anchor="middle" opacity="0">SS1</text>
</g>
<path d="M7131 15505
L7150 15448
L7150 15352
L7131 15314
L7112 15295
L7074 15276
L7036 15276
L6998 15295
L6979 15314
L6960 15352
L6941 15429
L6922 15467
L6903 15486
L6865 15505
L6826 15505
L6788 15486
L6769 15467
L6750 15429
L6750 15333
L6769 15276
" />
<path d="M7131 15124
L7150 15067
L7150 14971
L7131 14933
L7112 14914
L7074 14895
L7036 14895
L6998 14914
L6979 14933
L6960 14971
L6941 15048
L6922 15086
L6903 15105
L6865 15124
L6826 15124
L6788 15105
L6769 15086
L6750 15048
L6750 14952
L6769 14895
" />
<path d="M7150 14514
L7150 14743
" />
<path d="M7150 14629
L6750 14629
L6807 14667
L6846 14705
L6865 14743
" />
<text x="11269.8" y="12660"
textLength="6244.29" font-size="533.333" lengthAdjust="spacingAndGlyphs"
text-anchor="middle" opacity="0">STEPSTICK_TMC2209</text>
<path d="M8288 12621
L8346 12640
L8441 12640
L8479 12621
L8498 12602
L8517 12564
L8517 12526
L8498 12488
L8479 12469
L8441 12450
L8365 12431
L8326 12412
L8307 12393
L8288 12355
L8288 12317
L8307 12279
L8326 12260
L8365 12240
L8460 12240
L8517 12260
" />
<path d="M8631 12240
L8860 12240
" />
<path d="M8746 12640
L8746 12240
" />
<path d="M8993 12431
L9126 12431
" />
<path d="M9184 12640
L8993 12640
L8993 12240
L9184 12240
" />
<path d="M9355 12640
L9355 12240
L9507 12240
L9546 12260
L9565 12279
L9584 12317
L9584 12374
L9565 12412
L9546 12431
L9507 12450
L9355 12450
" />
<path d="M9736 12621
L9793 12640
L9888 12640
L9926 12621
L9946 12602
L9965 12564
L9965 12526
L9946 12488
L9926 12469
L9888 12450
L9812 12431
L9774 12412
L9755 12393
L9736 12355
L9736 12317
L9755 12279
L9774 12260
L9812 12240
L9907 12240
L9965 12260
" />
<path d="M10079 12240
L10307 12240
" />
<path d="M10193 12640
L10193 12240
" />
<path d="M10441 12640
L10441 12240
" />
<path d="M10860 12602
L10841 12621
L10784 12640
L10746 12640
L10688 12621
L10650 12583
L10631 12545
L10612 12469
L10612 12412
L10631 12336
L10650 12298
L10688 12260
L10746 12240
L10784 12240
L10841 12260
L10860 12279
" />
<path d="M11031 12640
L11031 12240
" />
<path d="M11260 12640
L11088 12412
" />
<path d="M11260 12240
L11031 12469
" />
<path d="M11336 12679
L11641 12679
" />
<path d="M11679 12240
L11907 12240
" />
<path d="M11793 12640
L11793 12240
" />
<path d="M12041 12640
L12041 12240
L12174 12526
L12307 12240
L12307 12640
" />
<path d="M12726 12602
L12707 12621
L12650 12640
L12612 12640
L12555 12621
L12517 12583
L12498 12545
L12479 12469
L12479 12412
L12498 12336
L12517 12298
L12555 12260
L12612 12240
L12650 12240
L12707 12260
L12726 12279
" />
<path d="M12879 12279
L12898 12260
L12936 12240
L13031 12240
L13069 12260
L13088 12279
L13107 12317
L13107 12355
L13088 12412
L12860 12640
L13107 12640
" />
<path d="M13260 12279
L13279 12260
L13317 12240
L13412 12240
L13450 12260
L13469 12279
L13488 12317
L13488 12355
L13469 12412
L13241 12640
L13488 12640
" />
<path d="M13736 12240
L13774 12240
L13812 12260
L13831 12279
L13850 12317
L13869 12393
L13869 12488
L13850 12564
L13831 12602
L13812 12621
L13774 12640
L13736 12640
L13698 12621
L13679 12602
L13660 12564
L13641 12488
L13641 12393
L13660 12317
L13679 12279
L13698 12260
L13736 12240
" />
<path d="M14060 12640
L14136 12640
L14174 12621
L14193 12602
L14231 12545
L14250 12469
L14250 12317
L14231 12279
L14212 12260
L14174 12240
L14098 12240
L14060 12260
L14041 12279
L14022 12317
L14022 12412
L14041 12450
L14060 12469
L14098 12488
L14174 12488
L14212 12469
L14231 12450
L14250 12412
" />
<g transform="rotate(-90 14769.8 13460)">
<text x="14769.8" y="13660"
textLength="1120.48" font-size="533.333" lengthAdjust="spacingAndGlyphs"
text-anchor="middle" opacity="0">DIR</text>
</g>
<path d="M14950 13860
L14550 13860
L14550 13764
L14569 13707
L14607 13669
L14646 13650
L14722 13631
L14779 13631
L14855 13650
L14893 13669
L14931 13707
L14950 13764
L14950 13860
" />
<path d="M14950 13460
L14550 13460
" />
<path d="M14950 13040
L14760 13174
" />
<path d="M14950 13269
L14550 13269
L14550 13117
L14569 13079
L14588 13060
L14626 13040
L14684 13040
L14722 13060
L14741 13079
L14760 13117
L14760 13269
" />
<g transform="rotate(-90 13769.8 13460)">
<text x="13769.8" y="13660"
textLength="1577.62" font-size="533.333" lengthAdjust="spacingAndGlyphs"
text-anchor="middle" opacity="0">STEP</text>
</g>
<path d="M13931 14107
L13950 14050
L13950 13955
L13931 13917
L13912 13898
L13874 13879
L13836 13879
L13798 13898
L13779 13917
L13760 13955
L13741 14031
L13722 14069
L13703 14088
L13665 14107
L13626 14107
L13588 14088
L13569 14069
L13550 14031
L13550 13936
L13569 13879
" />
<path d="M13550 13764
L13550 13536
" />
<path d="M13950 13650
L13550 13650
" />
<path d="M13741 13402
L13741 13269
" />
<path d="M13950 13212
L13950 13402
L13550 13402
L13550 13212
" />
<path d="M13950 13040
L13550 13040
L13550 12888
L13569 12850
L13588 12831
L13626 12812
L13684 12812
L13722 12831
L13741 12850
L13760 12888
L13760 13040
" />
<g transform="rotate(-90 12769.8 13460)">
<text x="12769.8" y="13660"
textLength="1349.05" font-size="533.333" lengthAdjust="spacingAndGlyphs"
text-anchor="middle" opacity="0">PDN</text>
</g>
<path d="M12950 13974
L12550 13974
L12550 13821
L12569 13783
L12588 13764
L12626 13745
L12684 13745
L12722 13764
L12741 13783
L12760 13821
L12760 13974
" />
<path d="M12950 13574
L12550 13574
L12550 13479
L12569 13421
L12607 13383
L12646 13364
L12722 13345
L12779 13345
L12855 13364
L12893 13383
L12931 13421
L12950 13479
L12950 13574
" />
<path d="M12950 13174
L12550 13174
L12950 12945
L12550 12945
" />
<g transform="rotate(-90 11769.8 13460)">
<text x="11769.8" y="13660"
textLength="1596.67" font-size="533.333" lengthAdjust="spacingAndGlyphs"
text-anchor="middle" opacity="0">UART</text>
</g>
<path d="M11550 14098
L11874 14098
L11912 14079
L11931 14060
L11950 14021
L11950 13945
L11931 13907
L11912 13888
L11874 13869
L11550 13869
" />
<path d="M11836 13698
L11836 13507
" />
<path d="M11950 13736
L11550 13602
L11950 13469
" />
<path d="M11950 13107
L11760 13240
" />
<path d="M11950 13336
L11550 13336
L11550 13183
L11569 13145
L11588 13126
L11626 13107
L11684 13107
L11722 13126
L11741 13145
L11760 13183
L11760 13336
" />
<path d="M11550 12993
L11550 12764
" />
<path d="M11950 12879
L11550 12879
" />
<g transform="rotate(-90 10769.8 13460)">
<text x="10769.8" y="13660"
textLength="1710.95" font-size="533.333" lengthAdjust="spacingAndGlyphs"
text-anchor="middle" opacity="0">SPRD</text>
</g>
<path d="M10931 14174
L10950 14117
L10950 14021
L10931 13983
L10912 13964
L10874 13945
L10836 13945
L10798 13964
L10779 13983
L10760 14021
L10741 14098
L10722 14136
L10703 14155
L10665 14174
L10626 14174
L10588 14155
L10569 14136
L10550 14098
L10550 14002
L10569 13945
" />
<path d="M10950 13774
L10550 13774
L10550 13621
L10569 13583
L10588 13564
L10626 13545
L10684 13545
L10722 13564
L10741 13583
L10760 13621
L10760 13774
" />
<path d="M10950 13145
L10760 13279
" />
<path d="M10950 13374
L10550 13374
L10550 13221
L10569 13183
L10588 13164
L10626 13145
L10684 13145
L10722 13164
L10741 13183
L10760 13221
L10760 13374
" />
<path d="M10950 12974
L10550 12974
L10550 12879
L10569 12821
L10607 12783
L10646 12764
L10722 12745
L10779 12745
L10855 12764
L10893 12783
L10931 12821
L10950 12879
L10950 12974
" />
<g transform="rotate(-90 9769.84 13460)">
<text x="9769.84" y="13660"
textLength="1349.05" font-size="533.333" lengthAdjust="spacingAndGlyphs"
text-anchor="middle" opacity="0">MS2</text>
</g>
<path d="M9950 13974
L9550 13974
L9836 13840
L9550 13707
L9950 13707
" />
<path d="M9931 13536
L9950 13479
L9950 13383
L9931 13345
L9912 13326
L9874 13307
L9836 13307
L9798 13326
L9779 13345
L9760 13383
L9741 13460
L9722 13498
L9703 13517
L9665 13536
L9626 13536
L9588 13517
L9569 13498
L9550 13460
L9550 13364
L9569 13307
" />
<path d="M9588 13155
L9569 13136
L9550 13098
L9550 13002
L9569 12964
L9588 12945
L9626 12926
L9665 12926
L9722 12945
L9950 13174
L9950 12926
" />
<g transform="rotate(-90 8769.84 13460)">
<text x="8769.84" y="13660"
textLength="1349.05" font-size="533.333" lengthAdjust="spacingAndGlyphs"
text-anchor="middle" opacity="0">MS1</text>
</g>
<path d="M8950 13974
L8550 13974
L8836 13840
L8550 13707
L8950 13707
" />
<path d="M8931 13536
L8950 13479
L8950 13383
L8931 13345
L8912 13326
L8874 13307
L8836 13307
L8798 13326
L8779 13345
L8760 13383
L8741 13460
L8722 13498
L8703 13517
L8665 13536
L8626 13536
L8588 13517
L8569 13498
L8550 13460
L8550 13364
L8569 13307
" />
<path d="M8950 12926
L8950 13155
" />
<path d="M8950 13040
L8550 13040
L8607 13079
L8646 13117
L8665 13155
" />
<g transform="rotate(-90 7769.84 13460)">
<text x="7769.84" y="13660"
textLength="910.952" font-size="533.333" lengthAdjust="spacingAndGlyphs"
text-anchor="middle" opacity="0">EN</text>
</g>
<path d="M7741 13755
L7741 13621
" />
<path d="M7950 13564
L7950 13755
L7550 13755
L7550 13564
" />
<path d="M7950 13393
L7550 13393
L7950 13164
L7550 13164
" />
<g transform="rotate(-90 7769.84 11460)">
<text x="7769.84" y="11660"
textLength="930" font-size="533.333" lengthAdjust="spacingAndGlyphs"
text-anchor="middle" opacity="0">VM</text>
</g>
<path d="M7550 11821
L7950 11688
L7550 11555
" />
<path d="M7950 11421
L7550 11421
L7836 11288
L7550 11155
L7950 11155
" />
<g transform="rotate(-90 8769.84 11460)">
<text x="8769.84" y="11660"
textLength="1349.05" font-size="533.333" lengthAdjust="spacingAndGlyphs"
text-anchor="middle" opacity="0">GND</text>
</g>
<path d="M8569 11764
L8550 11802
L8550 11860
L8569 11917
L8607 11955
L8646 11974
L8722 11993
L8779 11993
L8855 11974
L8893 11955
L8931 11917
L8950 11860
L8950 11821
L8931 11764
L8912 11745
L8779 11745
L8779 11821
" />
<path d="M8950 11574
L8550 11574
L8950 11345
L8550 11345
" />
<path d="M8950 11155
L8550 11155
L8550 11060
L8569 11002
L8607 10964
L8646 10945
L8722 10926
L8779 10926
L8855 10945
L8893 10964
L8931 11002
L8950 11060
L8950 11155
" />
<g transform="rotate(-90 9769.84 11460)">
<text x="9769.84" y="11660"
textLength="1368.1" font-size="533.333" lengthAdjust="spacingAndGlyphs"
text-anchor="middle" opacity="0">M2B</text>
</g>
<path d="M9950 11983
L9550 11983
L9836 11850
L9550 11717
L9950 11717
" />
<path d="M9588 11545
L9569 11526
L9550 11488
L9550 11393
L9569 11355
L9588 11336
L9626 11317
L9665 11317
L9722 11336
L9950 11564
L9950 11317
" />
<path d="M9741 11012
L9760 10955
L9779 10936
L9817 10917
L9874 10917
L9912 10936
L9931 10955
L9950 10993
L9950 11145
L9550 11145
L9550 11012
L9569 10974
L9588 10955
L9626 10936
L9665 10936
L9703 10955
L9722 10974
L9741 11012
L9741 11145
" />
<g transform="rotate(-90 10769.8 11460)">
<text x="10769.8" y="11660"
textLength="1310.95" font-size="533.333" lengthAdjust="spacingAndGlyphs"
text-anchor="middle" opacity="0">M2A</text>
</g>
<path d="M10950 11955
L10550 11955
L10836 11821
L10550 11688
L10950 11688
" />
<path d="M10588 11517
L10569 11498
L10550 11460
L10550 11364
L10569 11326
L10588 11307
L10626 11288
L10665 11288
L10722 11307
L10950 11536
L10950 11288
" />
<path d="M10836 11136
L10836 10945
" />
<path d="M10950 11174
L10550 11040
L10950 10907
" />
<g transform="rotate(-90 11769.8 11460)">
<text x="11769.8" y="11660"
textLength="1310.95" font-size="533.333" lengthAdjust="spacingAndGlyphs"
text-anchor="middle" opacity="0">M1A</text>
</g>
<path d="M11950 11955
L11550 11955
L11836 11821
L11550 11688
L11950 11688
" />
<path d="M11950 11288
L11950 11517
" />
<path d="M11950 11402
L11550 11402
L11607 11440
L11646 11479
L11665 11517
" />
<path d="M11836 11136
L11836 10945
" />
<path d="M11950 11174
L11550 11040
L11950 10907
" />
<g transform="rotate(-90 12769.8 11460)">
<text x="12769.8" y="11660"
textLength="1368.1" font-size="533.333" lengthAdjust="spacingAndGlyphs"
text-anchor="middle" opacity="0">M1B</text>
</g>
<path d="M12950 11983
L12550 11983
L12836 11850
L12550 11717
L12950 11717
" />
<path d="M12950 11317
L12950 11545
" />
<path d="M12950 11431
L12550 11431
L12607 11469
L12646 11507
L12665 11545
" />
<path d="M12741 11012
L12760 10955
L12779 10936
L12817 10917
L12874 10917
L12912 10936
L12931 10955
L12950 10993
L12950 11145
L12550 11145
L12550 11012
L12569 10974
L12588 10955
L12626 10936
L12665 10936
L12703 10955
L12722 10974
L12741 11012
L12741 11145
" />
<g transform="rotate(-90 13769.8 11460)">
<text x="13769.8" y="11660"
textLength="1082.38" font-size="533.333" lengthAdjust="spacingAndGlyphs"
text-anchor="middle" opacity="0">VIO</text>
</g>
<path d="M13550 11898
L13950 11764
L13550 11631
" />
<path d="M13950 11498
L13550 11498
" />
<path d="M13550 11231
L13550 11155
L13569 11117
L13607 11079
L13684 11060
L13817 11060
L13893 11079
L13931 11117
L13950 11155
L13950 11231
L13931 11269
L13893 11307
L13817 11326
L13684 11326
L13607 11307
L13569 11269
L13550 11231
" />
<g transform="rotate(-90 14769.8 11460)">
<text x="14769.8" y="11660"
textLength="1349.05" font-size="533.333" lengthAdjust="spacingAndGlyphs"
text-anchor="middle" opacity="0">GND</text>
</g>
<path d="M14569 11764
L14550 11802
L14550 11860
L14569 11917
L14607 11955
L14646 11974
L14722 11993
L14779 11993
L14855 11974
L14893 11955
L14931 11917
L14950 11860
L14950 11821
L14931 11764
L14912 11745
L14779 11745
L14779 11821
" />
<path d="M14950 11574
L14550 11574
L14950 11345
L14550 11345
" />
<path d="M14950 11155
L14550 11155
L14550 11060
L14569 11002
L14607 10964
L14646 10945
L14722 10926
L14779 10926
L14855 10945
L14893 10964
L14931 11002
L14950 11060
L14950 11155
" />
<text x="5219.84" y="15210"
textLength="815.714" font-size="533.333" lengthAdjust="spacingAndGlyphs"
text-anchor="middle" opacity="0">T2</text>
<path d="M4915 14790
L5143 14790
" />
<path d="M5029 15190
L5029 14790
" />
<path d="M5257 14829
L5276 14810
L5315 14790
L5410 14790
L5448 14810
L5467 14829
L5486 14867
L5486 14905
L5467 14962
L5238 15190
L5486 15190
" />
<g >
</g>
</g>
<g style="fill:#000000; fill-opacity:0.0; 
stroke:#000000; stroke-width:100; stroke-opacity:1; 
stroke-linecap:round; stroke-linejoin:round;">
</g>
<g style="fill:#C2C200; fill-opacity:0.0; 
stroke:#C2C200; stroke-width:100; stroke-opacity:1; 
stroke-linecap:round; stroke-linejoin:round;">
</g>
<g style="fill:#C2C200; fill-opacity:0.0; 
stroke:#C2C200; stroke-width:90; stroke-opacity:1; 
stroke-linecap:round; stroke-linejoin:round;">
<path d="M3019.84 21210 A1250 1250 0.0 0 0 4269.84 22460" />
<path d="M18269.8 22460 A1250 1250 0.0 0 0 19519.8 21210" />
<path d="M19519.8 7210.04 A1250 1250 0.0 0 0 18269.8 5960.04" />
<path d="M4269.84 5960.04 A1250 1250 0.0 0 0 3019.84 7210.04" />
<path d="M3019 7210
L3019 21210
" />
<path d="M4269 22460
L18269 22460
" />
<path d="M19519 7210
L19519 21210
" />
<path d="M4269 5960
L18269 5960
" />
<g >
</g>
<g >
</g>
<g >
</g>
<g >
</g>
<g >
</g>
<g >
</g>
<g >
</g>
<g >
</g>
<g >
</g>
<g >
</g>
<g >
</g>
<g >
</g>
<g >
</g>
<g >
</g>
<g >
</g>
<g >
</g>
<g >
</g>
<g >
</g>
<g >
</g>
<g >
</g>
<g >
</g>
<g >
</g>
<g >
</g>
<g >
</g>
<g >
</g>
<g >
</g>
<g >
</g>
</g> 
</svg>
