<?xml version="1.0" standalone="no"?>
 <!DOCTYPE svg PUBLIC "-//W3C//DTD SVG 1.1//EN" 
 "http://www.w3.org/Graphics/SVG/1.1/DTD/svg11.dtd"> 
<svg
  xmlns:svg="http://www.w3.org/2000/svg"
  xmlns="http://www.w3.org/2000/svg"
  xmlns:xlink="http://www.w3.org/1999/xlink"
  version="1.1"
  width="6.360160cm" height="5.895340cm" viewBox="0 0 25040 23210">
<title>SVG Picture created as stepper_driver-F_SilkS.svg date 2021/11/04 10:30:37 </title>
  <desc>Picture generated by PCBNEW </desc>
<g style="fill:#000000; fill-opacity:1;stroke:#000000; stroke-opacity:1;
stroke-linecap:round; stroke-linejoin:round;"
 transform="translate(0 0) scale(1 1)">
</g>
<g style="fill:#000000; fill-opacity:0.0; 
stroke:#000000; stroke-width:-0.000393701; stroke-opacity:1; 
stroke-linecap:round; stroke-linejoin:round;">
</g>
<g style="fill:#008484; fill-opacity:0.0; 
stroke:#008484; stroke-width:-0.000393701; stroke-opacity:1; 
stroke-linecap:round; stroke-linejoin:round;">
</g>
<g style="fill:#008484; fill-opacity:0.0; 
stroke:#008484; stroke-width:100; stroke-opacity:1; 
stroke-linecap:round; stroke-linejoin:round;">
<text x="9000" y="20710"
textLength="7226.9" font-size="533.333" lengthAdjust="spacingAndGlyphs"
text-anchor="middle" opacity="0">stepper_driver NEMA 17</text>
<path d="M5495 20671
L5533 20690
L5609 20690
L5647 20671
L5666 20633
L5666 20614
L5647 20576
L5609 20557
L5552 20557
L5514 20538
L5495 20500
L5495 20481
L5514 20443
L5552 20424
L5609 20424
L5647 20443
" />
<path d="M5780 20424
L5933 20424
" />
<path d="M5838 20290
L5838 20633
L5857 20671
L5895 20690
L5933 20690
" />
<path d="M6219 20671
L6180 20690
L6104 20690
L6066 20671
L6047 20633
L6047 20481
L6066 20443
L6104 20424
L6180 20424
L6219 20443
L6238 20481
L6238 20519
L6047 20557
" />
<path d="M6409 20424
L6409 20824
" />
<path d="M6409 20443
L6447 20424
L6523 20424
L6561 20443
L6580 20462
L6600 20500
L6600 20614
L6580 20652
L6561 20671
L6523 20690
L6447 20690
L6409 20671
" />
<path d="M6771 20424
L6771 20824
" />
<path d="M6771 20443
L6809 20424
L6885 20424
L6923 20443
L6942 20462
L6961 20500
L6961 20614
L6942 20652
L6923 20671
L6885 20690
L6809 20690
L6771 20671
" />
<path d="M7285 20671
L7247 20690
L7171 20690
L7133 20671
L7114 20633
L7114 20481
L7133 20443
L7171 20424
L7247 20424
L7285 20443
L7304 20481
L7304 20519
L7114 20557
" />
<path d="M7476 20690
L7476 20424
" />
<path d="M7476 20500
L7495 20462
L7514 20443
L7552 20424
L7590 20424
" />
<path d="M7628 20729
L7933 20729
" />
<path d="M8200 20690
L8200 20290
" />
<path d="M8200 20671
L8161 20690
L8085 20690
L8047 20671
L8028 20652
L8009 20614
L8009 20500
L8028 20462
L8047 20443
L8085 20424
L8161 20424
L8200 20443
" />
<path d="M8390 20690
L8390 20424
" />
<path d="M8390 20500
L8409 20462
L8428 20443
L8466 20424
L8504 20424
" />
<path d="M8638 20690
L8638 20424
" />
<path d="M8638 20290
L8619 20310
L8638 20329
L8657 20310
L8638 20290
L8638 20329
" />
<path d="M8790 20424
L8885 20690
L8980 20424
" />
<path d="M9285 20671
L9247 20690
L9171 20690
L9133 20671
L9114 20633
L9114 20481
L9133 20443
L9171 20424
L9247 20424
L9285 20443
L9304 20481
L9304 20519
L9114 20557
" />
<path d="M9476 20690
L9476 20424
" />
<path d="M9476 20500
L9495 20462
L9514 20443
L9552 20424
L9590 20424
" />
<path d="M10028 20690
L10028 20290
L10257 20690
L10257 20290
" />
<path d="M10447 20481
L10580 20481
" />
<path d="M10638 20690
L10447 20690
L10447 20290
L10638 20290
" />
<path d="M10809 20690
L10809 20290
L10942 20576
L11076 20290
L11076 20690
" />
<path d="M11247 20576
L11438 20576
" />
<path d="M11209 20690
L11342 20290
L11476 20690
" />
<path d="M12123 20690
L11895 20690
" />
<path d="M12009 20690
L12009 20290
L11971 20348
L11933 20386
L11895 20405
" />
<path d="M12257 20290
L12523 20290
L12352 20690
" />
<text x="9000" y="21410"
textLength="7939.52" font-size="533.333" lengthAdjust="spacingAndGlyphs"
text-anchor="middle" opacity="0">Janelia Research Campus</text>
<path d="M5304 20990
L5304 21276
L5285 21333
L5247 21371
L5190 21390
L5152 21390
" />
<path d="M5666 21390
L5666 21181
L5647 21143
L5609 21124
L5533 21124
L5495 21143
" />
<path d="M5666 21371
L5628 21390
L5533 21390
L5495 21371
L5476 21333
L5476 21295
L5495 21257
L5533 21238
L5628 21238
L5666 21219
" />
<path d="M5857 21124
L5857 21390
" />
<path d="M5857 21162
L5876 21143
L5914 21124
L5971 21124
L6009 21143
L6028 21181
L6028 21390
" />
<path d="M6371 21371
L6333 21390
L6257 21390
L6219 21371
L6200 21333
L6200 21181
L6219 21143
L6257 21124
L6333 21124
L6371 21143
L6390 21181
L6390 21219
L6200 21257
" />
<path d="M6619 21390
L6580 21371
L6561 21333
L6561 20990
" />
<path d="M6771 21390
L6771 21124
" />
<path d="M6771 20990
L6752 21010
L6771 21029
L6790 21010
L6771 20990
L6771 21029
" />
<path d="M7133 21390
L7133 21181
L7114 21143
L7076 21124
L7000 21124
L6961 21143
" />
<path d="M7133 21371
L7095 21390
L7000 21390
L6961 21371
L6942 21333
L6942 21295
L6961 21257
L7000 21238
L7095 21238
L7133 21219
" />
<path d="M7857 21390
L7723 21200
" />
<path d="M7628 21390
L7628 20990
L7780 20990
L7819 21010
L7838 21029
L7857 21067
L7857 21124
L7838 21162
L7819 21181
L7780 21200
L7628 21200
" />
<path d="M8180 21371
L8142 21390
L8066 21390
L8028 21371
L8009 21333
L8009 21181
L8028 21143
L8066 21124
L8142 21124
L8180 21143
L8200 21181
L8200 21219
L8009 21257
" />
<path d="M8352 21371
L8390 21390
L8466 21390
L8504 21371
L8523 21333
L8523 21314
L8504 21276
L8466 21257
L8409 21257
L8371 21238
L8352 21200
L8352 21181
L8371 21143
L8409 21124
L8466 21124
L8504 21143
" />
<path d="M8847 21371
L8809 21390
L8733 21390
L8695 21371
L8676 21333
L8676 21181
L8695 21143
L8733 21124
L8809 21124
L8847 21143
L8866 21181
L8866 21219
L8676 21257
" />
<path d="M9209 21390
L9209 21181
L9190 21143
L9152 21124
L9076 21124
L9038 21143
" />
<path d="M9209 21371
L9171 21390
L9076 21390
L9038 21371
L9019 21333
L9019 21295
L9038 21257
L9076 21238
L9171 21238
L9209 21219
" />
<path d="M9400 21390
L9400 21124
" />
<path d="M9400 21200
L9419 21162
L9438 21143
L9476 21124
L9514 21124
" />
<path d="M9819 21371
L9780 21390
L9704 21390
L9666 21371
L9647 21352
L9628 21314
L9628 21200
L9647 21162
L9666 21143
L9704 21124
L9780 21124
L9819 21143
" />
<path d="M9990 21390
L9990 20990
" />
<path d="M10161 21390
L10161 21181
L10142 21143
L10104 21124
L10047 21124
L10009 21143
L9990 21162
" />
<path d="M10885 21352
L10866 21371
L10809 21390
L10771 21390
L10714 21371
L10676 21333
L10657 21295
L10638 21219
L10638 21162
L10657 21086
L10676 21048
L10714 21010
L10771 20990
L10809 20990
L10866 21010
L10885 21029
" />
<path d="M11228 21390
L11228 21181
L11209 21143
L11171 21124
L11095 21124
L11057 21143
" />
<path d="M11228 21371
L11190 21390
L11095 21390
L11057 21371
L11038 21333
L11038 21295
L11057 21257
L11095 21238
L11190 21238
L11228 21219
" />
<path d="M11419 21390
L11419 21124
" />
<path d="M11419 21162
L11438 21143
L11476 21124
L11533 21124
L11571 21143
L11590 21181
L11590 21390
" />
<path d="M11590 21181
L11609 21143
L11647 21124
L11704 21124
L11742 21143
L11761 21181
L11761 21390
" />
<path d="M11952 21124
L11952 21524
" />
<path d="M11952 21143
L11990 21124
L12066 21124
L12104 21143
L12123 21162
L12142 21200
L12142 21314
L12123 21352
L12104 21371
L12066 21390
L11990 21390
L11952 21371
" />
<path d="M12485 21124
L12485 21390
" />
<path d="M12314 21124
L12314 21333
L12333 21371
L12371 21390
L12428 21390
L12466 21371
L12485 21352
" />
<path d="M12657 21371
L12695 21390
L12771 21390
L12809 21371
L12828 21333
L12828 21314
L12809 21276
L12771 21257
L12714 21257
L12676 21238
L12657 21200
L12657 21181
L12676 21143
L12714 21124
L12771 21124
L12809 21143
" />
<text x="9000" y="22110"
textLength="5291.9" font-size="533.333" lengthAdjust="spacingAndGlyphs"
text-anchor="middle" opacity="0">11/2021 ver 1.0</text>
<path d="M6723 22090
L6495 22090
" />
<path d="M6609 22090
L6609 21690
L6571 21748
L6533 21786
L6495 21805
" />
<path d="M7104 22090
L6876 22090
" />
<path d="M6990 22090
L6990 21690
L6952 21748
L6914 21786
L6876 21805
" />
<path d="M7561 21671
L7219 22186
" />
<path d="M7676 21729
L7695 21710
L7733 21690
L7828 21690
L7866 21710
L7885 21729
L7904 21767
L7904 21805
L7885 21862
L7657 22090
L7904 22090
" />
<path d="M8152 21690
L8190 21690
L8228 21710
L8247 21729
L8266 21767
L8285 21843
L8285 21938
L8266 22014
L8247 22052
L8228 22071
L8190 22090
L8152 22090
L8114 22071
L8095 22052
L8076 22014
L8057 21938
L8057 21843
L8076 21767
L8095 21729
L8114 21710
L8152 21690
" />
<path d="M8438 21729
L8457 21710
L8495 21690
L8590 21690
L8628 21710
L8647 21729
L8666 21767
L8666 21805
L8647 21862
L8419 22090
L8666 22090
" />
<path d="M9047 22090
L8819 22090
" />
<path d="M8933 22090
L8933 21690
L8895 21748
L8857 21786
L8819 21805
" />
<path d="M9485 21824
L9580 22090
L9676 21824
" />
<path d="M9980 22071
L9942 22090
L9866 22090
L9828 22071
L9809 22033
L9809 21881
L9828 21843
L9866 21824
L9942 21824
L9980 21843
L10000 21881
L10000 21919
L9809 21957
" />
<path d="M10171 22090
L10171 21824
" />
<path d="M10171 21900
L10190 21862
L10209 21843
L10247 21824
L10285 21824
" />
<path d="M10933 22090
L10704 22090
" />
<path d="M10819 22090
L10819 21690
L10780 21748
L10742 21786
L10704 21805
" />
<path d="M11104 22052
L11123 22071
L11104 22090
L11085 22071
L11104 22052
L11104 22090
" />
<path d="M11371 21690
L11409 21690
L11447 21710
L11466 21729
L11485 21767
L11504 21843
L11504 21938
L11485 22014
L11466 22052
L11447 22071
L11409 22090
L11371 22090
L11333 22071
L11314 22052
L11295 22014
L11276 21938
L11276 21843
L11295 21767
L11314 21729
L11333 21710
L11371 21690
" />
<g transform="rotate(-90 14000 13960)">
<text x="14000" y="14160"
textLength="1634.76" font-size="533.333" lengthAdjust="spacingAndGlyphs"
text-anchor="middle" opacity="0">REFR</text>
</g>
<path d="M14180 14388
L13990 14521
" />
<path d="M14180 14617
L13780 14617
L13780 14464
L13800 14426
L13819 14407
L13857 14388
L13914 14388
L13952 14407
L13971 14426
L13990 14464
L13990 14617
" />
<path d="M13971 14217
L13971 14083
" />
<path d="M14180 14026
L14180 14217
L13780 14217
L13780 14026
" />
<path d="M13971 13721
L13971 13855
" />
<path d="M14180 13855
L13780 13855
L13780 13664
" />
<path d="M14180 13283
L13990 13417
" />
<path d="M14180 13512
L13780 13512
L13780 13360
L13800 13321
L13819 13302
L13857 13283
L13914 13283
L13952 13302
L13971 13321
L13990 13360
L13990 13512
" />
<g transform="rotate(-90 14000 10960)">
<text x="14000" y="11160"
textLength="1234.76" font-size="533.333" lengthAdjust="spacingAndGlyphs"
text-anchor="middle" opacity="0">REF</text>
</g>
<path d="M14180 11188
L13990 11321
" />
<path d="M14180 11417
L13780 11417
L13780 11264
L13800 11226
L13819 11207
L13857 11188
L13914 11188
L13952 11207
L13971 11226
L13990 11264
L13990 11417
" />
<path d="M13971 11017
L13971 10883
" />
<path d="M14180 10826
L14180 11017
L13780 11017
L13780 10826
" />
<path d="M13971 10521
L13971 10655
" />
<path d="M14180 10655
L13780 10655
L13780 10464
" />
<g transform="rotate(-90 1200 11210)">
<text x="1200" y="11410"
textLength="1349.05" font-size="533.333" lengthAdjust="spacingAndGlyphs"
text-anchor="middle" opacity="0">GND</text>
</g>
<path d="M1000 11514
L980 11552
L980 11610
L1000 11667
L1038 11705
L1076 11724
L1152 11743
L1209 11743
L1285 11724
L1323 11705
L1361 11667
L1380 11610
L1380 11571
L1361 11514
L1342 11495
L1209 11495
L1209 11571
" />
<path d="M1380 11324
L980 11324
L1380 11095
L980 11095
" />
<path d="M1380 10905
L980 10905
L980 10810
L1000 10752
L1038 10714
L1076 10695
L1152 10676
L1209 10676
L1285 10695
L1323 10714
L1361 10752
L1380 10810
L1380 10905
" />
<g transform="rotate(-90 4700 11210)">
<text x="4700" y="11410"
textLength="2910.95" font-size="533.333" lengthAdjust="spacingAndGlyphs"
text-anchor="middle" opacity="0">5-24VDC</text>
</g>
<path d="M4480 12314
L4480 12505
L4671 12524
L4652 12505
L4633 12467
L4633 12371
L4652 12333
L4671 12314
L4709 12295
L4804 12295
L4842 12314
L4861 12333
L4880 12371
L4880 12467
L4861 12505
L4842 12524
" />
<path d="M4728 12124
L4728 11819
" />
<path d="M4519 11648
L4500 11629
L4480 11590
L4480 11495
L4500 11457
L4519 11438
L4557 11419
L4595 11419
L4652 11438
L4880 11667
L4880 11419
" />
<path d="M4614 11076
L4880 11076
" />
<path d="M4461 11171
L4747 11267
L4747 11019
" />
<path d="M4480 10924
L4880 10790
L4480 10657
" />
<path d="M4880 10524
L4480 10524
L4480 10429
L4500 10371
L4538 10333
L4576 10314
L4652 10295
L4709 10295
L4785 10314
L4823 10333
L4861 10371
L4880 10429
L4880 10524
" />
<path d="M4842 9895
L4861 9914
L4880 9971
L4880 10010
L4861 10067
L4823 10105
L4785 10124
L4709 10143
L4652 10143
L4576 10124
L4538 10105
L4500 10067
L4480 10010
L4480 9971
L4500 9914
L4519 9895
" />
<text x="7500" y="9160.04"
textLength="1025.24" font-size="533.333" lengthAdjust="spacingAndGlyphs"
text-anchor="middle" opacity="0">B-</text>
<path d="M7280 8931
L7338 8950
L7357 8969
L7376 9007
L7376 9064
L7357 9102
L7338 9121
L7300 9140
L7147 9140
L7147 8740
L7280 8740
L7319 8760
L7338 8779
L7357 8817
L7357 8855
L7338 8893
L7319 8912
L7280 8931
L7147 8931
" />
<path d="M7547 8988
L7852 8988
" />
<text x="8500" y="9160.04"
textLength="1025.24" font-size="533.333" lengthAdjust="spacingAndGlyphs"
text-anchor="middle" opacity="0">B+</text>
<path d="M8280 8931
L8338 8950
L8357 8969
L8376 9007
L8376 9064
L8357 9102
L8338 9121
L8300 9140
L8147 9140
L8147 8740
L8280 8740
L8319 8760
L8338 8779
L8357 8817
L8357 8855
L8338 8893
L8319 8912
L8280 8931
L8147 8931
" />
<path d="M8547 8988
L8852 8988
" />
<path d="M8700 9140
L8700 8836
" />
<text x="10500" y="9160.04"
textLength="968.095" font-size="533.333" lengthAdjust="spacingAndGlyphs"
text-anchor="middle" opacity="0">A-</text>
<path d="M10157 9026
L10347 9026
" />
<path d="M10119 9140
L10252 8740
L10385 9140
" />
<path d="M10519 8988
L10823 8988
" />
<text x="9500" y="9160.04"
textLength="968.095" font-size="533.333" lengthAdjust="spacingAndGlyphs"
text-anchor="middle" opacity="0">A+</text>
<path d="M9157 9026
L9347 9026
" />
<path d="M9119 9140
L9252 8740
L9385 9140
" />
<path d="M9519 8988
L9823 8988
" />
<path d="M9671 9140
L9671 8836
" />
</g>
<g style="fill:#008484; fill-opacity:0.0; 
stroke:#008484; stroke-width:98.4252; stroke-opacity:1; 
stroke-linecap:round; stroke-linejoin:round;">
<path d="M6909 6080
L11090 6080
" />
<path d="M11090 6080
L11090 8639
" />
<path d="M6909 8639
L11090 8639
" />
<path d="M6909 6080
L6909 8639
" />
</g>
<g style="fill:#008484; fill-opacity:0.0; 
stroke:#008484; stroke-width:110; stroke-opacity:1; 
stroke-linecap:round; stroke-linejoin:round;">
<path d="M7250 6110
L7250 6610
" />
<path d="M7250 6610
L7750 6610
" />
<path d="M7750 6610
L7750 6110
" />
<path d="M8250 6110
L8250 6610
" />
<path d="M8250 6610
L8750 6610
" />
<path d="M8750 6610
L8750 6110
" />
<path d="M9250 6110
L9250 6610
" />
<path d="M9250 6610
L9750 6610
" />
<path d="M9750 6610
L9750 6110
" />
<path d="M10250 6110
L10250 6610
" />
<path d="M10250 6610
L10750 6610
" />
<path d="M10750 6610
L10750 6110
" />
<path d="M7500 6360
L7500 6110
" />
<path d="M8500 6360
L8500 6110
" />
<path d="M9500 6360
L9500 6110
" />
<path d="M10500 6360
L10500 6110
" />
</g>
<g style="fill:#008484; fill-opacity:0.0; 
stroke:#008484; stroke-width:150; stroke-opacity:1; 
stroke-linecap:round; stroke-linejoin:round;">
<path d="M17030 9870
L17030 12050
" />
<path d="M17030 12050
L14470 12050
" />
<path d="M14470 9870
L14470 12050
" />
<path d="M17030 9870
L14470 9870
" />
</g>
<g style="fill:#008484; fill-opacity:0.0; 
stroke:#008484; stroke-width:110; stroke-opacity:1; 
stroke-linecap:round; stroke-linejoin:round;">
<path d="M17000 10210
L16500 10210
" />
<path d="M16500 10210
L16500 10710
" />
<path d="M16500 10710
L17000 10710
" />
<path d="M17000 11210
L16500 11210
" />
<path d="M16500 11210
L16500 11710
" />
<path d="M16500 11710
L17000 11710
" />
<path d="M16750 11460
L17000 11460
" />
<path d="M16750 10460
L17000 10460
" />
</g>
<g style="fill:#008484; fill-opacity:0.0; 
stroke:#008484; stroke-width:150; stroke-opacity:1; 
stroke-linecap:round; stroke-linejoin:round;">
<path d="M17030 12870
L17030 15050
" />
<path d="M17030 15050
L14470 15050
" />
<path d="M14470 12870
L14470 15050
" />
<path d="M17030 12870
L14470 12870
" />
</g>
<g style="fill:#008484; fill-opacity:0.0; 
stroke:#008484; stroke-width:110; stroke-opacity:1; 
stroke-linecap:round; stroke-linejoin:round;">
<path d="M17000 13210
L16500 13210
" />
<path d="M16500 13210
L16500 13710
" />
<path d="M16500 13710
L17000 13710
" />
<path d="M17000 14210
L16500 14210
" />
<path d="M16500 14210
L16500 14710
" />
<path d="M16500 14710
L17000 14710
" />
<path d="M16750 14460
L17000 14460
" />
<path d="M16750 13460
L17000 13460
" />
</g>
<g style="fill:#008484; fill-opacity:0.0; 
stroke:#008484; stroke-width:150; stroke-opacity:1; 
stroke-linecap:round; stroke-linejoin:round;">
<path d="M8200 19360
L8200 19160
" />
<path d="M9800 19360
L8200 19360
" />
<path d="M9800 19160
L9800 19360
" />
<path d="M7500 19760
L7000 19260
" />
<path d="M6500 19760
L7500 19760
" />
<path d="M7000 19260
L6500 19760
" />
<path d="M2700 19160
L2700 15760
" />
<path d="M15300 15760
L2700 15760
" />
<path d="M15300 19160
L15300 15760
" />
<path d="M2700 19160
L15300 19160
" />
</g>
<g style="fill:#008484; fill-opacity:0.0; 
stroke:#008484; stroke-width:90; stroke-opacity:1; 
stroke-linecap:round; stroke-linejoin:round;">
<circle cx="2890.16" cy="8100.04" r="1000" /> 
<circle cx="15109.8" cy="8100.04" r="1000" /> 
<circle cx="15109.8" cy="20319.9" r="1000" /> 
<circle cx="2890.16" cy="20319.9" r="1000" /> 
<path d="M13000 9460
L5000 9460
" />
<path d="M5000 9460
L5000 15460
" />
<path d="M5000 15460
L13000 15460
" />
<path d="M13000 15460
L13000 9460
" />
</g>
<g style="fill:#008484; fill-opacity:0.0; 
stroke:#008484; stroke-width:118.11; stroke-opacity:1; 
stroke-linecap:round; stroke-linejoin:round;">
<path d="M4327 14674
L4327 10265
" />
<path d="M4327 10265
L1572 10265
" />
<path d="M1572 14674
L1572 10265
" />
<path d="M4327 14674
L1572 14674
" />
</g>
<g style="fill:#008484; fill-opacity:0.0; 
stroke:#008484; stroke-width:110; stroke-opacity:1; 
stroke-linecap:round; stroke-linejoin:round;">
<path d="M3835 14556
L3442 14556
" />
<path d="M3442 14556
L3638 14162
" />
<path d="M3638 14162
L3835 14556
" />
</g>
<g style="fill:#008484; fill-opacity:0.0; 
stroke:#008484; stroke-width:100; stroke-opacity:1; 
stroke-linecap:round; stroke-linejoin:round;">
<g transform="rotate(-90 6500 7360.04)">
<text x="6500" y="7560.04"
textLength="815.714" font-size="533.333" lengthAdjust="spacingAndGlyphs"
text-anchor="middle" opacity="0">T1</text>
</g>
<path d="M6280 7664
L6280 7436
" />
<path d="M6680 7550
L6280 7550
" />
<path d="M6680 7093
L6680 7321
" />
<path d="M6680 7207
L6280 7207
L6338 7245
L6376 7283
L6395 7321
" />
<text x="15750" y="9660.04"
textLength="815.714" font-size="533.333" lengthAdjust="spacingAndGlyphs"
text-anchor="middle" opacity="0">T3</text>
<path d="M15445 9240
L15673 9240
" />
<path d="M15559 9640
L15559 9240
" />
<path d="M15769 9240
L16016 9240
L15883 9393
L15940 9393
L15978 9412
L15997 9431
L16016 9469
L16016 9564
L15997 9602
L15978 9621
L15940 9640
L15826 9640
L15788 9621
L15769 9602
" />
<text x="15750" y="12660"
textLength="815.714" font-size="533.333" lengthAdjust="spacingAndGlyphs"
text-anchor="middle" opacity="0">T4</text>
<path d="M15445 12240
L15673 12240
" />
<path d="M15559 12640
L15559 12240
" />
<path d="M15978 12374
L15978 12640
" />
<path d="M15883 12221
L15788 12507
L16035 12507
" />
<g transform="rotate(-90 15750 17460)">
<text x="15750" y="17660"
textLength="910.952" font-size="533.333" lengthAdjust="spacingAndGlyphs"
text-anchor="middle" opacity="0">P1</text>
</g>
<path d="M15930 17755
L15530 17755
L15530 17602
L15550 17564
L15569 17545
L15607 17526
L15664 17526
L15702 17545
L15721 17564
L15740 17602
L15740 17755
" />
<path d="M15930 17145
L15930 17374
" />
<path d="M15930 17260
L15530 17260
L15588 17298
L15626 17336
L15645 17374
" />
<g transform="rotate(-90 4700 15010)">
<text x="4700" y="15210"
textLength="1272.86" font-size="533.333" lengthAdjust="spacingAndGlyphs"
text-anchor="middle" opacity="0">SS1</text>
</g>
<path d="M4861 15505
L4880 15448
L4880 15352
L4861 15314
L4842 15295
L4804 15276
L4766 15276
L4728 15295
L4709 15314
L4690 15352
L4671 15429
L4652 15467
L4633 15486
L4595 15505
L4557 15505
L4519 15486
L4500 15467
L4480 15429
L4480 15333
L4500 15276
" />
<path d="M4861 15124
L4880 15067
L4880 14971
L4861 14933
L4842 14914
L4804 14895
L4766 14895
L4728 14914
L4709 14933
L4690 14971
L4671 15048
L4652 15086
L4633 15105
L4595 15124
L4557 15124
L4519 15105
L4500 15086
L4480 15048
L4480 14952
L4500 14895
" />
<path d="M4880 14514
L4880 14743
" />
<path d="M4880 14629
L4480 14629
L4538 14667
L4576 14705
L4595 14743
" />
<text x="9000" y="12660"
textLength="6244.29" font-size="533.333" lengthAdjust="spacingAndGlyphs"
text-anchor="middle" opacity="0">STEPSTICK_TMC2209</text>
<path d="M6019 12621
L6076 12640
L6171 12640
L6209 12621
L6228 12602
L6247 12564
L6247 12526
L6228 12488
L6209 12469
L6171 12450
L6095 12431
L6057 12412
L6038 12393
L6019 12355
L6019 12317
L6038 12279
L6057 12260
L6095 12240
L6190 12240
L6247 12260
" />
<path d="M6361 12240
L6590 12240
" />
<path d="M6476 12640
L6476 12240
" />
<path d="M6723 12431
L6857 12431
" />
<path d="M6914 12640
L6723 12640
L6723 12240
L6914 12240
" />
<path d="M7085 12640
L7085 12240
L7238 12240
L7276 12260
L7295 12279
L7314 12317
L7314 12374
L7295 12412
L7276 12431
L7238 12450
L7085 12450
" />
<path d="M7466 12621
L7523 12640
L7619 12640
L7657 12621
L7676 12602
L7695 12564
L7695 12526
L7676 12488
L7657 12469
L7619 12450
L7542 12431
L7504 12412
L7485 12393
L7466 12355
L7466 12317
L7485 12279
L7504 12260
L7542 12240
L7638 12240
L7695 12260
" />
<path d="M7809 12240
L8038 12240
" />
<path d="M7923 12640
L7923 12240
" />
<path d="M8171 12640
L8171 12240
" />
<path d="M8590 12602
L8571 12621
L8514 12640
L8476 12640
L8419 12621
L8380 12583
L8361 12545
L8342 12469
L8342 12412
L8361 12336
L8380 12298
L8419 12260
L8476 12240
L8514 12240
L8571 12260
L8590 12279
" />
<path d="M8761 12640
L8761 12240
" />
<path d="M8990 12640
L8819 12412
" />
<path d="M8990 12240
L8761 12469
" />
<path d="M9066 12679
L9371 12679
" />
<path d="M9409 12240
L9638 12240
" />
<path d="M9523 12640
L9523 12240
" />
<path d="M9771 12640
L9771 12240
L9904 12526
L10038 12240
L10038 12640
" />
<path d="M10457 12602
L10438 12621
L10380 12640
L10342 12640
L10285 12621
L10247 12583
L10228 12545
L10209 12469
L10209 12412
L10228 12336
L10247 12298
L10285 12260
L10342 12240
L10380 12240
L10438 12260
L10457 12279
" />
<path d="M10609 12279
L10628 12260
L10666 12240
L10761 12240
L10800 12260
L10819 12279
L10838 12317
L10838 12355
L10819 12412
L10590 12640
L10838 12640
" />
<path d="M10990 12279
L11009 12260
L11047 12240
L11142 12240
L11180 12260
L11200 12279
L11219 12317
L11219 12355
L11200 12412
L10971 12640
L11219 12640
" />
<path d="M11466 12240
L11504 12240
L11542 12260
L11561 12279
L11580 12317
L11600 12393
L11600 12488
L11580 12564
L11561 12602
L11542 12621
L11504 12640
L11466 12640
L11428 12621
L11409 12602
L11390 12564
L11371 12488
L11371 12393
L11390 12317
L11409 12279
L11428 12260
L11466 12240
" />
<path d="M11790 12640
L11866 12640
L11904 12621
L11923 12602
L11961 12545
L11980 12469
L11980 12317
L11961 12279
L11942 12260
L11904 12240
L11828 12240
L11790 12260
L11771 12279
L11752 12317
L11752 12412
L11771 12450
L11790 12469
L11828 12488
L11904 12488
L11942 12469
L11961 12450
L11980 12412
" />
<g transform="rotate(-90 12500 11460)">
<text x="12500" y="11660"
textLength="1349.05" font-size="533.333" lengthAdjust="spacingAndGlyphs"
text-anchor="middle" opacity="0">GND</text>
</g>
<path d="M12300 11764
L12280 11802
L12280 11860
L12300 11917
L12338 11955
L12376 11974
L12452 11993
L12509 11993
L12585 11974
L12623 11955
L12661 11917
L12680 11860
L12680 11821
L12661 11764
L12642 11745
L12509 11745
L12509 11821
" />
<path d="M12680 11574
L12280 11574
L12680 11345
L12280 11345
" />
<path d="M12680 11155
L12280 11155
L12280 11060
L12300 11002
L12338 10964
L12376 10945
L12452 10926
L12509 10926
L12585 10945
L12623 10964
L12661 11002
L12680 11060
L12680 11155
" />
<g transform="rotate(-90 11500 11460)">
<text x="11500" y="11660"
textLength="1082.38" font-size="533.333" lengthAdjust="spacingAndGlyphs"
text-anchor="middle" opacity="0">VIO</text>
</g>
<path d="M11280 11898
L11680 11764
L11280 11631
" />
<path d="M11680 11498
L11280 11498
" />
<path d="M11280 11231
L11280 11155
L11300 11117
L11338 11079
L11414 11060
L11547 11060
L11623 11079
L11661 11117
L11680 11155
L11680 11231
L11661 11269
L11623 11307
L11547 11326
L11414 11326
L11338 11307
L11300 11269
L11280 11231
" />
<g transform="rotate(-90 10500 11460)">
<text x="10500" y="11660"
textLength="1368.1" font-size="533.333" lengthAdjust="spacingAndGlyphs"
text-anchor="middle" opacity="0">M1B</text>
</g>
<path d="M10680 11983
L10280 11983
L10566 11850
L10280 11717
L10680 11717
" />
<path d="M10680 11317
L10680 11545
" />
<path d="M10680 11431
L10280 11431
L10338 11469
L10376 11507
L10395 11545
" />
<path d="M10471 11012
L10490 10955
L10509 10936
L10547 10917
L10604 10917
L10642 10936
L10661 10955
L10680 10993
L10680 11145
L10280 11145
L10280 11012
L10300 10974
L10319 10955
L10357 10936
L10395 10936
L10433 10955
L10452 10974
L10471 11012
L10471 11145
" />
<g transform="rotate(-90 9500 11460)">
<text x="9500" y="11660"
textLength="1310.95" font-size="533.333" lengthAdjust="spacingAndGlyphs"
text-anchor="middle" opacity="0">M1A</text>
</g>
<path d="M9680 11955
L9280 11955
L9566 11821
L9280 11688
L9680 11688
" />
<path d="M9680 11288
L9680 11517
" />
<path d="M9680 11402
L9280 11402
L9338 11440
L9376 11479
L9395 11517
" />
<path d="M9566 11136
L9566 10945
" />
<path d="M9680 11174
L9280 11040
L9680 10907
" />
<g transform="rotate(-90 8500 11460)">
<text x="8500" y="11660"
textLength="1310.95" font-size="533.333" lengthAdjust="spacingAndGlyphs"
text-anchor="middle" opacity="0">M2A</text>
</g>
<path d="M8680 11955
L8280 11955
L8566 11821
L8280 11688
L8680 11688
" />
<path d="M8319 11517
L8300 11498
L8280 11460
L8280 11364
L8300 11326
L8319 11307
L8357 11288
L8395 11288
L8452 11307
L8680 11536
L8680 11288
" />
<path d="M8566 11136
L8566 10945
" />
<path d="M8680 11174
L8280 11040
L8680 10907
" />
<g transform="rotate(-90 7500 11460)">
<text x="7500" y="11660"
textLength="1368.1" font-size="533.333" lengthAdjust="spacingAndGlyphs"
text-anchor="middle" opacity="0">M2B</text>
</g>
<path d="M7680 11983
L7280 11983
L7566 11850
L7280 11717
L7680 11717
" />
<path d="M7319 11545
L7300 11526
L7280 11488
L7280 11393
L7300 11355
L7319 11336
L7357 11317
L7395 11317
L7452 11336
L7680 11564
L7680 11317
" />
<path d="M7471 11012
L7490 10955
L7509 10936
L7547 10917
L7604 10917
L7642 10936
L7661 10955
L7680 10993
L7680 11145
L7280 11145
L7280 11012
L7300 10974
L7319 10955
L7357 10936
L7395 10936
L7433 10955
L7452 10974
L7471 11012
L7471 11145
" />
<g transform="rotate(-90 6500 11460)">
<text x="6500" y="11660"
textLength="1349.05" font-size="533.333" lengthAdjust="spacingAndGlyphs"
text-anchor="middle" opacity="0">GND</text>
</g>
<path d="M6300 11764
L6280 11802
L6280 11860
L6300 11917
L6338 11955
L6376 11974
L6452 11993
L6509 11993
L6585 11974
L6623 11955
L6661 11917
L6680 11860
L6680 11821
L6661 11764
L6642 11745
L6509 11745
L6509 11821
" />
<path d="M6680 11574
L6280 11574
L6680 11345
L6280 11345
" />
<path d="M6680 11155
L6280 11155
L6280 11060
L6300 11002
L6338 10964
L6376 10945
L6452 10926
L6509 10926
L6585 10945
L6623 10964
L6661 11002
L6680 11060
L6680 11155
" />
<g transform="rotate(-90 5500 11460)">
<text x="5500" y="11660"
textLength="930" font-size="533.333" lengthAdjust="spacingAndGlyphs"
text-anchor="middle" opacity="0">VM</text>
</g>
<path d="M5280 11821
L5680 11688
L5280 11555
" />
<path d="M5680 11421
L5280 11421
L5566 11288
L5280 11155
L5680 11155
" />
<g transform="rotate(-90 5500 13460)">
<text x="5500" y="13660"
textLength="910.952" font-size="533.333" lengthAdjust="spacingAndGlyphs"
text-anchor="middle" opacity="0">EN</text>
</g>
<path d="M5471 13755
L5471 13621
" />
<path d="M5680 13564
L5680 13755
L5280 13755
L5280 13564
" />
<path d="M5680 13393
L5280 13393
L5680 13164
L5280 13164
" />
<g transform="rotate(-90 6500 13460)">
<text x="6500" y="13660"
textLength="1349.05" font-size="533.333" lengthAdjust="spacingAndGlyphs"
text-anchor="middle" opacity="0">MS1</text>
</g>
<path d="M6680 13974
L6280 13974
L6566 13840
L6280 13707
L6680 13707
" />
<path d="M6661 13536
L6680 13479
L6680 13383
L6661 13345
L6642 13326
L6604 13307
L6566 13307
L6528 13326
L6509 13345
L6490 13383
L6471 13460
L6452 13498
L6433 13517
L6395 13536
L6357 13536
L6319 13517
L6300 13498
L6280 13460
L6280 13364
L6300 13307
" />
<path d="M6680 12926
L6680 13155
" />
<path d="M6680 13040
L6280 13040
L6338 13079
L6376 13117
L6395 13155
" />
<g transform="rotate(-90 7500 13460)">
<text x="7500" y="13660"
textLength="1349.05" font-size="533.333" lengthAdjust="spacingAndGlyphs"
text-anchor="middle" opacity="0">MS2</text>
</g>
<path d="M7680 13974
L7280 13974
L7566 13840
L7280 13707
L7680 13707
" />
<path d="M7661 13536
L7680 13479
L7680 13383
L7661 13345
L7642 13326
L7604 13307
L7566 13307
L7528 13326
L7509 13345
L7490 13383
L7471 13460
L7452 13498
L7433 13517
L7395 13536
L7357 13536
L7319 13517
L7300 13498
L7280 13460
L7280 13364
L7300 13307
" />
<path d="M7319 13155
L7300 13136
L7280 13098
L7280 13002
L7300 12964
L7319 12945
L7357 12926
L7395 12926
L7452 12945
L7680 13174
L7680 12926
" />
<g transform="rotate(-90 8500 13460)">
<text x="8500" y="13660"
textLength="1710.95" font-size="533.333" lengthAdjust="spacingAndGlyphs"
text-anchor="middle" opacity="0">SPRD</text>
</g>
<path d="M8661 14174
L8680 14117
L8680 14021
L8661 13983
L8642 13964
L8604 13945
L8566 13945
L8528 13964
L8509 13983
L8490 14021
L8471 14098
L8452 14136
L8433 14155
L8395 14174
L8357 14174
L8319 14155
L8300 14136
L8280 14098
L8280 14002
L8300 13945
" />
<path d="M8680 13774
L8280 13774
L8280 13621
L8300 13583
L8319 13564
L8357 13545
L8414 13545
L8452 13564
L8471 13583
L8490 13621
L8490 13774
" />
<path d="M8680 13145
L8490 13279
" />
<path d="M8680 13374
L8280 13374
L8280 13221
L8300 13183
L8319 13164
L8357 13145
L8414 13145
L8452 13164
L8471 13183
L8490 13221
L8490 13374
" />
<path d="M8680 12974
L8280 12974
L8280 12879
L8300 12821
L8338 12783
L8376 12764
L8452 12745
L8509 12745
L8585 12764
L8623 12783
L8661 12821
L8680 12879
L8680 12974
" />
<g transform="rotate(-90 9500 13460)">
<text x="9500" y="13660"
textLength="1596.67" font-size="533.333" lengthAdjust="spacingAndGlyphs"
text-anchor="middle" opacity="0">UART</text>
</g>
<path d="M9280 14098
L9604 14098
L9642 14079
L9661 14060
L9680 14021
L9680 13945
L9661 13907
L9642 13888
L9604 13869
L9280 13869
" />
<path d="M9566 13698
L9566 13507
" />
<path d="M9680 13736
L9280 13602
L9680 13469
" />
<path d="M9680 13107
L9490 13240
" />
<path d="M9680 13336
L9280 13336
L9280 13183
L9300 13145
L9319 13126
L9357 13107
L9414 13107
L9452 13126
L9471 13145
L9490 13183
L9490 13336
" />
<path d="M9280 12993
L9280 12764
" />
<path d="M9680 12879
L9280 12879
" />
<g transform="rotate(-90 10500 13460)">
<text x="10500" y="13660"
textLength="1349.05" font-size="533.333" lengthAdjust="spacingAndGlyphs"
text-anchor="middle" opacity="0">PDN</text>
</g>
<path d="M10680 13974
L10280 13974
L10280 13821
L10300 13783
L10319 13764
L10357 13745
L10414 13745
L10452 13764
L10471 13783
L10490 13821
L10490 13974
" />
<path d="M10680 13574
L10280 13574
L10280 13479
L10300 13421
L10338 13383
L10376 13364
L10452 13345
L10509 13345
L10585 13364
L10623 13383
L10661 13421
L10680 13479
L10680 13574
" />
<path d="M10680 13174
L10280 13174
L10680 12945
L10280 12945
" />
<g transform="rotate(-90 11500 13460)">
<text x="11500" y="13660"
textLength="1577.62" font-size="533.333" lengthAdjust="spacingAndGlyphs"
text-anchor="middle" opacity="0">STEP</text>
</g>
<path d="M11661 14107
L11680 14050
L11680 13955
L11661 13917
L11642 13898
L11604 13879
L11566 13879
L11528 13898
L11509 13917
L11490 13955
L11471 14031
L11452 14069
L11433 14088
L11395 14107
L11357 14107
L11319 14088
L11300 14069
L11280 14031
L11280 13936
L11300 13879
" />
<path d="M11280 13764
L11280 13536
" />
<path d="M11680 13650
L11280 13650
" />
<path d="M11471 13402
L11471 13269
" />
<path d="M11680 13212
L11680 13402
L11280 13402
L11280 13212
" />
<path d="M11680 13040
L11280 13040
L11280 12888
L11300 12850
L11319 12831
L11357 12812
L11414 12812
L11452 12831
L11471 12850
L11490 12888
L11490 13040
" />
<g transform="rotate(-90 12500 13460)">
<text x="12500" y="13660"
textLength="1120.48" font-size="533.333" lengthAdjust="spacingAndGlyphs"
text-anchor="middle" opacity="0">DIR</text>
</g>
<path d="M12680 13860
L12280 13860
L12280 13764
L12300 13707
L12338 13669
L12376 13650
L12452 13631
L12509 13631
L12585 13650
L12623 13669
L12661 13707
L12680 13764
L12680 13860
" />
<path d="M12680 13460
L12280 13460
" />
<path d="M12680 13040
L12490 13174
" />
<path d="M12680 13269
L12280 13269
L12280 13117
L12300 13079
L12319 13060
L12357 13040
L12414 13040
L12452 13060
L12471 13079
L12490 13117
L12490 13269
" />
<text x="2950" y="15210"
textLength="815.714" font-size="533.333" lengthAdjust="spacingAndGlyphs"
text-anchor="middle" opacity="0">T2</text>
<path d="M2645 14790
L2873 14790
" />
<path d="M2759 15190
L2759 14790
" />
<path d="M2988 14829
L3007 14810
L3045 14790
L3140 14790
L3178 14810
L3197 14829
L3216 14867
L3216 14905
L3197 14962
L2969 15190
L3216 15190
" />
<g >
</g>
</g>
<g style="fill:#000000; fill-opacity:0.0; 
stroke:#000000; stroke-width:100; stroke-opacity:1; 
stroke-linecap:round; stroke-linejoin:round;">
</g>
<g style="fill:#C2C200; fill-opacity:0.0; 
stroke:#C2C200; stroke-width:100; stroke-opacity:1; 
stroke-linecap:round; stroke-linejoin:round;">
</g>
<g style="fill:#C2C200; fill-opacity:0.0; 
stroke:#C2C200; stroke-width:90; stroke-opacity:1; 
stroke-linecap:round; stroke-linejoin:round;">
<path d="M750 21210 A1250 1250 0.0 0 0 2000 22460" />
<path d="M16000 22460 A1250 1250 0.0 0 0 17250 21210" />
<path d="M17250 7210.04 A1250 1250 0.0 0 0 16000 5960.04" />
<path d="M2000 5960.04 A1250 1250 0.0 0 0 750 7210.04" />
<path d="M750 7210
L750 21210
" />
<path d="M2000 22460
L16000 22460
" />
<path d="M17250 7210
L17250 21210
" />
<path d="M2000 5960
L16000 5960
" />
<g >
</g>
<g >
</g>
<g >
</g>
<g >
</g>
<g >
</g>
<g >
</g>
<g >
</g>
<g >
</g>
<g >
</g>
<g >
</g>
<g >
</g>
<g >
</g>
<g >
</g>
<g >
</g>
<g >
</g>
<g >
</g>
<g >
</g>
<g >
</g>
<g >
</g>
<g >
</g>
<g >
</g>
<g >
</g>
<g >
</g>
<g >
</g>
<g >
</g>
<g >
</g>
<g >
</g>
</g> 
</svg>
